<mxfile host="app.diagrams.net" agent="Mozilla/5.0 (Macintosh; Intel Mac OS X 10_15_7) AppleWebKit/537.36 (KHTML, like Gecko) Chrome/130.0.0.0 Safari/537.36" version="24.8.8">
  <diagram name="Page-1" id="BHMSMn9DsiL2cpSwHJUV">
    <mxGraphModel dx="974" dy="526" grid="0" gridSize="10" guides="1" tooltips="1" connect="1" arrows="1" fold="1" page="1" pageScale="1" pageWidth="850" pageHeight="1100" math="0" shadow="0">
      <root>
        <mxCell id="0" />
        <mxCell id="1" parent="0" />
        <mxCell id="FbD6uWz_3IArERq_xoOW-11" style="edgeStyle=orthogonalEdgeStyle;rounded=0;orthogonalLoop=1;jettySize=auto;html=1;entryX=0.5;entryY=0;entryDx=0;entryDy=0;" edge="1" parent="1" source="FbD6uWz_3IArERq_xoOW-1" target="FbD6uWz_3IArERq_xoOW-10">
          <mxGeometry relative="1" as="geometry" />
        </mxCell>
        <mxCell id="FbD6uWz_3IArERq_xoOW-1" value="" style="shape=image;verticalLabelPosition=bottom;labelBackgroundColor=default;verticalAlign=top;aspect=fixed;imageAspect=0;image=https://seeklogo.com/images/P/pinecone-icon-logo-AF8B5B7F96-seeklogo.com.png;" vertex="1" parent="1">
          <mxGeometry x="379.7" y="311.16" width="53.4" height="60" as="geometry" />
        </mxCell>
        <mxCell id="FbD6uWz_3IArERq_xoOW-12" style="edgeStyle=orthogonalEdgeStyle;rounded=0;orthogonalLoop=1;jettySize=auto;html=1;entryX=0.5;entryY=1;entryDx=0;entryDy=0;" edge="1" parent="1" source="FbD6uWz_3IArERq_xoOW-2" target="FbD6uWz_3IArERq_xoOW-10">
          <mxGeometry relative="1" as="geometry">
            <Array as="points">
              <mxPoint x="462" y="457" />
              <mxPoint x="501" y="458" />
            </Array>
          </mxGeometry>
        </mxCell>
        <mxCell id="FbD6uWz_3IArERq_xoOW-2" value="" style="shape=image;verticalLabelPosition=bottom;labelBackgroundColor=default;verticalAlign=top;aspect=fixed;imageAspect=0;image=https://freepnglogo.com/images/all_img/1702059841openai-icon-png.png;" vertex="1" parent="1">
          <mxGeometry x="379.7" y="425.49" width="62.7" height="63.66" as="geometry" />
        </mxCell>
        <mxCell id="FbD6uWz_3IArERq_xoOW-3" value="" style="shape=image;verticalLabelPosition=bottom;labelBackgroundColor=default;verticalAlign=top;aspect=fixed;imageAspect=0;image=data:image/jpeg,/9j/4AAQSkZJRgABAQAAAQABAAD/2wBDAAUDBAQEAwUEBAQFBQUGBwwIBwcHBw8LCwkMEQ8SEhEPERETFhwXExQaFRERGCEYGh0dHx8fExciJCIeJBweHx7/2wBDAQUFBQcGBw4ICA4eFBEUHh4eHh4eHh4eHh4eHh4eHh4eHh4eHh4eHh4eHh4eHh4eHh4eHh4eHh4eHh4eHh4eHh7/wgARCAG+Ap0DASIAAhEBAxEB/8QAGwAAAQUBAQAAAAAAAAAAAAAAAgEDBAUGAAf/xAAbAQADAQEBAQEAAAAAAAAAAAAAAQIDBAUGB//aAAwDAQACEAMQAAAB8lmi16PHKgWI651MtGeLqtCiTfS4R4u1zHj5g8XAHHwCh8A8XMBVVA8vMTlVAF3ByLwIhcA8vIUV4O7uAV7paPNEx5Y3JkrfIkHFIJXNzp0i9Kaz0ZF7pcfpCJx3DNPlRZrgdCaZCUKIrckQijJREVJIijJIAGEkIEfnVaZF5JpkXhka4xQPFzLRHO9bzgUlaaiWA5aNPKukDxLcApcA8fAHHzA4+EHHwBx8AcfAHFwx4uAONECh8gOLhihoMeLgHl5A8SDHi5A8SIFVRN6XX8FqNac3NGKSckor80YL0203KGajDIbQwRIJO5A4Q4CVBTVpEJVAUHFBZtE4ZaioyxFwUwUlC04+9jyx4+EPGjQ8fMHi4QqqsHi4B4uAePgDjQB4uAeJQBD4A4+QHFzYcaIFD5MONAFDRMUNAFD5MEPkw4uAOLkxQ0QPEiYqqIV5hByXYSy7FIHTc0IqodBkRGLYj5ERUaByZIKJ8nJNGrXA5zXJuCKSEicnxAid+rMr0/NbUY2OsvrCFcApd0848SsDj4A4+AeLmDxKAc6CB40aHi4YofAHGgChomPFwBxomHGgCh8mHFwBxcmHFyBQ0TDi5MOLkw4uTDjRAoSJihomndyF4eHwPChlHUm2RcRUCEk0KEiYoSKhQkTRCRNO5JfIqJ93cj01/HV/iehoKFqbrO7sq3YcmnmFf7T599D5GW53vb8trnOct84jQcfCDjQB4uAeLgHi4A40GPESAF5sYofAHFwBxcmHGgw40QKGiYoXDDjRAcaJihcmKFyA40TBDRMENExQumkIeQqJwIJpLbRxFTYyBm2BkjNR0cBMUNCgQxlihIqHl6WPKkv2jG2+l+c9Xyud69nrisJjIWvXbvyvWY03hvYo3o8fkaafO/T+MzzvdGDSO85a5xQZ51UMo8gmecG4FDRA2MK4y2h12kzox4u1xDi5AoaDHi5AcaDDi5AIfJghomKGgw4uTDi6WHEiYoXJghomCGksEMVQoSJjyoqTuRMkDpZEBS2RcBVwqqbSOAqFCSaFCRUPEiejl3EP5/0tnpvGrHG9tibrEaReV1zCta298ru869NrI03J4Sp9jz3veZ56llC+h8poytsNG29Va/Ee/wCe13rLXp8vlI2ET67wVetTw6ID9iGOsaguB2xrol9V64REPtsAQ+AONEw40GHGiA40TDi5MEPkwQ+TBDSWCHyYG61FtIXNNoaTQcSKgQxlghoqBDFUKEksUIVQoqKkRUmkRUTQSSWiKipO7k/S4Gim/M+rnaW8ZZV2i1NzNhzZzWXOxh6S5psp0v0208s0eF77Kneteateq4b1eN/TZ/afO+lTraVumXm7brn6L8xZvJI4e2DMRxFbHnRtsnqTSVFZsVuvrbyz/GnXwjxcMOLkBxcMENEw40TDi5MENExQ0TBDSWInybaGioENJoENE20NJoEMUwQxVghjNChJLBDFWCEioUJExQklihJLFCRVrdTgtT8/6eldxOpzdBaz3s6y8GyuaM5MihpKN9etZWeEwKnc+d21L0q08x0nFtp28HNitpHpdLtl5g/YQfrfGsHm5lOM50hOsaldrlIo7eI1dZjUZiSti6Kq7/Mg8+GuLaHzTfGgBxomCGiYoaDDi6WCGiYIaJghpNAhomCGiYC4M0CGk02hoqbQ0mm0MZoEMVYoQpihjNghiqFCSWKEiYoSS766ZgfO+tXbDNXjJGh840yV2tfbQ89eNvQ88xOt2ZTQw660Et2c1U3g080snMaBqn9dwF/Fa+T5VssyxrrCz2jEWWt7sww8e/o+/njjCm9uF3kdXhZq7GA84pmNb5xrhcnTd0c971TZdHMaPBriAuI0CGiYcSJihomCGksENFQIaJto4M0CGiptHBmm0NJoBNFQCaTTaGM0ImKsOIZYiYqxQkVChJLFCSXta28yfznsXMKxgNS3+p0WMkq8NJb5KNJuo9Dfor509uHT1+joaHD09VzbZ2VDLrxsSr7xGG1FToNIga/MaCHaXGSsUtCtHQJ7isgXIV2N9Nb3jAQvQcX3Y2HnfoFftnW5L1HzTfKKu7x+uU86nu7guRjRbiyRHd+dpDS8W+MVQoaJghJLFCRUCGiptHBVAhpLbFwZoBNJsBNFQCaTTaGM2CGKoRNJoBMVQoSTQoQp7fDa+k+d9fVZnS+eo9Bz+pyMvXY7a+eUbSt0mYh21RosyzQWTGTR6UNLXI9QyZxMLqz0EzWKrNegZ6KotVBubmHaQozm1m1egShZTaUTI93TX4VdfYODsqmXUejzWU+G50ZwsZ6BnN5scdvMl0YVzVkHXzQDkhpiDT4b8jIvJWbPOgAA6iGUcFAIYoBDRUCGiptDSabQ0VNoaTTYuDNgJoqbQxmgQxmwQxmgQxVCJjNChIq0NV1p87682onRJq9yl22i3zF9XhqfNN3mWtxhdrjlW5829AppLajs4adxitVjQ9Gymyw4t1Op6dGvuMvqSYbOijIbs0lioczrqxONaRZKdfa08xrSs455l+1Gl3MfLbrB+5525wO2z2sU8XVUvocdajidXK0LwktC8LlkXhJaF4QYR1EmReEbKOik0jgpgLgqgFwVQC4M0Amk02LgqwE0mm0MZoEJFYISTQIYzQISKp1ziN9857WdsHpsVXyKm7aqF62acgzI0XY52zVzPiKc02lVoGodVYty9Xg9nkaW4y+mw0vf2EKZCvKLQ0qnTWECY1HrZuaHaWOa0oqeSy6FdKltNstWLSGM9qsz7/mamlu60c+FNaDF9oV9Pgy6GnXyAjiA0LyOWReETAviDKPuTcMbetzuOMgNM44yBJji+KGEdEbSPNxbYuCm2LgzYCYzQIYqgE0mwExmhExVTtTU7T5X6DzLVZ3SusTu87pXOTv8TvqnLXtHoxV9hU301U22L2gs3q8XtR5abXXsuRnr2nqdNhtvjxemsPpiaOrs69K/lRpLUXKa3JIj6zK61vPSo0xEGGY0rF+MgSKa1rvc4LyBLraLOM6yIHha0zyhCvs+WqEoAhtIUUjS5CRrHm6LbZ1Dfxv0d9Boj4eqsoNwfveX5mPq/Xj5ifog464Oz0VctNJ5JrovRjlm/WPLva8mMDodfMAmk02hirATSKbQxVAhJN6l/NSvm/eu9Jipsuu09fKRl9NX66X5fsMV6g15RvcjsWZDYZPTp5bWZDYJ43R5HY1DSQ5ycmgtmRbpHHcC5gHISsnWnWoub1OaTg7DC7Nqim09wOsYsYLU1eEJNXa13s8VjEnw6JDL/BC7k1zzzGoh9vJRuT6JO0kUEP5/19vJ85Ti39KY87lZ1oHoNwtapX7ImlZ01HrFEVjP2zoK/dvwedbKxuAppkg1Tnl29889zzYzb7fteM0LgobQxVAJjNghjNAJjNzqvR5f5v37dp+kC+aWlZo7LOqGom+f3AX1/gpubG+q5bIFy47z6+bbfO+ka5+c3lZrmZqXEs5NSTK4zPmVVglZy4pAWduIKM3s8bs2Ze6q7UcWqsK9q1hzYyHK4qnsy0cRtqXZv1dgiCJNJ6KypYedv5zXVWkVVTb5rn3tZ+UYqdjK8+OT0FnHx2adcLI2jYOZOyslpTdSuWIKaKRZ1FhRJfZjUWOX0+Y9XzWxeHv85gHxRHF4UMi6CYCYzYCYqtPj3rD5v3QobGmutRRWucDTMsV6dzAjA4ulqooXzNETW3g5xIrR6fB6OalX3lu2btb7zXeZK8mVTuB13U3aJ0Sa2Krf52XldFU2gUFxEsgqay5qaLhvpCINdbtsTpDQdNbRAjVIzU1y8ORltJR1NZk9fG3nKdoarVVcyK8zWZ/cZjF58pyaqPaV17Rn3HJKIymQWS3tdLGmv83uajFbbzbt5bCNB7p5JEVpvPTub6KcbRFSpwy3HI3NOx3O8/rmhDFlrVtoDzaEIkkxR8DgCQ0cBV5Uc/HkIubSiuY3TV5jTYltIckYTDvqe5hz4U6upOxptPLCVDmBU3MSUDMCXXWrsIryKqLLcpOwbaqRYsPknRi6zZdxZcKSzqbKrE4c0WHmNdWMw1Zqs10z6dSaKDzVjHrFdVn7+Fo6MrcQr5GSC2jWbqoskwdXhPUPMO1avzvf4bryqBJNuYOJBI6HMkBH5qY5WKKaDLYzj6Og8jvY5+NrJdxg0ioDopwGBKAOIoGgGhSbtUOWdNOx0v7WjusDWlBPJybOK+FrEeYQ5UXVanHktWbUFyQ2nWRJoaJJCpJXyos9i1E+MJ5ZUUcKDJFq0rrWul2FfaQAsSeAH4FrBpUWI9BxWq9Ir7CJhVcL7wZzSU17osjpKK+Bii2GUZpZsGfDkeReyeR9k21RaRuswy6t+sMY1tGrjLp6nNyrxWX6M9Z5rD9VZT86b2tm35W1Nb5tGxMESLGI6qrp8KUFdM1OYQ7XT7kcG6rKuHNpnntM4iOWAV9tHtc27uMrqOd3TTg5O4eEW57DhSDTXtYyDoKjRhVvLICn64gtRGVCXW21bdNQAsCHHrbmKFKkpxlnBtAzcWBYxmpzoyWGjp0srkPSKVu2h6SPm81JndJnbmts2ZW7i2loM9o4CJFnAtkS/LPVcFuVkW7Z7TO7Cp2/MsK9rVkgWk5mTJTHpms49jVwtihmzGLPGXjdC3orOFnUSY47cyqG3CGMliUnVPTm6LSntizqpGylsy+iOZJEj6oMXD0DF1CdlV1/mPRbBGuf5yhK25gUot9X2A4D8azYVZZNMoOsm8iutWLRlLXXNah1LA2YuZLmw23p3BWtTWUOvCTSyWJlAqpaOSSudmbAyeazg6OPzXnCv2saooeiYzKezJ2SR5z6Zm9FgrC5bZXbHNXUu0bddFFJHKVLSW9LoT0WDZoY0CAOfOxTfF12l9jJmk39U1Ws1DuWno0UfJ8lqxrodF1Mzk+lZDSOouWIsdlp1c8pW+orx5wbmDbZkpznaBcB3ROwJzNBmq6NicLlww3JFVDZlhzkWwamaKFBtAlqClJXEwuLkmTzK1ixhSO86VIJbDttV5zckkhdePd3Uci8gRcRAMyUlwm7JM7jMWEZFaxZNcrp5bzuYTxHQzBtobK2NYNyNM2rdumzu0Zs8QvMNZ+zz3dD0Zq5vcZYcmq1U2VtOmqq1vCmN7hS1i6pXHuiNbTVh8ewbHLklGvwueW7R82cFaW8WfNMvQrBjr5u90R0kNt8Sk55CS0iryGW5KTTTqo0jEmHmwfalRVV0uLzuS5UWFBQBXMlI42xeVQF9uVsOuCXXl3d1Hd3B3ciFBW03FAxdGlInQwtBXefpUPrDgvXswlGpg1EhoY82aOF05AgyIL8vwuO4HVRIAtNlzdTcO0h5242KXBIhUicBxAOEYiktTpVjqqfX87el2k1uGtiO5n76NYiEu7pjgNA5U4F6GCJ/VUdF72ajQ9d2KaFt42Gbye4neYOp+iwMBGRqp2COHp2s5GDdw8rwtQ9lzk1K5gQ21p53JH6F2Hlt6tce21s0xDDXoiYqtZ6O95q+z0RMS2zWZCqhwThrDtT3I7qHjj8D6VtXRpXcY1otY5iRbyxV8paTzgyYpGeacGbSMNAGpfdhkKxkVTiV3Lzjiz0trinXn6hZeSzo09NYyb+dbiLlwV6Sbln07SXXzIoatyvasxYcly0gSJHO4BMtSGKEAVpDHlIxqHbRmQGbFilHUyGwEuOxHmpKTgxSTcWFNVPWdO/FSpVaUOZBlVjU9uMjUnn4DT06NbIaiWsZOjr5dV0jHG5tDEh9pS6rBogt2cC1VRJ/aqLFntszEuGUXbHGXK3WQ5pxQ4fJyOSQVYbrL0vnGjTkPRnZc/Q5PRZm5StawWgra+QD8lrkTXqqaOHHsYwlkRBCyrhbY3KBlk2DWSqUxmPNaBWorLOtkCFfaBCofONGCXKorEDbmchwor8tnpkCalT2bGaRtG0OtxIrUmPWaClWzp9ckFvVyWWCg2nTxRhbMQba1iwmV9xMxY8qC1FhzWNFVhZt2q1XmaeZVDTlELudByEHF3KkAka7uURKjipHWjQ+TCy7K2o9LmrexjWGJBRgAmhUx2aFh6RJTR550QHpkEJsdpGTIb0lEA7OnpH0pmkaVCslAUNpX1BiyqS8TaSQ9JEW0rQb6XGHWWxKqnS89WzW2n4N5m4brYuS6PY0dq7GIqS2UJ0LHsro6INTbUdtqMMLeL2G3apNLcSYM5W2LVqjcmM6qJEdrbP/8QANhAAAgIBAwIDBgYCAgIDAQAAAgMBBAAFERITIRQiIwYQFSQxMiAwMzRAUCVBQkMmYBY1REX/2gAIAQEAAQUC+mBI7TG8GEwUYMQMR9P4sfi390ZP4AmRyC2yWTtznBnOUZ9fdHv2zbNs290DnHIHOOSOcc45xyYzbNs2zbNs2zbNvy2L5FtODtscb4a5GJLc1zt/R/6/DvgfWByYzb37Ztm2b7ZzyGRnOM5xm8ZP4ds2zb37Ztm35W2be6Ric4dxieX9SM7ZDM5Zvk+7f3bZt7ts29++b5vm/wCCZ9+/8Dj323/rInOc5znOeQX4dvdMZtm3v3zf3TP/AKLGQecs3zePwcoyZjJnN83zfN/xb5v/AOhb5E5yLPr+Cfzd/wD0PfOX8dBbztjJ4jyPPDxGn7fml939ZP8AFL2d2b8NphmrLpqnCDjVikDaNym2sW38Xbt/Pj8e2bZtm35wVq5oMTUwZyoPUtWJ3Xp71EuxXgh1DTCV7tv4QjvJRt/URk5tGTH5rqMCizC32G1WKDRo3uH3OrarttVrkrwhFkalpUNkwID922bfg2zbNvyKG0WLoxz/AKbfN8nN/dP5ljUPAHU8DYbKB6jtLFTBn5jSS2ZojzKlQeULQ5VgLNRVgLukuVm3u2zb3bZtm2bZwOI2/DtOVIiEXlxAf1MZ2/N16ZLUL1l9WzV1DpiEwY6oVMFRKL1bgdDRK9llPSRyvbKYWS3Bd09NmLmnvr/g2wAIyDTrJ47RdQODqaopP1zb3JXJma46upo6dmrE8LffGBxxKCYr+Ptkjt/Nr2lXLF/TWnc9oTHq/ET09msC7Uad8CVpthy61G9SJiPaFnmuan0H21wlibkTHlYN3SlNy1VdWnNs0+OZKrkVEUbIHqdKxVr3YtJKvY2yovZSRGWax5mpDgqxvvqAcAUv/HOHjH8YeMRM/wA3RK5159m1N5WF0Llq/VsfE9aawL9h9Ozb9oENySZ8d1b19ds/Me0PtA4yunqH/kTZGvbVbHYhAwuaQOMSxTIsRXKo7ro6TejEthdp8KruI2NGO/0roiMsjPKYjpvH1dQjeZ/QtRs6URFCRmI/slkYZpIJrRpiues6G226X0q9u0pbJ9oK9uzGt0Q0+5bSBB7U6IuW6s0ev7SUJmzrwsJntXoFybluraXEqshOPStoanohlGjVX1zJgThq5DqMCNGYxUdzj0dO36tiI54f3PiZORgm6j3tSrlT1RcAP9lS1feYjeUsOB0WsutGlL9XSWvtVIodFuielp+kajZ8LpSaDG102Fe0HsiiJsaURTa0COhW0t5o0tF9caBXaQit6pEjTmySzpkGah1TqYqO5/ZV7SX12nfJ7u4xLbUb2tpENQnlIJk1f2KKbl3TPphS1hZwPfJgTr1w8PoiyZV0OxCm6czTnVtM0rdOj6Zesq0/SPAFA1bVCgBD/wDGH+TQ9Yma+kg6V63esQlUarHw9N+udGha6iwnr1m6NdVkddBtYozUMiAxvLByI9XjHV+hCPK1tzK79yI46ehXUcW3L+v0UmlNsedddV4W2MlS6OrIfkbxltI2aftOSppXSfp+m3pV4Bumz8LYBVvZyvefT0hg1maZqtR6dN9oQ62oVhlvtNqyjs12aY06liq4NA2JenoeUCDxPFSBRb0ynYwtLcpQrurZBAUKjdhdzPER5x7Lvt3czaKGnDAkRZ1wyHBnMcjaf6yilSh1ud1aMxxNuB1K9Ks5eoWbR1EUdQrXIYXluqXqEe0k9WlqYHVzWTTUXf0sHp9pPKiLVhWtv8Da1SjUdXve0pNFesH0Wao86tVVvq5eeVbT6uomOkrspPTE2C6YtIYEgmW11MGNJFWMr6gmStLiKRiZPmRr2/1L24U6p/J1KsO0Sd9yAhwS44DJiRONvr/VUo41L9pYN0wK8RrhRx0w4M9SVDg0mu1JalefUZUurtAreCeKjzW0ney6kXe1dhzR1qsuhZ1Iq9qvqfsr2q6tdWm9avRF/V26f1lUknqGulMaUztotr0dEsmXhdWttXFV4TqQsiHdUuMMAoalbw+F1Iyzp5yDtIuc9crSqvWH/G6bPT0+yEHbvUIGvtGSM7B2kTjjyj+qu1nkzTB40r1vhZ00UwnV53vaVympqMU3W9KrFXDWHtSzSL9iwKjT1OpKyQtM6p7P1DSzTXWU6VpwwyrZ0wG3woIPUdW025Ys1BP4/rFabNfVKttena4QCu0op1LU1kx+mx1NSrT8yTZTV8cSdPuW66MB/frFgPWU34E66VfINjjSVSgaF6YOj0/NfqCrRjXtnmiAEpyT4DyKcTzyY7/0jD4LU1o4HLjarG9lEOFSxeYNqvAwnUkWIsaQEDp+pWURa0oEDX1vmVnRGu8AOq1AsdUpltcG0qhKFFaofx32eqO8YPqe02isfar+1v3WbFhGrPbDLvyh6qxUle0pRJtVg9Jw/Iaivahq1Q3CsC67pn4h7NOsOi72rRHy1gPlmDHgrieNYUTDtZH0ul38OM54aYzw+QkIyYiPft/R3XQmuoaVhplxhUzzjtHhk2SmYAEWrCcVvwbVXZu0ldGtbv2VXan7W5VsMfHpI0rWHONzljXXZTGAfUxUmJVpVXDULllesTNZ2sqUgr6abY1LzfFdDYyUVWc61jp+Gu12tDVB6moIPk22+YbovGaupskK4W1722r8ORelqU/45XdmpqJxbZObzk9/dMZt/S6kprlaWBeOvNlNas5NmxZ5zW08Jm7eb0aqyo2W75YUQNUPFZNoWSjyBWE4u3zFVTSgqTauFsBU7bBqDwr6hdcnVNMsNfXYlTbtSqCtVrIn4poteIsIbY4VNiq9IIr3lslDt4vm50anUd1DOwnnRYqRklzhoUzLOnoaoqJZqVdzELWarA7eHkJiuAk3J/L2/nak0/GaY5zV6gENXp1ZqrWqMldbSrDnlqQixFSixVq+fTp07domtKBUigfVvs6dTTH9YNWhZVdIrmktRPjHzRyOWrxeIVsFe9qlqtb0234tCmrGFHPHgEwHHw5jPQ1YJhXJ86x5SvUIVIlXAhWkwra0BHWtNNTDtPC6N+ZtvuLBFaZJ7vJREf8AGaeqFwCt6X9Q3wNhlJXRRqnqW9FgoVqJ1eemJUsNcnz6BHqao0FV6SKkv1ETOjpNfa9qrujV0pqHHranODRF8Kupn0oqXGsvDO2Qyg/D+lgq7tR09K0K6UkytHGv13TaicEonH/XfawvhFmqsVJ6M+D4SOn6ob15dKRul0z1EBSVvUh46fp/7i7PyQ9qFUN8qqjogEkbh4N/K2zb3Tm3u2/jFHdI8UVGsfqVXh0tTS836WPGjcuvVc0w4arUVw4dKrPS/W2ECtGsWHnq3QONKrTWnXGT46mTpoXCHqUHrdbfMCitWSTD3lljwDbGnBAVpFoLVHp1ykj27bea6HKEcoJtkwtR3VL1xnPYrfdjtitxALviuIy8G+l6dHrX+1U4+QrF6dOfR0kYLNZREF+Lb37ZtilG1lim9Pu2zbNs2zbJjNs2zjO356LjHMiI4to2RlI8VTZeNgN5Hag6xSX0q+rt2uaWfVXqTVxY05KlRqldr3VBYA3rrgt142XZ6cnpqUi++JHTo07C73Pd0V1NyvHEWbpH6LRI9efvj62/tXMzJ7eLjsvjEwUeRu/jXsOLUtInk+YfqU/J6d+tqU+jv8jWnyVp9DRo8urlvX/I291PTGuyvUBALE2FaoVGZc08FzZDwzSs1owbKiyBtFnh9QLA03UDxOjTyvUFN0yYyY/O0ehtqWo6QoKShsQw2gIinT34yCgSrMFah4qffeFilMTWtoXYvVVQheptn4hT5TWMqNh8zxB9cnNpi2Jvwwk6VvOpOn062n2ebJ4pBhTkxsC+Mt+sj9bk+RW84JCdsY8uw7s3mCAvHFM+LiN7M7FZ1P8AQ0r9XUf2sfoJ/RTPyuldh1PuuexfgYxa8hqZArdQci2kspvMTGzcbgTZON4mdkQaijq/BaxFFBKYKawT4jTozx9MYLVkgN+661V0v4mhA6Xaa+/pyT0co/NU1LMjfaotFa7qd2vc07RKNh2p6rXs0qo6hYZf5r2lNB+JXwVdBk2Ko8apXOoXZa6tKeu+fSZy8bpv7fUHit2kPZYO9BnS0hLAvFMwuDlj2kPTUGxpjsHbLBT0h/WVITYnskuPKdpwxILaWF40Z9cJiLepfttM+6/+12+U+2umPldL/RteZlxcrdIyMx7lL6p/AlkQ6LWDARURnVoRhP06ROwC8hu9zxk/C7VlgWK5HOtBaa1Vmy0NMuNNdpRz8eolyR6ZaBohx4JtjpxTlnVNoJXYKDZP5mmhHh2ka2Jtcm9ZeAUY9rrFejVr1rtx+nWKyab5sv024iE37nImqgK9Sq6bwsKppKiHUHjuJXbO9KSKtqNnpWtJlRI1R0pqaI9zr0zAiPDk3ban9wfQPo39M44uqSE2Gz8tHZ0jvEiXiUHPjvrcVxK1d/R03L/7aY+TP9mgfltO7KOPX1dXq6iribK/G66vak+kxOMtvOeZSENmG2H80q4lfJO1JS//ACIEXD9nbNFrLKqpDqyNIshhaQMaNZ0qv1R0yrGr09MpdavVpRptCaIL1/pWtMqNrBp15cFp5ZP5lfyosu9fT5mFXmhzpcSy3beh1G8bcKykIW5J4Nh4hVBKIv26tupo9W3N32gp2KenaMyy3HQkK8uqcVcBC94M7mmLFdLVntrhojmPb5JOSEmv7zR7YGDhzHSfG51IHxB+auS5CzEcsaXr0uc3w72ac8rOpsBadPsKnNUsACPEx4K44QpoZvWoOOUcnFqLkrZJ1luAwKNet1Pn3UuqcaVHMdLr9NWl1osRQowgQ00LRakncdXTD2aor4bZ1UfFq1V3ix1CU2A1PfTX6pZ4nbtTZUbmWFkwqumywlWN+hpJyxaWshE+/b8qzUbWCfDnKPIm3z8RV7VrRQVvS/KrUyiQ0wY8ReYSU1bRkTLYIhFqs7PKYac6aJajqIPqr04ep4ygealSc65UoQGmauyFu0LoSEyMPrhtLeU5S7V630kuwFBBx2lEQD1fRn68ffZnk2mfrKjz0hjq695l6Rtx1mY6BTHg7s/46tvFRPauE/N6iMwfPawB9XUbF2fG6xetU7vxG4RFbtzksYREcwr/APRdjjSV21dEf4Z/2RM/F+Y/EkmXwp3VOlYWRaxUAh1mok4raEBCixHk9nPIlUZ39+2be/b8Xw6fHWKTK577Z12wUfSSrHNaBFNlUubXgK+PfNjNKCRbqbeWacSVzfcJN08mzVuvYs6l6wdgXHgaujip8CzUhnUW6KtFWs0FstVkqPLq+DKyGxWVHBB9hrbYMcmID5wJ3UmPXDl1LrCGNPOepWnaxV4xOoRzzSq5DOoVzOGVvlNRUE1CGPCIRPTGv6jlSxra3JiBgdSOJK97Uf8A2JwcjA7IEPVIR8FyDxt9XU0bbbWoiI025HyZxPxf/wDtUGNbQexs6Xeg5upWfxyohnPQFGsS+vs9EqUqPn4evaXBsTp35zhkWbzm+cp23zfN5wTIc6xYq9cWU2F3BdOykxu1pbB/xB6+ibImzZZDngfHAcQqKfdGcykZ+2mQLsDbXIBEzLCjebNmLdBjZqg7bK57gRDyCShH1Sx09JEQIGSuNZYzYcECCKrDZwJWX0sYGm7wSo3sq4EVyxCC021BZqLySPiChGoNaNOHsJSnMJEzPjXNJdx1ooKO9uI2ve0gcrtyqK1r0uDYtEypkL8D5fiqA6mgW1yGsyAxp90I+FFE/FbUEOr6WbDWUsCrqMnGcC+LVKxQWi1yQdmODtIAlYXl1R8bO5QMm3lO+TP4dp/By6cQRDhP3Ukq/NhrMOMQR8N8GdvfPviO30iMXMCS1Jkd9y0yoTryey6wQQJjYexS+dhH9G12rojkgSxPmeue7DnxCp8tyw9S9MiCzxRmFLYJ9oOPPSA55rvYIienqJb6dVGIFccU/wD7rMb2rX6wd2h5rOrr5TfCOCg/yVCuJ6Zqq1pp9viWljtpOqp+fkPkXqgtGhf+V1GNruhcjtapBhOpdXwkwXxRUbIpL+Z1QOJ6f5btj93qPl1Hf8G2ArnJV9s6Y5Aq24J2kE50g922HM8eMxm07+/qfhHO2f7wCmcXIi8Z82jOFUr+tUp8IuPlp2izYjyH2i5+0rftIn5ilvziYETiJuRGwav5UaTsKRGOFPl0dXjlOkRxHWQ5Czfhe28NM7VB/SCNrTO1m3OzQnZgdrWp9k6oPoJ/f6EG+n+0KN6kxHjtMj/G6jG7yX8pI76PEbapfEZPR5gb7vWbqokFRUz4kWTvS38VrgZXIvi1ifPrMban+GZ90RJF7toztkjsBe6Nt8n3xk59Mn3b9+PaOWTgjlUB382VF8VrItq5SFDlsH/fYLlbn63f21aflRico95L7TGfFzvmuRtGnjBLX3Ugtq1/vOmDMq1csnebOobwvfaAj06/7hm/irP3hHqhHzl2OSbexJTHzui+TRvaRYnQkY8dpX/19379oJO22nuja7ajdWn/AL+tPzOtjxBJbSv9SrvFjWI3Dch1d/6etRuERnHbBHfNsahi4spNDcpjM2NRrzUvGBjlRU+MtK6a/C2H1jE8epqD93AuPu39/wBZ8uTtORkZyjavSe8LSrFbAdG4N9NO0LXzijHeVj8wHm1OMu79CuO1PtCaQ7Q5BTXcO12Z3Trsb5RCYUsPQV+1vT6mmzMK1rsYjMu1AerXb2rKnavW28Qfa5aH1Q/VH9axjo9NP73So/xuv7TSdx+JaT+xu/dXjcyD0nD8yf7er5biuztTHnCY8yv11/ragPIbfl1pv7a4orBRo17adGudNOj2xsM0K5zfRH4bqGm1H2i0OqnUkaTQrLsootvehJsecAwRfBuaSomckzOdsSEdOz1hFq+DbHQQM/XmnwkjX8NvvmlJU1+oV9PqXryaoVp22gcIeMhHmXEYvuaHO8Pbn5NUbZTjezU3m5/rUfsjy037dGlHosj0ux2RDZesjvlSPRnaAXHy2oFPWpfp66PfsFy1G1O5v0KkGVdAyNkxGXsH1x/W/wCy5hx3CPm6AQFfXY5aa6NrulRxr3I8yIjrq221AfVYHEAja1MbHaL0a0epHleMera+zVF8LzO1fUI44p9phPB3UpKex+rocZIUUaXtyta1O8WpWDpMJs14NjXgZaX0tnacxK7h8N+PaY2ypXU0GEurbmdpor69u5po0qIL3zgiJrU2uCV3FC/rZHUldjqG/ft4duyx2lXeVJkDXtta8x1d+ppmKLjMz5r/AN1jtWOPka0bV4ieI78o22uLE4WAlD/onzI1EfUoD6d+JmQH17cbo5wKCGIGtxmZmImBjnt6sDuw45Dt5x/Vpx6d6v1KT9PHqV18AsI5TCCEukcTbLOpLVdOIsM+2zx6VcR5u2g4+tiN06tK4U3pwFyImVHYW4Q31PTUQNeFDIBAzKB2K6oDSPdreXSHlDnRDKjduniYHm5dXwxjAzGVemLbBS4OeV5FuXELXjMrsSqQrpUi6RG6uytCzBU5AxMpEyr2kcI3lUobYsYEbleMhuCPAdPjjXVGbZd+63+gUfKrj0M/6gicnvgxsxi95rr2C6rtUEelb7MVM9R+0LlHyoLZ06S5gGjgjObefh3AYwfqM+ev9v1Eo84xm2QGMXyizTjilECDkeowNlFMyFZcQVke+2FHpasO4ury3TgL0nfRHd6P2v8AxmdgOdn259Si6SQRHIq4E5dBIxFGoK6/T6jFDilPVVJbDb0CiApOhvhbnSDT7M58NtZYo6g98aTdmC0q9Aq0q8ADo9uYHRLm6NIvqwtFslgaE6cHRrRL+AWcXppJnSq+90VkdtsbgoONLhxjjliNzuR5ZjkhYZ9SKJ6a48s/WY3zhsaI7WY3AI2y5HzFUOUtTvBxshgTyqq8pRGTGT9dsGM2wR7qjb3f8h+nvmN86UZK8Jfbo9hTtLk75x8sfaVWD1BSZUvUK0TQ0yrE1aI7Vqg9uHmtr2Rb7neE4rjVaEyjc21ncgU6HVilTI6vBRlBaduRiRjjmGWP6jI4bwPSxkj4dRIGvyrTkeHyOjgksQbcTKwvJhRWw4nZGY8XOHaKM67CPSynxdTeXjMln/WX1CPWLudjvgj2XHmjtMxuIxtBe4onnEcY48sGMcMTlVPHIjGfQhicHJHzbYcZtg/b/qPrGRkfUfp+LbNskMIZzjOwD2gfWJI9OV75QCBpbbYgfNt5nByBvOMsj1FdLtCYkmKjCVE5ZrM8RBMgPEOybD90dUoeLAyZLgKzZJALqwwMYA88Wp3CI2xQdSIQzgz7FBzyVnsyRnEDLBNZBiQ3yh2fpo+sofT/AOc/eH1D7z7zGLjvtnDIyY7QOF9duyR7RGNjtG0Yud8LuP8A2ojzzHbbs0O22L+hxETtkZGRHePy9s2w+xEcRgkMyoYjJjuEbF/vftvG3/GPtAsMxzffGRG8ahbAuqNhRuhIvtMeej2ulZLtl+3yNRsWxrecW7krnnPIHE+tqV0lSDSE2Phgahb8y3zXsN49d1qbR6WciSYiISW0adHk47QufNgB5FD5YHvI9x+2I/Dxicgd8VG0f6nuLNogMkclWKHYJjtGN+kDvIjhdy2ye0jPYZwfyZmIzf3uHfGwWcmZBsiRbPIHZ1YzqDs6ymMOzGdRpYtLCiQ2wp4ZtEx03ziGWFIZD3r8K3ZamLPqWCMNNmc+FEMEqdjQki8NXyYDJhbJCvVnCBWSCSmEVc2GCrpWUAkNwDZZDO9QOKpjBnziO+R9fcWR9PxR+B87Qr6zk7yBnMZ4/EP5hZvgGLuoI5evBsJIuqrCkNh4znliB+n5BDvgxtHvPGQW8rOZJbc4Wc42sBDJI6vHFr44Qxi5jnZ5RhfSBLJZklO/PCaWcpyGYl/HGWR4GyN+c5Jb5vODMxnKfdEzkFgZV3kkryBwEbyIbA2NsV3Ysdoj84piMbEFgTAtmcMgEOVfi7wsmi9TAbVmiU1G6eky1CseeLrhAXlBjNRgsC9A58RxGoTORaHOvGS8IiLKpzxKcm0iMi0ichyslgTAHG3KM3jOQ5aPYLNtu/i254xkZ8Qdv8Qt4N+3nxG3njrkkepXIz4jZEvilspnVbG0avYiJ2jJ+m+FtGcd427R+KIyIzjOQE4ITi1ztQQWVUFMpqxxBURnbcxiRUvzfi3wrNcZO5WCT1CsMM1NIB8WHB1jI1gsnVLGRas7S+zOD2LyFhds5FOTM7iZFhnklGf8QbyHzZuUZy2kS4yuwBsQcMkyzqlzN8jJHvnUiJOwsMkpwzmJBoYLFwUNmMOSZkswpdJdUpKGwGLMuMNWOE5cSx6MJ1WZnw7MLpDMiJRsUCRWInlvkb7jM5MxklvO8Rke6Zj3b5ExgzGDI4MryOOCS4yvfSnFa6jZetFMHq9mM+KsmV6jSDH6hWxWskMzrPljVbs4zUrs547UAxlu04xc7gkBYK6xbOpjJMqjOEvohLg4yZcFtnCI5n1ZjttEr4chwvD8QZuvrrUIEqZkh2goDI4TMSrYfsgB26URhuJYrMpIYbIhM7RFg2lHSxHqQzqQG5AHn26u0gwoFRBMQAwXHhliQk39MJPjuJThC3B60x8xAs8TksfM7Wdy6vMntjPEMHPEswDzfBmMHvhwEZvkTEZMxkzm+b5E5E5vkHOc8gpyJnBgsVz3Hq5053hUThUmxgU98CrGyEL5OBcYUBtLO7HRAw6RGCWMnaYJSw8M1ZyMIhpmLB9MHHhNtGKrDSxj7AZ1j4S+JEzGJlkTm+SHm4gRRKVyPGQ6QmR0zMVrWOV4iT66QLxFeBlotSlFSSsdHgTRBiALp8FRFeInDrM5AriqC6MRXMxsJ2URiWMg2j0ziAI4iYHgO/UN4CEsGD4bSR7qZHIQTPKQ2MOiURiywc2wvyImc3nO2DM5ttg4E5SN4lDIkdpOZWMx01ZC9sRDFAmSLG+JWMI5Zy4tHqiZTBrEQ4tTbE7Is5xLTg60zEEInJDOGYphbRLIkDyQPj0TgYCBkBkoIK4Ole2EMy3qcZIj3WbYONmF07DYX1JiItwUWLizVKzctYGXBcYpyOk+CLCR2FdqDfYtRHbOEsKtUQOderGE1BreyuLW9Dh0gNnSCcCELYuGDYfNgcCVksunBPaJEw1chKTjpbzxCfdGRttO+d8jfNpyd/wxnac74Of6/wBbxtQ5YvqRHia+0WqsT15LOQ7Q7qYmLAtfBkxsiRfMZ64SC0PE6ogBKqjietAMNqsG3HWkgERZsfOeLWVK+RuWRHIJjhi0bw0cqm1QGZjgO2I/D7ekvFMPm9ihgOo4SIhBdmpODNdi+ZdPav0p6LRZUDZ9SuMClXVVHJOxwDekS+Yng6cYmL7XCV2iYyufiTURFPXXMg3mg1CQeRxEoZ5F0pY3cn2+obnZLFbNXV2kCGfcH2753/J3yJ3zffP9RM4qXjKmtmUMfOOiIYQDySCyiJ5YwK/NKw4lLwMnMLOkjjCasyFVZQFZYZHJU+IZMgTQmGOnItMg2OlwKXUPDBO8pVy6gDLlryVN3jrCvqytYfEJErFzBlMFELDCZWwmQENKqY8a3IeMTXFbhFWqhKk6zEwvYmS7gxdnLc3JGtVa0DqWpYfxBWdVpzTVYHFM1OHt5NY5IiTbSIAn7TIRA12P6LZhWboJReHKPCU4GzV9EVSuW2SOASHBgBE5GD9OMzHvmJ2zf3ROQefdkjnCYz6ZBTijKJq8oGtXqtYehGOTXuJlZGrLWp9MF6vWPKkLdjldFXF7YVVknTU5G+vxCtC1YmwlsViqnFca8juyZC2zkD+qFth12DayXAGeg9R1eIdEeh1lwTH19wFRSqtDc9QMJblLTYF2HLllJcJE+sbq1tZWmJQU3kgxdwOQ6uoWocpoocZBbsNpijUk3JN4qWq+qWV9RrNs2X0Hylmk9aUUrS7Wm0a8QKoKyliRr8TaUWTOkq8sgq6lYm1XsoSXQVA1/EDNGzsVuwnH3WREWt8//8QALBEAAgIBAwMDAwQDAQAAAAAAAAECEQMQEiEEIDETIkEwMlEFFCNAM0JhUP/aAAgBAwEBPwG1NeTHk2ui9/gyR2vSyyyyyyy/o29LZF3peiEyy+5dtlkMtEpWWWWWWWWWWWWWWWX3JtHqM9QjIvs3G83G4sTLLL0ssssssssssssssssssvSyy+5SaPUN5vEUUVpRRWuTG4OmYumnkVoy4J4vu0sssssssssssssssssssssvuTLL+jLY/MTj4HGLVM6noNvux+Ciuyyyy9bLLLLLLL1sssvtsT+g/cenQ3QnZn6KOXmPDMuCeN1JFFFCg3wiUHF09LMCuZnW2RZelllllll/TQtVq4vzE3qybGvwKX5JRUlT5Rm/Tr5xk8coOmdNiWTIosx9Bih4R1fQep7l5JQadEcCpCx1kdGeO62Tx7Yplll6WWWWWWWcVpell6rvjxRSkclX40t2KVk8UciqSIdF6eRTiNtInk9jo8yEuSqbJrhnUR9hmwUrLL1sssvWyxMvRF6rugnXJF/KIuvJt+UfixJCIyoi0xyXwSW9US6LJBm1qRRRkV8HU/YTxfbQ1Wllll6WXpelifcu37YEPt4I/byfBfk2rk5Xk234FwuRuPJGkWhxXyPDH4JdPL4PTd8mSPFH7e5WT6OKJ9KT6dxJR2ll9l6WX2oWi7J2lwP7B8QHxHg8RsXiyzgUXQ7oS9rrVi0eOMvJOO1klfBkgSj8Ml0iF0jaMmFw0vvvsXdk5ZkfwTuuDLXhkrqkS4jTJcRQ+GJtHK4HThRT7sydm6iUldGa9x+4rgl1Mn4Jty86V2WITFotExaIWnDmO9xLmRK3IyU3RkJq3Q/vMjMvglwr0ssXY0mdVGKkq8mdWTxuloyiiiitUJl6ITELRaY+WRjzZHmQuZn+w6czneKnMl5MnkyMfdZZ1K/liTXJS4H0/wDHu0rSihQb8E8MocSQ4m0oRyhMT0Wi0xW0elsdPgjBx8mMg/cyPki1uZjsr3ElcjIPWOvxpm/yon92lfw6UKDfg9KX4MPRZMkqqjp/0+OFcVZPplLiR1H6Zib9vAv0vH8yF0HTojgww+xHVdF61SR1HSvDKtFotV+TkjLaQfHJiMaXLIJ02zCuCErfAncyf3D7vjTKv5SS5K5K9lGTp+XRh6KeQ6fD+3jtlyer/wAFmYskvyW2SUjZI9NijRdH6jlukMWq0b44G6RJ+0/1sXiy+BcKjHPaqIf9IfcP7z5+g8acrNiNiNiRSMcFCzdD5N8fwerR6sj1Gb2y2WI+TrvK0orRCETZNjkqocvg3e2jdxRv4IPgg7E+foM4OC0bi/qdTjUqFjoSKEjg2RfxpY3ffEjVf1fjVmXxrbKY4f8ARJ/klH6Kf9ZasZ6THA9EWM9MUNVwIcaKstKNV/cZWldqQxJjtlP8CUk7PcxRk+KFBr4PTf4NrKK0X1myxSXanXZRWnqx/AsqXwPLZ6x6rPVb8HqUb2b2zext9iWjZu0f1VKjeJ32Lswqa8maDmzDFwR6EpS3GbHKUNpgwvET6Z5Z7mZ8UskNqMGF4Y0LFXI43q2KQ3ruGRH3X2rROvp72WWbjeeohSss3kn20UULgfJZuZuZbOSijabTaUUbT3HOtllifdtHis/bsUJIUWciRRX1V9F9yZZfYv6q+i//AAUux6rR93//xAA0EQACAgEDAgQFAwMDBQAAAAAAAQIRAxASIQQxEyAiQQUUMDJRI2FxQEKBBiRDYqGxwfD/2gAIAQIBAT8Binjk+DLi3xsrw+5impory1rXkrz0NaVrRRRRRRRWtaUUUTwqRGG0oooorStKKKKKK8la0bTaOJWtG02m02lFFFFeeiiiiiiiiiitaKKK1ryUbTaUV9LFkWSO6Jl6vHie1nT9TDOvTpWtFaUUV5qKKKKK0rSvrwWVf8jOUuXYpzi90DoPi0cvoy8PzUUUV5KKK8lFfSof0E3j5F1KlwyME0TgdH8VydP6MnKOn6nFnVwfkcklbISUla1y/aYXcStKK1rWitK+g0V5lkje2Y8FpGGPHfki/wAjxsxycHuxumdJ8br051/kx5I5Fui+DrM8sGGWSK7Gf/UU3alLi67Hw347Ffpy7L8EZKStEsvLPEbxKzE9tIhO2/JRRRWtFeavpT3VKu7FJwuvYW1r+EXtVSG6V/sOC2/4J46Rhz5enleNk/i6z4XiyKmPDCcn2r/2dP0kVnja9zsuCX2tl3FEHyjDL1GLNbrWta0rSta+rOr9JPH7MyJv+TxH2f8A9Q6puJNtJpknf8E8akyeJ0RwNd0Y5PBJS/Bj+KYMq4ZuUocDZdGP0uzpvvI5Puvz1/RfdPgyczpk0t1RNtS59hRdx/7iyvj9yO2TW0Umu47lJUJT4MtzpHhtPkhklHsyPW5f7jF1+OT54PHht4Zgl/cfNVCiHXOTaI9V+SGZSE7/AKXHTlyR+8jzPgXM+RK5bRqn+44f+C2m/wDBLLDe7I7L4Y3U1Zd0MqhitEOpyY+zMGR5ImN7bZgm2uTHLd6kR6lj6lIhPd/R4+Iswp8tGOuWzDfLRCtzbMfM20QqUnZFWrHjXsVbbI3HLdG5arXo5xUaZSmkYIvZZ0leGeBfIsESKr+j5jjI0ofuRtQIUomK0rMVJNmOTjFsjxjMSMCtsj63Q0rNpRdFlo7kZSj2Z8Oy5JQlfZHSy22/3I5lua0v+jyqlRKXp2kuIDtQoX2CtYyo7CXGNEF6exi7NmJd9EJlnBSKKZ8PddNIwy9P+Tc+RdT+rsfmlJRVsx5oZFcHf1crW6icmyck6Mv8k41FEuI0TTUUZuEi6j3ItqLRh7PyPyJnR8dK2YvsX8n5LvqLLLHNLueLFe5n6/Fig3dnXfEsnUv1Pj8GGc8XKbs6f41lxr9Tkl/qDJ7QH8Y6yXaIuq6vK/1Ox8P6yXT7oT5XsdH1kepja87NsW7ZKDk7JrnhGeVUrMrfCJuN0jO+ScWlybagRvZ51p0r/wBsY36F/Ju4/wAl/qNmHqrjG/cz/EcWHudbmn1c92KTSH0kn3mx9BHu2x7FZ4mOL5IZ8Vcs+Zwr3H1uP9z5pPtEjLcvtPhGFQjJ+R6xSYluZBcj+4a5o8OLdko3KzLjk2Zf+kycQR/x+V6LSHUSji2oXUTo+YnQ80pOxyfDZnzSyVXsRh1HNPgeDO/7yXRyfebF0GJi6PD+D5bGl2PCx/gUYrsREdD2fnSkvciiKEhIrmyubNpJck1XBOKqhpaNFartpzWlG0r9xEJ0hSQzHL2LLGyyMrEdPNxuh5LHIsvRTkvf6LO5K9w/LZ7Fl8eZMTpEHcRS9RvHLkk/UKXBF0Y3Zj76pItCn+w2vchNP6Lix3otVo/oIXYxvgvkscibIS9JZhkXR48fyLKj5pe58xFoWY3+T+TejdRVyuxcF0SkTGLimexJEUUP7me2j0ssvSBGVG199LY2RfBZjnUjxOBzPFdjZFiZu0gq9xtURUYlRu7Li/cSjF3Y5Q72SlF8bjxILjcOUX2Y2PsV6TIqkzGQjuMiGiKH3KLK1iRQo8HhpqiXTc8DwSNskcnai21R203EZimK37ny7a7k+n3sjg2ny1ny0aoXTqPceDd2QsMO1CxKPdDxx/BFK1rFXwZI3IjGkQhtHDklF2YsfuSh6ivTokMREjEjrQ4pngpksfYlQxLgkhI2oi6PiOTFlfoikdDm+XjuXdnWZFmnuPnYwx+GnwdHkhjy72db1a6ow/EY9Ph8OJ0meGHL4jR1vVLqcm6jJntbSOTahfkitxCCQ48CWlGxCVIycIhFbScUiPh33JKLfc2r8m39zGmR7eR2KyUbROG16bSjhFjlojg8NCWlFFEyPTyY8PBgxUudHpuR4kfyeND8njxJZVJURy7V2HNS9hJJ3RS/A/403SPGyI+ZmfNTPmpfg+Zb9j5mvY+a/YfrdmxHY5FEUDYNDQlpXks7dhzf5Hk4oWVrseJP8m+XY3PyVqvJwMaKErRQqGIh5EI4GtK8j1kUV56/OlWLguyhovVvRJHYfOioQhsQtL+jRItabJFll6WkR5OexTFo+C0Xpdm1vsbZaLtxq+CIkVRYm9FZ/8QAUBAAAQMCAwQFBwcICAUDBQAAAQACEQMSBCExEyJBUTJhcYGxECNCUpGhwQUUM2Jy0eEgMFBjc4KS8CQ0QEOissLxU2CDk9JEZOJwdJTy8//aAAgBAQAGPwKNEOChZBdSzWX/ACfpHWstPJPGVMLoO/RQ/N5/26Rl8Fva/wDKc/8A1f1/5sNMua8ji3j5ekUzEF5uPA8ez88e3/kIvqV6us5WN8SvO4z24lg8AmNw1VtY+lFYujwWjUKYEFrR7kynUbMCbhqFv5sPReND/wAnCzE21AJcavQJ9UFGnUYWPGoI8lJnNwRHPL2oUXbr+E6H7k5toI9JpRqUAXM4t4t/skIfphz8PTp12MgtNkVWKt/RsRiGgNl2W0YOodvHRbSlSrPoxN5o2x2q71WymRGs+xVMO4up7Iw4kcOa2daXNGh4hBzSOpw/n3IvpQyr7nIse0tcOB/sQcRkFI/TFFt72z6Q9ECEMRbTvLQNpZr1nl2qTNN5zgONj0+phmWPd0mcD2I3Ayxun89ixGIdIsYSe1O29S6w9Mnh2o18O9r6WU8it3Xiw6/irajQ8e8d6LqE1W8vSH5nQnqCG0pvpu5OEfluyzJEIEcs/wBMBhaYtAGSw7cO60spiRzlMp17IfoDoT8FDN8a2O1HYjUr1Ijj6Q+9VYOx2h2e0Izd/MKuHEXnKRxn/dUqlO0k1TAInLj8EH3BjSYbnm46wFDiascxbUH3q5jrx1ahXObvcHt1/FXfSU/Xb8fybWgkqG7EH6zj8F9LhcvtD4JtOvhn1GM0fTN8dyy8sK0CQrcojhogOtRyEIdYVV4LRYAczr+ln4KtQ0Liw8IHgesJuKpvD2OIy7OXNUaWsAn4LDUrS9pYCc8wZyTtjDqpt3XawFhaLsnF7pHGcgqDa9Patf0uOXNYc4UTSp52npZ/7KhhuDKd/ef9lg2PYHEUmGs70g7mmlpNOpPo6u47ql7r+bg2HDtHFXtII9ZqL2eafzaMj2hedblwcND5dho55Fro0T69etUNWJkGAFrUFWJmdFtb5OoEfFedp2v4P9L8U+i6CWHUcfIXreGiDp3iAEHZzKcqeUbqc7jKaCM4/SuLxFdhGwpAAgcYk+CreccaWzBLeFx4p2GebcTTMDgT2Hj2FMqFk0Za2eUc+SoNo1CxzRw6z+C+Z41rtq2CyqBnMSsK6myaLRaXg5fzktkxzm2tawgdg+9PpfrG0wi3htw3uaqdK8zTbufVLj/smYbZstNrJGoeRn3Iim91NwE2NILo59iBfp67Rx6xwXC13e0q7DnZn1T0fwWzqsLXdaIEB7mZO9TrQovxFdw55SVAfWAiJLQUKbTTqRH1T7E6oIvpUwQ13NOqVDc5xknyDLyD3JjdE3kU0zPwVOkDwTgRGa2nEuQJGv6T6RktgluSqsabdq8OucJHYsTWqho2Qe88t4/cqtOs+9jWAgnVsnTs6ltqVfz1J0VG9nV8dE81aZbJL2zxCqYdjwaRyc1wkZL57hXW1f7yk9N+cUajGOrFwnj2J1SZ2YqPctmR/fhv8KdV1Be9/wByaQ7oVbf3WjRYljmMc2C+l6MicmlPdQqlzA61zmGRPWFDiGTofQd9ysewEHgdO5XYUhzh6LznHIFf0llnLO5fSt1yBkdiya14hoEc+KrseTFsA9fDyhEjUBFNXYg1ARkAnFUmR1lUGj0W/H9JiniGw7mEXU3QU6bd4QREghVKYc0l7xbfluxpPNfKGN0fSpE9hMlOdiGsuY6Lm+llmVVxuGqbcVWOLIzl3VzWKrEQWg+4KucURWp0G3ZjP2p2IwNSpTkWvpP0T3V6LmB20dTJ0kg8VUrTk1rW95KxOJjNlGo8d6xmII+jby5CVjqzHua5+zpAjWdZ8VSxOJzdO9aMznAKbaBa8S2Og5bxs6naLOpT/hKyfRP70KQXM6/xVWnZLiPb5QifJJz8uU5p3am/VGSb1BVKg0px+kqe1bLZ6Q0Tn8hKDMR5t3uV1N3cdFWoupsiuN/L3quwRUrAVHO5ydNdU7F0iy+tiTqMnAdXcg7FkYcYhrQ7Piev71iKVA/ONqQWxy/nksRVcLXC4kHsWIfVft6dKAGO4p2JwjHYe/Itf0ZXyi3E0wy9jbXjTpcFiKrbQ6sTujhmAqV2W1xD3/wiFgKTdQLvY38Vg2D+4aymc9RbcRCqVyDYJdATMU6ibnvsa273ytu8bMRcZObYMd62uFqm2Y5Z8iE5sOpu0kcOsL+jYtlZvq1hB9qDcXhKtL6wzChjx2Lt/IcdApUuTm8I8lceuQE1nMoxz/SDwXksA0TmXhl+UlUmVWbs5OGifUHAEoMqebqcipabhyKGFYWUzTzZAzE6+KoBoGzDycuFrTwWAp4Z4aRSL6jdZ7famux+Taga18TqU9uAqCqyo8Pknh2/7JzKrSx53SD1lUarDtL6h3KmYthbK5mA+caerOqwdGo29tMua6ozNsE6rB0qc2v3W/xBYh8ZS8g9U2o0WGLzmepYWhScwileTLtSUzCNpl9SRcG58ZKoMgte/Fl2YgiP91Bh3aFEHuN34rzbg7sPwXnKLbuY3Si3D4k9lUSgK2EP2qZkLpdxTiRw8plPMar3Kn9YytoeRRjMDX8jL9GP2Li5pKp054yiw1CaYCdS2gYX5AlM2zNNHDQo1Wi7MCFGbXj0TwVhp7VhyKaHPLXMETbnEj7k00xe1ry8tsggBpjqK+TqFKrUoOp0cywZyYHemDF0Nsx5IdkMoGqpYfCVm0zTbeKTuTvf4rCUrd3OeU5D71TwtGqW07GNezgd2U2k8VqOKoEFr2dHmsXiC2k6jiM6dSmchnKpsZdN07vJUqJGdPDNGqwdNj3UzxjqasJSxFNuINVt0nVueSxFdnTDYaeRdlKdVqja1RX2dMuMZROfYmY6oLbhnxMzEJjmu3H9EzIPcUL6f8K5HryW+wFPOGrVKc8DvBEuoNrt50jn7EdoH0zycFuuaVEcfJh2zwVX6tMpzAN928So/R9PrErZVabatOMxxCfUw5cWu4HgqVPmSU4U6j3UgwdL1uKZR2zab5uaHcVV2zLXcOtUhRgzMgotdTIyz5KW1JbyKY+vnsiC2TkM59iomloJDrnTEkaHslUpEAFpaZyta2VTwGzY+jUDQ6e8p+JoOqDEUib2njwlYzF1WRT2b3tIPVkqlSnuy/h2JlL5nh6lSoOkWaKrhzhMDUioGC+nmUyjjMNUdDCQ6m/o8Fh30MQP6OwNNFw341n3qB6VZg+Kwf16tWp8FgWcTE+xYGmeFK7vLvwTbABGbspu4J2Fa3c5zxhPpsJubq2VdbcFJBHaFD2MqjrAcjbS2c+qYUU60dThKG6x32HrDvM+oViOxDrkI2iJWMqZzSdTjs/J1/RT69O2q1x9Hgm5a5o0XUm1KVokIvw4cGOOhVIFsgDjoUC4ky7KeSsqYh1GswQD6Kfc9j5OTmngqAo1TTOZyT9sGG3iOK3Ta8+jKa8DMTmGpmPa+IGbWNymIBhYl9ZhJloBA1GZlYjECptYqsbTbU0bOZ7NVTrNoNo7UXloXzpz2l7XCBOnVqhXb8o0qjtrtLBx96+cUQ1zLQ3XNYh7mObDdwkajIJtGlVoCoat++bbtfvWCYcM87Gm9ry0XDNywgbNoafALDUW+pRamsHV4qtV/WOVV/2isQWDQSOowhWIvq7S3lIAVN7i4NqAEQNFY2oSeRUWA+5QWuHvT7oIAJ0RHMprRlAhbRwzfUbHYsU0augKFhm2+ccb5WiyWq5nyb36Gc/1RKYadSOCEnejNVK2HqNqSc28lTaRBhVWOY2rRui0plrbWxpyVas+gSxxycM8lTjjmjRxGG2jQ0bw6QROGc9zHH0lTZDrLcjwnNBz6jn55XJ2HqnZubxOiDqVr2p1BrW0bnbQGOi5U6Yc3cYG55HJYj5RrbMNP0Y2jZyTDUw9UWUHOiOJKDQ6wDEkGMiQ1smVUfiCHBr9wx3/AHKgC0loa7OOJVHD4eu+mAyk0hpyQw1XD0a7bZl+okprQa9OvTIAjNphMrMfTNjmy2c8lU2lJ7ZkiR9ZVnD1T4p7uaot5ueVSZTt3B0bkXQYnJHP/aFVfiHl+kXcE/7KYOa01Kpt60D65XR4qiw+iPLks1qsv0MXlodwg8U3Z3UX+rwTn8hKaWOIcTwXYFtMNiM5ksqaongwK6jWOvRTZ1jNPfTxTTLoew5EJtLlPiq4pua6mDFjtFTIY1kibW6KrXoWV2udnYcwpGVjPgmUa9IFx9Jqdbuzks6zR3q5lZpadOKDzbc3ouATqTacNc66J4/yEzD4c03UXbMFpb6yNB2BG0Y8hlcO9UcVUdtiKwAaWQn4o2Opm6IKe57CBvEEhVCXuIjKSi6oxvdkrb9m0881hxSDarWaw7hKZuZS2MutObAyJVQZENa46clLKDaRPBpTzY49UJlMghTcBmNVSHWqc9KU1Zeg1StFqs/0Q1tJt0GSJW+wtLRxTqjOlwTRVw4FXW5qqCmJeW5QqNN9O0sMmRmn1LQ6OBTWOw76FUnKzTyFr2ua67WITWcgAvPUqlB7j02Zz3JoGdoVNhFSlULt4aKq97L2xBbzW0wzqoIbnTcNO9M+1K0zknQqmz1WhVhRxDqdjRlw0VI1gHF2eQTcZUYdsxwPUYmPFPxe1yfebYmC6E6r6BeXA6cIVZxEZCe8rEuLw9tOncARxkp9Q0m09ZDOKhrrR1oNYLiNVhmFp0aEKYqEMJGS6LO2E+qab2ljSSQZV9xt5kQsnBbzGP8AYVs3NLR1GEwU6xAbwIlNa1oJHWrKgtdyKrPPqK8etCyGi0/RO48tLG8ETVMxkE2kaopkmRPFF1QCIyIQgkFztURWtdYMnRmhSdXbRuORPFUXneA1cDkqzpjdVOg57arHmN8Snuc60AGTyVM0q1OvRDsy05juVZ/JqptfWNSpf0XN0bGoK2dSsKQc4bxEqo576b7ui5hlSODHEdqY3fgwDn5K4qYejXpNeQARn7VTsFuWQ5LZMse2ySHIValENzjWVbfB61e13sKfTsAFUQ5GmDqoTLSWnhBTsOHzS5R9VWbBtzZ3+OSLqTXt+0qlldkOAGeUZp1PIuJ4JjLTM8lhGsqFtzZPXohSadwkhGgWAwJlXlro6kCTJJ1VXsVTv8QsSDwHwV3OqB7v0S6XupVJgu4FW3h+fSCZSALjbkAn3E6wmUsQ12kgt4J5o1dq13VoqTSDbzVRwJgBTUpCq1zotKp1qQqU3ahhMhVGU2F7jlAVN5yOe4dVNjakuDbXaFRSoOpGnOU5ZqkKVO+0kkJ9zS0l+YT36loET2qnRlls57vk36Nag57tWOkEpreQTqNTDXEZbS+3gtlSNzGkwZlPORk6SmN5BQypkXaH8jaloLiIkp1TOSCI7URPuVUGLnOZkqRgtMjxWHFOoQXjPjxCoUdlTe1w49qsFIh7ZN1yqPbUcHW71wyGa6Qd1hN7VU7Pimj1pWJPNvwVFv1i73K0JzeRj9D2uaQ5MbyCOHbTpmwlzXObMQrqYhrzcjUFIup2xIzVPrzVRtMgsHokJ1UUWUiTBt4oUtpSa/VoeVUNYZW7pmQqQY8scX6hP2zw8MGRjNU6das6nJlpAlVQ6o18kaJtrnNLaeRCpu+kqdZRLwTL7QO5WNpEFoJm5VHOdADTJCpbDGseA6bHC0rXKFWc9+IpPu3jFwVJgMgNGcaoVNndLjwlDqC3g0nWYXj5NEc3dLirREdaHWFBuQ3kzIOt06kx7m7zOOidVN282Oziq29m8C32oDK7lPWgqnYmdRVb7BXYD4Ks48I8U+sPWH5wU6bC5x4Bb1MkcS3MD81PDSf7A2jiKTKk8SFIIICL6ThVuz3DmmN5AJ76VUiX6IXHOM06r84LXk5ioMigwFrsyZbomg9FoB7VUqxALshOiZRqYYVg4TrmFU2TKjJiQ/slUjTbIbkepVBWffU2kF3OMlVp206tIOi14TYAbloOCaaz7RJcE91K6Yh0tIVRjS0FwiXGAqTqtGGt9IZhPFpFvHmiaOPpGTMVAWodSpU5IR7EBswJykJx60PIcyc+KcHMac13KQTryTetCrbo1Uw1xHNap25p1oIeQDrVf7JR7HeCqDrTx9ceH5uaksby9I/crabB2Dj2nipc1o5EImps2u5zB9qGxxDXzw194TqVZzGPbqLgs67F5sVan2aZK3Pk7Fntbav6pTZ9uu1dPCN7LnfBM+eYkCnObhTI96+a0KbWW50o4H8f7A351Vp7H1phVcRRqutawnKKgVNm06R0GpTi9pFokpuyfs3OPR19ydAzjIJ22YadvrDVMZyaqzRY+kHRa4JrhTbSuztbop+dUwRDXUzkU9jZLbzBPLgqzm1C0tgZKleZcRmSjcyrSqOfq0yHI9QQN1oDbU/a13VpdkSmNpURWO0EsdoVU3dmGj6NugVTMDI5nRU92nUZcJcx4KqH6pVJpJkgcctc1nnIQgELv8hPUt4yUS5g1XcmgP8AcmgFEAHNuUqlae3rWfrJwt48D5JU9ab1lYkr9xyqdqI5vRH5O+8BX7VkdblniafcZXmxWq/YpEqfmWJYeFR9PT2qGbgNugA1TS7EuDSRntOYnqW/WHQBEycyj5wW73Rbn1cFSgVfpG5nlCvdh2Pd6zmXH3lZBlP+Bi3sTT/7xK+kpu7KZK3RWM6W0wF9C+0al9WAFGHpMD+BNTL3qo04umS7TfkN9ydUr4uSTJimfagzCtHmt5nGTx9v57ceO4owelqEzFihvNMxORVemKB25ZDLocJ7U2iWOp5TMSnVX2VGNI4xxRDLW0aj8mRNo5InRXU8Y6mXZxUCYzk2FXc+i9u8TmOCpN+qE8VqFCq0O3Z11XINb7FTfTxFKtTBnI5+xOTqoY2q1rhAccjCB2bKZ4hqoNfUrMabvotVVLzIb0TGaqtptLnObACotfQezOc2qW6pshumsZ8UTwV2eYy8rvId2M+aJ+qmw4EoSFpozVBoKBKcLSHSUfIO1N7VW+snfYKf2hUx+sCM8c0QeHlDL3sJORb/ALFb9Jz8+N5+5Z4aiOs02/EozWoU45PaPAKDimu6pe5ENDjOUto+Eqi30Huht7jnnpAVbDimzaMaTGzOXfxT8XTbVta+3oBrncu5YEODz84j04t0nLnmsRhSBusk1JMlYg2QKM2h1TXUd2ibim7LaF9pjNvHRYRralraokiOlmn0S4loiG8BovlBt73ENdqe1VLG7rao8fxVzN0WNI6s059TF202jeOcBCpY57SNYyM9afiqb3CBJbx/nrTnBgYHGbRw/OzMSUPPWNjgLk9oN7G6Oi0+xC/LNSx6OHr1H1KR9EuVLE21CGGbCdVVihFWwxLNTHMKhSdh3CXATGSLr2uaOeXiqbbw5rsocJTjmLROSbUw9eoAHDde1Vm02kuc2AEL6TmFrTqEBzKeWVoE5CFTc8y4tkpjdhTq7sydQn1KVI0pOYulB7ddo1G6u5zCC4t4LOI603cAKDSYTt6YGSPkdKK0cDKOfBdJpQylPPGEGt6lPWju8eacJR7FCYiu1pTh9ZU/2qw/bCxJ/WtHuVSgBMMJH8Kg4kU9Dut+9bYY2q57cxvj71ib6lR2ybkTUOawpJY01ZunwWNGVtIbojRYR7LqQqP6IdPJYtsuuDDqcotEL5Fa2nm5zd3lPFY2pHmhS6XCeSqUhRf84dUNjY4Tl2L5NIZu4aNo72e3RYvGGyH07Wtuz7+S+UWl+GtxEwdpprqhRrY/DCk1921EkLBfOMa5rgQylbS6ZR3sUcTs7+iAI0WKptw+IbabXuqPgP7E9w+TaVJ2cYerU6SpS3CUapbmxvontVfDsxFMvc3dF/GVTouq+dFEMMA6wsW4k7tR9rhyuBA7N788wdScLW5ZSnPtbvu0jJNEQRExyVWo2GAu3QSmtbEWznmiHUwI61NTdk8V5uo3PkUWCs4MORbdkgG0dy8OInkZVZnzaKzmENJgifFMw1VxpUDmSHbshX/ODaXtAPFVbzUrNZHDRVHsytbLmyv6h/jKDeScKlarTqNEdGWoBtTaNnpaSqWxfY5zuSeagpbo6TWwUxjwTPJbg0QzA3uKf5TlxQUgmZRHUgctOaHYnEDQcVlwzUrowe1XPdErdk9ymCVTcW5XQiQ1xzAyTdw/Rp52bW73NUuiG7VUziarmBr5aBxKqNhhl0y3miTlNM/5VVbu3OwxsPAQ1uvtVRlJtEWNYyXfZGaxpdjKe83zga0nZiFgAcTUcD9AW0ulxWLMYouH0lwAB45LCzhHkXDdfXg0usp9zcIGhu7U2t09UKgdsZiazW0pu7CVUddiKrTFlPJuz/3Wzca726mttt7VUKpw9JtRtwpm42lVNnTpMqPDdo4N/FYrY06TajjNXIyVFLZDCt9DZiOfFUnX1nh/Rt4IUHbd7NdpcYCqU6jDa3ovnVV3RSa5vRzHvzUvLC+1026KpBtcGkg8lTJcHkhwnnqqzCSaexzE9LKfz19SrQdc6AGE8pTje5rjzCa2ZTn2mOBhM6806TAGWSe4cTyTGwBxyTieAV1OpBmExocH7kv3dCgagMTGSNjvgrTDm8iJCf8ANqVLznSVTBOw9r3Dp3THtTCary0GSLNVv4Ij+E/BV6uGZT2T+g2YKpOBFSpbD6IzhUqdXAh8id+QR2J76VA0JMEF0pnnIMHgjmHaIZaJ/DeVQ9SKLU4ngEIdJRCblwUDgFULuSdyCKebTM80zsRHWqY5uVNvJwRcfWWmlNf4gsOY/vYWH/atVQ3a4qPcq7TcTSpxJPMKqW0qd9DD7vXNuqcygWM2jWucbc5hVjtKgd6VrQL/AL1S85Wh2svi1VQ4g2DKX+PJUn3UReYPEdysGW6fFYJ8B20cN6E6nwsaViPtfEL5O+0PgqnI0h4LGU43r3cBoqp28OBG+BEaLDFtQuPpQ7pKlUEw1vLrVeqWHZuHSjsWMFTM1J1I60A5wcd7R08E8c2kKg29rofEtKqM+ofAj898zNR9pdAnhkq1Ko4TSqWkcyuxbjzBQRLm1Gk8QUA0kjVNjQZHqVUudlwJGqpst4qtOoyTGXXRmq0vB5cE00ajsmpr3VC4nmVUqZSHBqbStZn1LNvuQvpOHZmm1KXSHrBMfXJa5rYFmSNJ7DVl03FNfRbawNgzzTi+sGOnROAddlkQhDZuGaM8Sipz1RCmQnO45oSDmn2n0U+XZmB2hOhrTrwTuxOyMqkHaAahCWOIESqHmy614LhzVJpcGuBHeqjS8Maan8hVAcvN70DRbKKhilll6KoEUam8+WnkmNfcYNwVzXA+fuVZ06sbPsWM/ZtHgvYFiRMi31Yg58VhmX8RlcIOaxhubvN9iwoNRsB+sHNOZY0VIzOc/csI9oEMhRH92O/RYoNJIniI5LAun0h8EP2KxFMhueeg5BYnzgvbo7IQqNQOcX3ZwddVhajZ4SM/anVLXWlvSjLRYkvad7QnirXR0+DgeHktJabavAzyRb1kf4iuK3SoIPct17h2ldMrVarXy6rI+RpZUuIzB4p+JxFFrq8iSHanmnHqTQnHq8lt1pDUao0lOe2mKbTowHRZQi1mTnGS6fyLbjby8lz8oBT7HkEAwqbZmSvV7Ansp1ZA4QmOfFx6kQW6E+4Jx0kDxWZ4prriCmp0gKTmJTnU2kOR2j7BCim+/VbpG6eJTmu1AlOc2k52eUck7dAd4o8lVeAU2WF25wfCYNl0RAN59/WqVQU6RsMNlsrD22AzI3dCgWmN/knjaOkU5OacS9xkxmVh2kz5xUg1xEngmtc1r27biFiX6boWKd1U/gr/ANYG+9fLpAE3NWBoXDze0e7rghY3E3i3JhHKQsPvm0P1DdSna3W9yYB6qYODqYWKtk9qw+RyIhUsv7sj/MgIFjmDh1BYsTvN0jhqpvcXB+s6rC2iZicuxMeBl1TyT67vTy7k9rmx5wEeSuD/AMSRmv8AqH4FVG8nEe9TbK0j82Cy5pOsrIqalNpk9iute2M9ZTmipHaFF4K3S7v/ADXwWYujhzTK4pFu/aId5HXu2AcSQ92iY3qVU8/v/BTyCz5hAcEzsRP1gh2ot6kB1qOaGWYK71u1COsJxyN2uaLXhmfUnFzZTS0Rur2Kkz6xWGPCU1wE7yqOOhogFFvAKh9tUj9cJv7ceCxJ6lX7GfBMPPFhfLc8dn4KnPq1h/kThE7bFtafYVgbm5Gk3ot4y5EZ3FvcqcT0VRf9RYodvxVI6wQfcVhvsnxKDY6Qbw+qq7DwOWQ608h7g64ZrDOaSXcc9clQjT/dBP5fiisc368+KnnB/wAIWJH613j+VFwX0rV9MF9KukPauksnhdSzTRByXWetR+RmGmGwPyepZarifJaEy4WiJnmpVR7qArAti1x060F0dTqndZATh9dW8clHIL95Sj9k+QvPAtRIGSPU5W8zKGWZd8E4mdYCqk9S/dWh7VT6iVQYOeSa3gSqrAM2tCaOKpc5Mql9pM66qxQ6lUI9QfBD/wC7avlg+sGFDtf4U00/+7J9ywM5DZt4dqDt2YKpgclTPIFV+ufirepYXM9EqmSM4Gfcq4saIJ045rJo7IQybIOe6FQzyK2c5fgntlSsSxziRaIE6KkebGeB+5V+sz7h+Ygany8/Jm7e1hSfJnp+azKycCuXWtFmr370K1sElFZqMoPV/PNU2z1o58Vb9dFN7fJUePVhO6mlO5S3xRaOK/eTFTjLpa9iiefgju8YlO+yF7QgO1Us9QFS7Sq7jyaEHcJKpcyXFU+1M6qqrn1mqp9gfBOH/uGr5TB4taF7f9CqHlVeVhgchaOCz6UckzsTVUao5LDu5IGOSqi0dqaYiCn7oPcm5DTkrepHku5PpzuWTCw5+oP8xTt71Hf4fyQXNMGmKncdFs6mtod3ET5GkeiQfeq+GJnZuiUbhpE96w4eMnEO7lSIm5113tTsV5lwE5moJy1yUme0rZ1mOY6AYPlm0xMTH5fR96yEdSOS0UIvpbIjT6Zo8Sm0qsNOu68HwKyarV1pweOOSamj6yPK+U7tVMd/keN3NVM26Dj1qGwcxxTCmvzkuKEcWqkPquKz60BGrjKeOa48UO1ypZCRyOqpu7VigOFoHsTXdao94VNAcDUBVU/VVR32U0c6yx/Xav4vFqrs5VHLDToRC1zt0TU1OCqMVP8Anku5HJTEZq7LRDd4JunkA6kwQINPlnxVL97/ADBNo0xL3saG9slHzQ7bgtm6m0PDo6XuRB2WX106DRifWP3Iisd75ixhtGW7UVj6MWtogOB4b2XuV+1LWDEABlvA5wq920du6l3WR4hV3PpNL34cPknXILGUKVJt2yaW7vJYasGG3T4rPItc4aqnRc6WU5sHKfJvOLu3yFwrhj7g23q59ifgn4llSnRNwsdLZ5hFu0a6OIQp0aja7XNBcYiDyWWiawUPPXyal2VvKEKt7G1QbdlBM/WlaBWVaLqkwA0ZZlBjsPUt2ZDqe0z2nbyTHYXb1S3KtUjcngAhZOmc+TNQIQWibc9zhwDs1RB1dJ9mSoj6s+9A8pQceOfuRTAmTpmpa2BPFOPNwCp/aanSdJVOeabkmTl5lOn/AIbimE9ZWYzKt/Vj/MqfKT4q2ZzMFN6gsd2hMgZdL/EqR4BpTX55EofaT+xEfZVL9osaOxT9r4LEif7xyo9TS7wVI3ZVRIHfCLfVJCGqdqn81Rc31kQUQpU9Xkau9NPUqFS0GTE8k08i7wCAnOz3yjbial8RNyxlNtaq22lSeyHnLmsO84iqdrQc/N2rhP3K6hVeJbcM9YaHKtQe5znbGpBPtVw40g72H/5LFzr/AEd/isQ0loaQ492VT/yWDh/Tpuod+f3hNdY7zlK3Jqw/mXgioLpCqZEA5jJU34ll9IHeESpa4Q4kxHR8s1MZSom8Nh08eKdTomjiWsdk8tycvgqVAMBL3hqNeoxlZrnGlSdcQZE7yzIEDNZV6YjqOaqfNWXOAzbbn2hVdvha7aht8664Wf7q6peRGRKdrZkSJyRdUEO5RCJC87SqNtyzbCKhNLmkB2YniE3LgqDOVET35pp9Vspx6igeryBMHUh9pN63qn2qqY4Ju6jcEepkD2p3VQ+KAHAR70082hN+w3xTR1/FSM4lM5rEktZAqHUaqnY3KG8frJsx0D8V7UD9ZO7l7E39oFieuPBDvVX7at/UvHuWGMGWMMfxIiBqfFE2t6PJNIp0zI4tUGnTA+ypDW9Lkrn5uKmE0rTghATDCHkpucy6HexU6jmy2J9yGyqvZNPhnIPNON534Oadd/e4MLBOLc6ZPHnKwct4lvS+oW/BUsvqnvCw7TqWFnu/BOupsc52F9IT0CqZgb9Jh6Pd8UDcRbUB5Jm8TFQjMqoPVfKouDj0I8gkgDjJVzCXMuiQND2qOSlNL2B45Epv0bGHogNjTybN1WO0r6ZtxaHwNIOi1uUvo35aSnVnYil0rC1pylHdhvBoTmvOIbdE2EW96LqN55F2UKA4Jt+MfD3klhfOfrINBzie5C3LrTQ9zqljYaOQQYBqLVWpg7uQ9iqdTWsVV/VCHlZ2IDrKpdpKphVSmdiPkq/smhOQ5qmA0ggKj9qD7U6XOE059ypRrl8FimwDL0xuzBjZjI/aTb2kGz4rvK707uUyFmeKfK05p+XpICOBTfsnydyChRChXQhlouqM/IO1NRRZzTLJubBEciqTTTcXWjOMuH3pjrdM1g6nrUnNWnRd8V9it/q/FN6i34JmR3K38+KoxxqOp6es0x4hYRx/4Zad0c1VtD5t1hPp1K9j9o2JCqtOJBFQkkXBCl86m3PmmbSXMnMBNDQS6N7kq+662owDqOYR3HwepfQvedeifYgGtJOukeKs2GIlzpduGFnhMXp/wjqjOHrN5XMICfVfhaz5OrGSO5f1PFCB/wAI6qTg67OZe2AqtP5u57XN9DMTwzQnD1WAZZkI3Ube14y7YTtnswD+tbmmDzDWwLvOjVC402ToZuzVNrnMFjbN0u0meXWjdWpXcOkfgrNtv5O0yjVUSagdBJ0Reaodc+feq2fSqKJ18gXegmgdapjkEE/rICb2eWr12hFN7E3sVM9aOX9yFSA4KoOblkAACzh2pv2PKfJ3p388PIftLuQ/MaLQripzQUIXDQT7wuptCmf4XrECBuM8P/1VG4T5kf51hQTnRrlviq7PrlVB3+H3KqB2onLgfBB7YBY8OzPFrvwVrSyAanHrMJ7LGSafSuTo2egjNSbbS3g7iqrH81pip530x8FTD3VQJzmu3P2BPLXup5cKuz4r6Uu7cYSj5yOzE1EwAVH23TvOdrHNf/2+9WXsJGoh5/1KqwW3FsDdt49qY17qVzRnug/FOaHU8ul5psItY6jMFuVo8EbnsOcTA/8AFX2usHpWwP8AKntueLhraSgBtIAjUj4oOLXZnIbXPxyX0VT+II20W9/+y3abO22FdAmIWZ9Epvaj1klNHkah2+SE3yR1/kFFDq8kngEfsgeHkCHKVbPkKKCHb5e/+wXcYTmR6JHiq7SMnNI97vvWHHH5vCqDLKrcqn2l3J3WFAcRNMJ4PH7lKDjGiHYh2J5boU5xzJ4W5NU3Uh+6vpdOpNq1yTQmTc6L1LZZSnK15+CO+4n7bkQw3c94wEGUTSq7PXZ1NVw/nuTWMaXOcch/IRpC0wZLBUaT4KJbx5IBouedAIVotfaM2tLSon+fag1rXOP89aLsngalrp+KAT7ROeZW8I8jncNm5An0c01R5CUPLP5R/IKPlhOn8nv8vegh+f1R61TA0AITu5OQPkbKEoJpPBZxpC04rQIxiHHtGqp4hggPyc2dHBPrvF8QA0nJzv5zRqVKl7uvghSkmnVNrgrQZdMdIo0Gk7Fn+J3NMqUnFj26FNqtlu0ph8Z5FHDtJBjzhn3IObuOGbSOCpV3SHPZvRzBhfNmPiWg1Pg34ptSk61wORCpVzA2jQ4j63HwRwzKkNb0x6zvwQrYcta4e/qUBwtmRJ0BWcii36NnLr7VsJ828acjzRcqzic9i73p3ZCARU+QHj+ZKP5I8hqIzxP5jv8A7BIRIC0QWZ8uqG8t0FZLN5Wcr4ILRbMW9K7RNa46GVNyDtpm0ygduZmV08u1S6oYQbt3wBAzTi9xLuKyf71aDkNFvCV0RPauEKSGknrXoypXRYVkGhQgj3eSP7EPJCEd6MsFrVdZCg0ySogyOpZ5DsUA+0aLJwWrPavRP7yz8fz+i6KyaVk1yyY72LR3sUOae9QWhcIUAK2VkYz5IuCyK6ICzC6LfYtY8n4LpErU3cwpy9i18uRhany5+QKeKjyZeQ/2DNDeAQBcJjLyGXADtVprME59JCcTStH1kb69PqDUbKz7nekGaLI1i39msqNb+HRENwtWOshZ4dxnUl4zQcKDRwm/8FlhmCOsqDQZCi0dgWYjtK0Uw72LU+xdL3Lpr6QL6RvtWVVvtWdRpK1C1WoUtc1fSNU5e1el7V0nz9pa1f4lk6p/EuJ7wVGZ9mSMl/sCmc/sgfBQDp1AosdaBx3GqN2P2fl1KzUxlzWnkyn8xp5OigSCtFJ1WajyZj8xDqzAe1QazT2ZobzjPJpVxp1v4F9EdOLlmxo7yjNn/bcjFShPWFIxH+P70Q6pV/7izqub2OH3otD9PRXRcB1gq21vvWdk/ZUSP4VqD2HNax7V06mnAo3C3lmpkAK7zn7pBX95/B8V07p9yLdrWfwhrR7VYK7y5ul1uaaGV6Z09WfwUuujmHCFJ2+eggEKZiBB81nKjdB0zyCbeMnHWfjKk0qx7wt92QzM5IHax2uhRt3bwytOves67m8mlOjEtnr0WVan45qxrg6OI4IjagmOCuc4dlplfQvjiIhZUWmeA170ZwvcXIWUA/mQUHbJ/K5HZF/8RQzM/VK3XkRl0lulxHGVy71xX4+TIewr7lxXFfgtfytVqFmAe9f1ZjlBwjR2BblFi+jHsXnHVQPqkLPbud2SppNxPcF9E8t7F9BUae6FLQwhQ2lTbPaVLpP/AEkbiZ6hbCsFSs/mLlJD21PVdnKypUGn6zSpNWixDeae/JGHOZb1uhZVHlvIPCP0o6y/LxQtL3HgWi4KT85YeAAcnZ1akdX4KSKpbyNOJTwaNRgA9WfeiBTq6avmAsmPHZOas86zxVj329uSJDx25r6RvVDY96Ltx3C3j7VvFtLtCja0HjlbIRIA/dn70Ts7Z4mVMOd9klCalUCfSdKDRiGOnIER4K8FlUdkZexG6gy3i68JzqebeGevsKO5i2dTad3gg2m+oeym7dCLmsD2hue0kZIObMc7IHiodaZzufw8VFUiRkDJtHUujfOfSCzNpP8AdnJQBTa4tlvnHE9qdtMSGniAZkfvJzabt/61GF07+Fs6FdElx4ByJdcP3wg5rKzYGtwQe11UHXfaM0Bt908fxKJ2u80eqS7s0RMvvJzlsIlpZpnH4IhwafevSjgs3a84Wvs8vWp155la+9dS19y1P5eq19/l6J9iFoqfwIASZzzEeKh7bLj6yLRUd2CUHNyWdYXKalYjqc38VuVwf3FHm5/ZEypgtz/4ZhTtm3cQS8K9uIYP3yR4IMfUa67Qsf8ABXOr75PRczI/xLdGugiZQM16p5bMEImkMMHtzduQe/grpoGR6v4L6Kk9vPLwQeMLhDwJvbl70BRhvPzsj2SrmPLGt9KcmpztnSM5XkET7V/VXPGgtZp7Vc51VuehpKMQ8fvFXbem7j04HiobDo5byEDEdUUclI3Tye3RSXgfaBb8UbqtDvqow+lbqC1/4K0PYH8cmqHsZUgcQPgUAXWGdGZ/FHfr5a7pKtOKt/6Uf6UP6Th6vO4U93ulEONPFZz/AFfd9sqXYaHc9maY90rZtqYsjS1tT4lbKxwOrRWLAfHP2JzqmGqZenZIRqV6tYujLzZHvAW7iKIZGjST/snTWt+1WHirZpuH16gd70Q6gQNbg6FkahDh6LsuvTuRLnEEG4XPFo9qgPFSzU7Qbq1DgOdUgqYd1SAUIL3Dn+CgU3h/2ePWhvNniC634rZvoklvptdx9uazpVHn13G1vfCNUCeLoIn3K6GlvXVIIVuRy5ygGiOOiPQB61Jfnx348kLUexTDT3Lh3Dy5/lQVqtSFouS6Z9qu/pBbxtbI8UMgToQTl7EB8zu/ihOvwTY+q3VFjMPu9dwRA2eY021viiNnWpNd6pDvBP2OIeXu4OvlWtcy/jkXeCuNfEA8cjb/AIgtiMQGkGRALZ9yc3b0jztE/BAfOaYg7xDWuntXm62DMmd1kD3K+jkHZGKDTPvTS8MY6PWAPxVlWnWtGh2bPuW9tjJ03QI9i2dIVXnl0vgh/RyzhnTE+C81VrciPmQkeARc44kHgHUsvii+o6k5vBubfhkjs6b93WKgUPZjWUjqRWke5ENFZjtASy/3krZurVyOA2IQAY1kcXYVv3ovik/ta8eCb5pmeltVyIIxeQ9RDZuqBumdNympVgO09HxU08SwRmG7p90pxgOjSMwT28E1nzRhGeTmzPuR2eApsPCdVLjVYAOjvuChxxNBxGrXPj/EERtNvwzrNPutW9h8U13rljdOpGx1WplGdAeKEl9En18I7xlE06k5+gCxBwrD/wDIcENpido3qxDfvQd80wueeQaffwROweW/UeY8Fc04kPOWdoLPYtniK9aedVrm/BW0q9B0nd3s5RpVsaSeAkR7ZWVlUf8AFc4D/dSKmEpxpaSumxwdwfXCF1rCOAeHAfeiG3NMenRDS4fxKa2Hqvy6TQBPvR2dKtUPqtDj+CDvmxoOPB+hTQNiyObT4p1jqInTfKzZRqdlUq4x1taVv1nj98eXUrVcfLx/K4BQfJw7FB96zEKRSa7iDMJobg2uaNbajX+7Jecw+Ib9mfvVprVP3qZy9ymn8pOt/nqTdpisM7nB+5ZHDzwApNPxW6WS79XaPcVv1nCOLqFw7kRSoGoOJFEhA22jrty9639hVu9B1vjMLewNBkfWbmrThCy45W1PuhEbNzCeLnlvjqobRlsZDfLfBFxw1AcnWOHiVsxRG96ld0lG6rjR9U4hn3qZqjhLy1WltB7fW2hdr2aIBtLA3zmbo8UHUcTg7+bQLvbKNGpWtjjeDIX9aoxw5ntkogtw9VwGbgRn3L+rVnlvWITWWPa7g1pR2dITydU3UDVwOurb90+1AEFg9S4R4rLEUHchVdEezNb7MMYOvzknxlZ4Ki+7qbr2jNTRwVBgGRjXwUvp7Pvuy7NFvOrhs+idffkvMfOwCcwyoSMuq5Z1nDrqUXs98p1+KFWMoq1QD701jmYWlycdk8H4o+b+T7f+z7+KurUaLQMzZinQP8K8xXp0xESMfHwQu+Vi48tqwAd6DnDF1+tga9p79Vv7bDO9U2Aj+LVNZUx1EnlLcz9pXua951Baffk5A3vMZZMz96eam+NP6zA9kqGtw1EcjWJU06dMwLfN0r/FWOa5pBgSxit/on7wtBQvOHDv1LlO0xAAbvFrt3vW58o4I/VqFrs/YE57n4B0enTbn7nK/D4iHTnZTqT8Vc5tZ7zq5rSPFqywlRo4+ddKO0wcH6xHxCycAfV2YWThH2I/Maj8jILgtPJ+PkyQ3ojqUOwzSZm6mLT3qwYRpaONjgfiiWfJ9SeIZWtKuOBr3fvH4JxbhqjYz3XT4rcrVs+oCPev6RVfJEaDRFjaLmtYOkWiULMNVewcL/8AxUH5Ob1m+oxHaULT1VDHtIRtxApwPTF49qjYMqE6vptn4r6NzB62yJn/ABLdu3sy0MiBzzK85TxD/UbaB3rzdDE0dc2l0ol1d7ozgtMhA7Ulk6cCpZVBj9SSfuV9SjtTzHms/ctmzCYcR6x+KhopvGp3AjS+bMHaR8SgDRZP6shfRx1OhEfPHUxM+iR7UGO+UXO9mS3K7KgGdz6coNc6m70fom/evO4amJ4tpjv4qaeGL2O9LZNUfNLo422z7AiXfJ72k6ZIz8m493eY9kpux+d0B6tsx71LvlPEGObmiO5W08ayq0HMWNJ7QLZRp4bGMI5GmEHHZvadbW2+CuOGrPfpm7LwUvwpbT/Y598OTsTTZQ3vXJpwnT8lB3Au2zYWeExNN2W819zfBS19R50nZNH+hbOnQwwjV9zkPnF9MalzSR/pW2wWL2zHHO5pEeCEUaDmnPKuR/qRFTCYsVODG1Q5vanPrYR7TpNFoe7xyQaPk7GvaJDL/uCbFDGT+xHhKL3txvcyETTOMeNDTs2gVz6VnA3YUtjvTXtGAI+yZUbX5PY79rJn4Lz/AMyd6WVfeKa5lGu2Zya/L/Mp+bYyTxDZVl9Zn/Q1963sTRHU4QpbUpH978jXycfJr5c5/J19yG85amVEgT1J17w9sE7zOXem0Ic2rW0cOHehZjXB0RJaE67HPIHAcVJqVhxhtT8E0VNs+fSFSD4INqP+UI9W9rh70G0KtVmcNljSnNdiahI/VsRbt7h9YBBgbSu4XC4K3Z4dxDoHm48E4OYMjlbUcFtGMcPtVC77k7OQHQQ6gM/8SJIrWk7trnD/AFJ1RtF7Iz+mcZTxbSqBvGpM+KnYsDR6j7fgr3NquB6AdiD70aeww5681OwoSeNpke9bbozyYf8AyW1taXHSWkf6lt3U8OQDGjp/zIOdJbMa/wA+KLYqQAdIn2wh/R5nXOEZujSFFGrXZnptIHgmg4qs4PyDdPBXuqlwbwuKdZIM6WBNp02Nh/64j4JnTa/W7aucpBqOJ0vdp4rpUCw6hzGnP+FN+dYCk9zuNOoWr+i4Z7O2uVOyxAuPSGKz/wAqs2/ym2eVcFPq/OcYCeYYZ9ytFasAXxlHvyTqlfF1ifq0qZn3I3YnGCOdNhHsVJ5xGKqCp0NBCDqnznX1g73wiym3GS0SZrwFFRlYHsD/ABRhlUweNBnwKE4dr+tzQPBWPwOH6olbKjTLHwXZVC0CETtHn0s6ilm0a7m19p9yNEHIbv0n/wAUGUajWlxgedeR/Pch53D582jL3LzlPDOuyME5+5Gp8zEHhtZHshEUmUD9umAv/TgMMQ2QtluGNOKA2GF7qX3rfpg9mS//xAApEAEAAgIBAwQCAwEBAQEAAAABABEhMUFRYXEQgZGhscEg0fDh8TBA/9oACAEBAAE/IazTbmWQrCoKdUbvi6y1hSLiBnfUqh0lSpXpUqVKlSpUqV6V6sqVDVJMP5HoUVxi9IRDtON9zlMx6s68bsQQSzUHrlH1lSx1D0j6Bh9RZZf5aVKlSokr+OX4qAm3HkhMMeEpAfPSAU9DMrrXoMfmLqj1r+NSpUr/AOdetfxP42xfpXoNQfWaDzCPRZqoR9OkIXrXoDTuWS0lM+j6UMfQZZRH1SSokqVK9KgTtZW7ov0ftLaogUq9XWDNV0xKlSpUqV61KlSpUqVKleletSpUr/8AAS9cBMspM2oi5qEBiPoJFehwS2CqEdzGFgrNTBHMWvQfwZX86lSpTHhjRmV3lSpUqV6V6VKlelSvSpXpUqVKlSpUqV61KlSvSv52xTmECV/aXsHEvvPeVGK9QxqJMHM23LAnSiziPoOIsf4YmJiVKlSpUqV6VK9KlSpUqVKlSpUqVKlSpUqVK9KlSpUqV6VKlSvWv4VKlSv4Km5ZuEASFG4xY1HqzqvXsU6RtLlxYsv0EXLx6Mv1tlSpUqVKlSpUr1qVKgSvSvSpXpUr1qVKlSpUqV/CpUqVKlelSvWv4VK9LZaINx1XC+9Kxlic+i/+D63Llpcv+FyvSpUqVK9KlSpUr+NSpUqVK9KlfxqVK/hXpUr+FSvSpUqV/CvSpXoehTiOFEy8RiSvWv8A6PqSqE91noJYVcs4vASnlmeEuPL0VKlSpUqVKlSpUDJ5hoe7+FelSpUqVKlSpUqV616VKleletetSvSpX8K9CcyoGIMyoxP/AMTBlWHqeIuaBWeD65Y5gCsXpzQzDTVvFspeAHRp9TT4LauVJiTiD/wfRUqVKlSvSpXpUqVKlSv48n8K9K9alSvSpUqVKlSv4161616AntN+lSo+jOL9D/Cv/i/hhAFaBdNctHE4j6pLBzzC7gvBn9T/AA1av3K4Lsl/6pbCMDw/0/Ur6+//AEn+zKsv0VKlSpUqVKlSvSpUqVKlRKm5SttLlelSvWpXpUqVKlSpUr1r1qVKlSv5Y9LqNTnHpcDVnoPchRlSvR/+F8myFG71tzY/TMBrNImaWrb3llqVEEJWTi3TqYiZxT6dcH5mNo3C9C/mo4NyuOFO0b43/wA9naLVD272/wCoBbtmv63/AGdzfiAMypXqVKleg9CpUqVKlSpmut+UxBBOK/77yv4VK9KlSvWvSpXrUr+detf/ACEq8voUT+Blfxr1SplE2ot7JZAsSywjNYLXZMRZxkLlDHue8OEW+i80xzx7hEKHkoza3CH3CmHZr5SbE3ta3n2MWjxG8L2/1RIZeL+P8ZVitXjx9XmYEPda9vmbPbEr1K/gOFM4C18EoiAu+vRUqVKiQLp1FNsAukYwXVElSvSpUqV616V61K9Klelf/Sv51AcsSkauLKmI+j/Iti5uDban/JW3XwJ3Sc4mBje63MdUow9ld6m/JmVg2lM3g/zmOaIgMpbLIDHXXLLKv7Q1tiM3BDEEhZF020tqYSrkoHU48ZSgRvDzmz2xNkA4fv4/zEBa9k14cQLzKleggt8Efs7sfgwAGdZVnywzPlwY9jrwTGSs9FSkC+sGckqozgsCfo7SlNPLUPQMANRbnVkFIVFLZ4letSvSvSpX8alSpXpXrUE4C4oyRPSv4V/KpXpf/wBc6MRLSYU3/wCBHyqNzWGeifJ0lqlKXy0/ECnJpWKIeGFbsjWPJh0uoDN0SwA/IsS6aimFL28kvFJTaIz3o8pVa+ux38CISSO7vB1dZ7zsc8KValmr1FtYHz21juQf9CrPT3+ZVAbOZ+I8krlb6r3pXoJ8bsWv1rnF4hZIgshrHRM56y/cgodrpWplIAW+HTlmVN2MZWHI8OzFHojoHD7kygObcBLVYBViCrJMYCtEBeuQKxXE2HLKSLB7spXhlMXZrHTMwCHPMqV6VK9alelSpUqVKlSpXrUXcy59a9Klej6v/wCIwIqiKTFcXwxMGBtWaX2LXO5kuO1gF9CnNHZl8dDPSoPJ1lpKorsfiAW4zghRCXkMw7c30xymAKoNhu91ByV+zAQI1L+jfqDSlKvNpZ8QrTlUnkDhthOjMIZxgtXF2rpGsAmsEOjndyKbuGz/AB+o6ydSy8MMuh3Lx1lwhBdhaodeIeJdZp7lPSW43LCo+LjkurNoD1du82OMLfGe0dDaLll8BXKNrdz5sQKVwL7xVqvTi5eVeSYd4ZD6QbRjdlG/+x7yaHaatx95A4iQAtT1rHpXpXpXpUqV6VK9K/8AhUr/AOtRlR9K9H+d41I3gdkt8dKUKvWQ7wL0V9yGWtjmHgOb0q28OXtHBt7XWmdjwtdpj7bXhTrgjmr4oAX5uKkI9AvUv2j1Uzr7G3enESx2nYOS78sq09YcA/pgFr7PT9JdKK+ekfCr+Y7GkUDF7zSO9xLeiIDYpk6deIkOjY5Dr1jh+7Ou6/qcRQu3W6L757ywDjlSj3BmeK9CABh803LJsHO9s4/sU4tLFPdPSsnDSikspcUhW3/kG0mw2kN9iojGKr8RJYDHbp/usDaXqbg1kvM5CEroKZX8KlSvSpUqVKlSpUr0r+NSvWvSpUf41/8Aa4lDHL/UuBXfR8kpSLnbdQj5lXldYVoH3N4ZRXWLu+Hwa+JhiOKuWgxfcq+Y9HLMyDsYyeydJz2IOxT+pRroc2vtLfxX23F/rJOZvmNQ7eXmErn58b6ZYot3fE/MVGEacEv/ACqMB1Hg19yuHWO6YmW7UUmHK1BiqEsi6sdX1Jewt3Ldn+/QHFZjs39xYMOpx8JiZa2dNfdES/TCg7TtKswCrN4mS1k28xyvnUIlZzEYfC2cxxNfvEPhtQOPMzBVoj3UCTrbUqVK9a9KlSpXrX/wr0r0r0r+D/8ACv8A5FI6WdVGs6v+BcNTv8v93iTXzvIv6gJVQIW6oL1CG6rOaVlg0VV5uGPLVvgTCufTzdRvTSUorCw9P7S8ZfHLe3TTrkyyuhCkT/xH5b18qKv3nNKuup4ePxObqPsBZ5X2qNVymNFr9uXPEoEK9kpfmFNd37H7l6tdM73ym/Eu93lKu6irrZ8Gs6NV9xydWl2QBXJhAykjgORzFXRME2OSH4BqWb8zq/uf3GSL3Z+JeKjAdYF4HBcvpKvkEKzFveIHFWrC1YtPEOuA4DiXD/VZiF8J9w8OWrxcqVKlSpUr0qV/Kv4161K/+Ffyf/jiJuTiZ7+HrS0miZS94qaPxsrTd4HxMoDN2fhjuicCIaY2NveXq5bZCi8E/wDIg9uFLA0ErfKAxH06V1hurO/vAEm56ReOG+vCJEswiI39DMbH1LCsfiHaOry104rXiPrxUcTbu5+KlXQQLyIfivmIXB10AfxBCc6Cg3G7SqjiVXiBWgd3p34ik1w2IgYjkUas9jmapPQ/rcYAXJm+UdXG/wDnztItR8kZGH/b1G7ri8H+1OowpSCzdXmo82ccS/sIXOLVGz8dHSOi5f0mM2F+oBYOwOI0biOU8wdw4iDK5UqVKlSvSv5J/Go/wfSvSv8A4PpX8sDA8o0nFm97gUQts8FfuIZS058TxIy76fUG6QXkUd5iILF3bKF2CGfcRqADS5s/cqUDgFrUvfEe8rE5wjBsLrMd4S8F0KbcXHqiA5A0cfjeGOwAoq1b4arQ7wtwwsrgAuMH4kHcNdcko0Fe1jGuIVVmyG4q6/65leczvAenmVA9xLc/uE7uFyA+csQH3eNrCOmo6tU/tHyEOIC2TkWKV/bmok+q508QbunPaORJ/wDfD2MzCGur8dcwNkTVLf8AYyL4q0z8kdpbvp/cysS/6H1DLT9m407znJLAWbRWs57Ss2KrPMS/j3DAfVNDOGZqERzNp0H5i4pZLyrXaPGY0OCVK9a9a9K9a9K9H0qV6VH1fRj6P/zpHNn3blqs0svnxWpX1gp388xzWvpSv3MAI3gu7pmAxDiFePuP9xQuO4eZhcyPswH7lj5vVtStXtc3wyp2SEwAHuDECUrAEC+7KBAjTdFSW2f8hxOmMiiJ1KDCJD7gFxl4qxw+0bZlWHe6M4IUl2iuHaUFJxryoxL4pLJO9d5VAo4IW2F5qNr0xAyGG2Ge9H2GCgMe6VUB4EXDV/3E0GUmk4XwhxRM9GRl8PzMJnR7o2cdIscVhp/e4Wah2mH63MJHvi9yXQPgmBssi7/o3LxxXDfUv1e85PppmeALYVxZBc9XSO2/1NzC6WfLA7gXlK/LMUBbiPPfzFl3BeECyIXuJ/OpXpXpX8qiSpX8H+XH8+0yvup29lSu4KUTPWhjTPFdU+PmXFj1kJapfxKhZm264REaKS6Of3Cets0P6TIourZgp+5SW1K6/pK8EtmBeMHMbHGARQrPt2hcExUCnxAPzMuu4nMU3VtczO9cFavLeHZqUZHH0vsTqlbYGqf15jVm1VbG0DLHiV4yliKbd4+5SSao0CddTC0hu8ld8JiTAENl2XD8tYc0VzUdV+LZSju52ymouH2ai0dmb5IQT9aHzmVc2Arewdc3j+4TlADzC7+eJUeSHuNuRcFbS3gvtSM9Tg3NdGbzf5Kj/wBpCFr7yrhxCY+wr/yFo1z5KnDePxFdRfAR++HWJSLRBHN9pd0QhVKlelSpXrXq+j6sY/8Azf5k/wAvwI/YCqAHz1nIiFurHo+4ppiozJlI8MFe8f0xiGV9cveXeIC+/omsTvO/N/5CmvL6tzuXtDiaTGu8ZQa8NbW+pMzqxK8Esf4sM7OvHvBRV+HPkZiKvMq6H8X4gEgEcYF3p+pVTmWIKLB3QYiCMbVePWazWamWzOGLhGzzMFmjRRKDWHulxBHmoQN+0yicKrLceImmmpVwYTxFxUWVD8mJcoxinuJmGWoZ6vEC6/6Q+NvX2E4qDPeiJJoqAud/U1jbKsaqAstsq+HKFhhfeXddpaibWIJxFbKBeiR+BWscnl+oEz9m5h3ozNOKjicxgA4BG9pgs4kT0JKjuJK/mn/zT+dfxI22cK0WhZxuoPGN8JuZ4qY/L+KUI7Wats5nUafglUBdlNnxNlLloVmJpuKjjHXU6mP3ZfqoBsbK1RUo6m0oX0iwN6WHqq/qK53Jx2gaG7K90iEh0o42zA13XWCA7DoPIwxD1kMZh8kmOgGPhiBK26rU5vZibIchbMN9oaGD8MFlez1jsspX0vD7XArz3jSBu/aCBopaGFx8RcpaGuVyvJoUnBu/1GFmu1a/vzMjRmPI1cUMgSjuv99RChBHoPMzzku8XV+0YdYKtznrEXB96jijciow/WUIRcvzcyFjnU6BqvsS9YfBG8Uh1ksrylSjkjFSokSVElSpX8qlRJX8K9K9H+TH+AwlhgXjEErGNCmVWBQ87hvW0xfMvtaDtbAqMBT1ZuZXFKKxtCoFgGW0+JgrV1wczJjiztfOYGiFIjtLlo+qoKU0aK3RMv4ZabZXIKBqi1X3EjEZLLkgTtuKDmpebtznu/aW0UifiFghZ22nHvAi3ZoDvEEbHYUxp5a7RxaArWdTkAfmLUCIcHEGdc/EVPiYYtX9SwJPTSNZqiVLjTpBv7hYZEz2y/8Ay6PFMrVVfRAcvzAGWcxxmKg4Ba1dwOmWF3wPMrtLckJ/7Kfe1V/qVN0con6Zn7t5v7QZxZ8PxGNdkw/MErCr2Tu5+ksw7rwB/cvcrtXzKJiElRIkqVElSonoqVElSv4J/FiRP/nXpUJUgmVbz/UJztKzPBljn/sfcDvWMMTaAacWxfwzH5IvoFDhHH3M4fU51x3iC2Dp7uP3CnMRBroKbp1iRmmgC+qYpG/F+37iBY5uhOJ4NygpQoLM1BeJMCSVNF+cCj7jkxuPczlE6NltdQMGa0N06XBFMFzd55+Izy3AcUXoFJaBtqBSEH3/ANwl4ZPbLMby5sIiHLFVnBxKCj3XZVsO9yzZFjcIq3IWK+8Q3WDk2zfWV4UJfGyCPLYNGu0uj/Q9iU6cwM4JkF28WqjHeDLn3iEMutr1ll84S5vIhkOXr5xm5g/KVn0qVKlSpUqVKlRIkSJKlSoypX8GPpXqxlerH15N4G+5n+yFTA24Elzocgqsc0a7dVL8oprx/UsbMpweyW1tFaYtf+S9wqheBWDwIbVZlv6jn4INgM9yDIkB21eYCQPIEFG50LcrDP8AUUWTOTglFSDOdUY5jmSVgiQQsXt5f6XB7Z1DJVzcuqzGz9bZDKEQFTSGig54hHREb568zIOK5MFaYqRTohnEigui5tUMXBAyMzpYneIzFjJY0fog38rQML/EYZVDPhMfrBHKFX+4FmUqxVucvbABxc+YbBgs2jjhiR0oM5pxMQ2DtNj3mJALfuQZKurT7h9IbIwvymQ8qR2IZ7KDAXIRUyr/ALSokqVElSpUqV6GKgjFehJUSJ/CokfWpUqPo/wQyyyJTCqtM7rByPenpNnsUe7KYkDSreDU16s/8+IfewbBdZlHFIaw5mH4NAvicXYC5nhltkYlaP8AsFdRNs9YFcvWSmM/MWQ0EInOR1BDlSKyq/1Nl4t5iHTJhazGXVxT217xeVYFoVNszjU7dZWUNVVm4rpqU1R3W+JWKkYKdamfrg4AzWoRfr9Mx4RTbslAjhcQVCNniMAWrOI7azQ4RA7KGEbdoyYhDQpoxcR3bmEIoo37uPiAqKCCtG8nmZ0mGdxyiAokYdG5nBJnkew5gWd6lQeH3AtrVG8RfUPJ2uDBaV+EHzY/I+lelRJUYSJ6miEwffY7weyByp5P+SryZIw+gzeL09TRm+DV9L6xJXox9K/g/wASe/gP92mAYW50TJQlq0O8b+J2XTDuT9m5vIxbvKkQ8431ieSEAt4lSbqyYRb+5n2UPagf9me5E0Vaw+0zujZVormqSb8isbO6lWgVTSo9qIJhIleMyhiVrV2RjQA6d3S4nEsjet8+IKXx2BOYLkTnLfJMkwrbXhLoZ7EldDU+iEnessxzMdgoDwAEA6RBvNcvZL1HBoMyjQWN0zFT2vEGmLNzfpvq8zjwqGHrVdsMvGllY4gAisRNpWGRcYYbDo3Mvuky/wB+oQDzBhpLusN/ELp350PSvSpUqJ6KjAT84fR+T8Sq0bU27m0Xd/ASZozkfifu5nGdF8P8ckuWHJL8OW4jUeC8N1rfcvV7OfVyj+6fqO645ewsHxDAI0aD39xfeZ9V25J2YkfR9H0fRj6i3YWmPC8XOQeQHY0/MRmA3UcOjNYi2FOpjtuZliAVy8tfMbnbqOXiJ6/Ul+hOxgfUGJaLBiG+j0iKNzhA7PO4kVjZa329iBqfKq0TMMl2My+ulXJe6ZZUhyKKa62u4yso8K1XF4tzHUVdCLabiPrmUfiuZA5uUMOXtMKNwUFmZQrkQTxDFNB0Lae00PAxGFlrc4hkBDP06ANUmNxsOZ3TKLxiWXdfhKMk2jS+0qKHG5hXlbSZe9Ad0U+ajVUGoL/b32QKTo5g3cZmXdEad8/U9klCekFgdMNBsvxB2lSD6VKi1P1dcwYDekD8z/cR49Jwtv8AWLXtWPMCEsWKTOru+l+5M7BVSjIx4EvMhtGQpG3jMumiB91T7eIStqmQrf8AdszCbalvdp8I7B8EGFTo/XJlLS7L7sTrbVY/viX298L0SpAejiMHdvh3gdzCD2QFMpT3DvegXHysmG3WvKPsJTrUSP8AJP4MIttSrLBhosl8DaP+OZYzLAC7skqxivqwb7/PMXWwCzpBVP6liGGkE4QYC0L6kUVdbk+cfuI5xWPEtSVlTff4mO9SVRoU0zDDOpPigQAn6wfNKOu4l9TJSkVVdIrYgtPFmL8tTNgEozoreHMtD+kHtU3KUjBttIKNzLBjO4h6EPkltv2DMWFlUFb6fqDUz2CWjqWwWYSl4xNHtdQlvpK72UQaCLW/OICsIEWFR0OcQlZKGuNsW4LtvHeUKqxuoLTpMW9parpnAWvDle0P1AueZ7rJ9Lf1Tvs/dhQU0v0EEIiEVnzYTMqtlYr12IbfaU/NAPgB/Ek3VEWujEFv3R79SlmAsDVrqbMmKGeLTlWajei/DTsMNWdheJVVOKgOQYbLcJIvsDobtqs6mrTmUIhfkr1iVCFsKqycuaJQEgWxrvsOJz708QIx7y6bFOa6tXxBSTECZqheb/8AUdTGI6Mf3FFLDCyVlL5dBCgw7dRSn5Q+WAgt0w4YY8EJZd0QR9GJ6vo+pUjq2RZKdlyc9IhXQsaX14TzilpzGmhfDKmpqnjVO4GMHFXuqIC4eGxRjr3iU/nor1JUpy1bX4fczj4QRLWWaw4P+S2PBYyurP8AsciwW2/+XBREqc4iJGmWo3ypguLOOR5vMBepTtbdJrUIuZxXeuZVolASzCuTpiZpMBt44gV3OEooDLaex/cQztRdQZmmjsmLmqfzL+UHCrxLXwHEFhbdtzF4Xk9CYhVL05jNtzZUN4c9oZwrhBppQaVrMGTCoxNLVuIKuOSMVysmR7seblD9z4sJl0tTnSA4bv8ASwAOi91/UDESF7cpqgcniy+RGmvLEfoU2Sckv37XEijaF3VUOl/1G+2SYP8A13hWo7Y6FLyb+ZagpXg6jvd/MC2axXYsv5MBc2i9Rh7nEtKqPOgUjgb7fMuykjaDkHufMxHEYNsZ9j7i9qaGlcxXf6lx33lbi/eo2tIU4WX0+FQOr3xGoOzdq17jfzAsFWxGrtrMopRhvMlMYlLasakB8cR72ZJQI0h23EErOTiQ9zXoESJH0YxP4VAeQSnwGWvb5hhDIwEsmdE7TBNLyFB1jTpWFOUpZTlF+4QcFFjn2gGV2ML/AC3FhwlQS+7DaFL6YrmVu5woHXAmOjebhhc1fS5xYcE5aSzjrHADUC2XOCbzvin441BXrTxJEsUADNYjFcUmBWPzDzKkrDLIFtGwO/mWuQUFLeUiCAuFqrEryYnG/wDVM4WFVtn+JnXbzwzIo6Tj2Ljrg/0lxORuOylzCDuY/EYysdQ9JVK9o1aolMBxv7jQIrkNUTI414lLTJuydjBYVeJcKyG6TE0+Jm2OrMGhFQeYbQwTSxEosm8qt1Q98EF7wGu0talESDTPf5hANuNcYXBUiuRujLTO+ES1XDb3UQxudbmzZFvtmXob9uZcFTGLzoXhi3FFHRSLmvtBM/thO7cmKfmAoAfAHWYA5mJQvQnUb6ortRpd9DXTxE5UBSIXYbu8QWV8B4xh6GD1xdamy28avUBHRRoHw3y/MC/jIX/X2l1qy6ix9fcI0NEvv0jwS5lQVhqqiVyNdLpHhbA6VbiPRpcaLhflXy5b/tehIkYqJKj6PokqCylkiY8jonzBfa5bi7hBxQ2cymj2LMMTYdz3l0NBbOIloa87B/7G063HNb7c1eWCLQRXvwxW0rUbqrHz7xaRdQzCFTZTT5iJXfcw8QlAUqi3XvjcbAXZVXJy135hwq00peruZxeZwfkEdNXKAKDJrjrDfoUDT46e8t7bTZf6TB5CG/OL1BtpIGV/6pmzNqNTAiQMvgWpZ7T2jCU9ZAmBGO8BprB8QyzGqmCHWCZJTjfVtnUO313KtUnFvOIIiF/5ICWccdMQbaFeRMEadSasW9Uw5kP3MUgM1ywQxxnjp/7LFeS/MujsT2I51D7sQtty2PKS5yMHjWkDGAOBZRCX0m6pvA+I5QDLYA1ejEoATbSMZDwzD7LhC0fuBLrnZ8LwhgTaNpnl1l1coJV2vV26V7x7xZbOmnHS49NfSzgDfTMwFZ/WOODh+pHVsnyD+pZUFjFGnutu2JTYBiL2Sjo5smvX2l04ltkuxWMDm8zxxIHb9MxZBCpXHOccbiVo5Hi459pdWX7QSDCN8gZf+zM/Jf6doWLT7lRIwxV3WZUYrufMSVEjLt5JZo7FwrpxOJqz5lMeBBnJtLctRejpHABmxcZ0VClMS0FS3kXlqWoFzEJ7E1ZdKdripYjt3v8A8iPlr5+5SnWWFsHMG2FbGs29I+EnOerxuGHohzWfxFlRkor1fWfs9iWm6aqiPxCCNtWh3pmqqKirvJ1zOFPkEwFQH9ULNrh9mXZXWYNweFOaSK+YlBlMeJmGVLoer/dIaNZ38Q25jLjfWIhZ/Qxw+ief9UeQJ9pUKjafklMoAVkvHvPD3+JW8jNXqBQW7Dbz+47LKAc8wOD6Ewyn3ALJBbva1LEd16XqLI4UxqV/yZBWiz6vEorR2afVziWBB8wVmdZR9nSR7UXZFcIIH/v/AKxlOp+aKZYQItadXv8AqJi1PQK/LKcVKMcqq84cynNgFBW9rlBLEiWHm/wgpxKqarn6+46QfJDX+DkbY8xBCs8+v6QChhp9P9RRoIddt3t3LcBszpddGpZaOyX3KzFMYNA0u7VjtmC06cjHn2mKxcQOyfioTP2xuvDM6U9JeYcePhKF/wDmPwyntwM4juX0ZqhN2lzDEXa+8obFcW7UcRVRi3VlfL59GFekqyGwYBypkiPsSg6BB/mot1Hl4nZdV6BALDYvMMiwEHkirstBOur+YtwZ9SWjVayrpLbNsupgW5IAug3li4hQavBP2wJ6S4krheHUqgoxAyI5TMsUuhX6dZY8sWqcyrb2t/5ywM4qBFRgxx2mJKBhrpDLc2WwIJKDXWHzwLOsqDhy4ixpAhds5aVq4jtNiShfEALDAHPEpDVWDPgR29kgGHPJ9TJxG1nkuHqx3ePEvQrYUt80G4EPOiXe228IyIRGpZl30lr0FrkuKXaVob6xiMF9nDubgeFekJ1Q/wC9pRvcbVcSZAVrd3Z3iBS9Ve0Sk3AnQQMwyR6G/bLKllEdOL9x98SHJH8HEaVWEh2cOpSW7dK/KUfxp84hQUsjrTMGK3Ss8/dxCruwqnv1wMU1qyOISF5DW3vb4iJrbcA+xH7qFtsW4Ye1JVbN8r93HvHL5mUKsil0amVoFHsSolsxOoUPTowstDjhxn41HZerPsPzBcP1yhUh5TPJ8GJ4iS5fr2H+FxdlYY9n31MQoWNd5U4KJWXeYHV2oCG3shfBuIqNeUnOncQxLvF9yN7ys1u5tcIGJtBbHoJLO811QC1sm+OyY3TBGmrzfGGOA+JQcEHqwR9uEVh0GdX/AEhdnf8A1KrWFyf7yRKYy/b/AFNacHaaJQ75LCMxa/xAVWDLxEuxXP5nWJYTmZObcPO5iN4TwairmA6Lbv8ASw4qyyr3heVcUswqNVCag02M+7F7mfX9y5MaTtxHtY3jCWid5Vzks7qn9QpptBL2qUV1D4gXyjC6I/qzzD+WMO6LB7wrHakEpGPA3/cTAQtMNYHtHkhisHZL/cseyQ/6hDoKbz1hV8IyuuWAUsZ1F/HIOYPQGKGNtccgNZW7gbrv1qyOCLICBwgszGR8RvrFO3EvONwJeS/0yimsxMapf3LRyLB36j5/tFjU5Hn+qeI/mMVH0pl+sagPmckfMr38MNySzY7wH/uW5pR3i3aIAwLyFRnuTEGygcdUSwenEyuIpzrKOaofJGhOlRO8ct1CDTpc1FxyRzqDosEPDBsBfYLiKF23lr43LENblVAzZ9EFWN1z1qGohAMP93mXEwp8QVVo64RZWZ/f7mJqienFdTMswY/VEi1mn8MRDJDvFrZZ+AhBVr9MdK34FBR+4weQwnD/ALYwjPAeav8AqMODTbGdzIta8doPMKdmnEBfWX8RVBzV9KgB6vodoVHAPx/2NTmW+7j+4n+3YnwD8QWnGfU7QY/EvrFsATyJ8ykn9EQ3XoH5iKXHh1WEJVEOVudVFWbQrn37dPeZgaOjuz/VLMqeteMUjr/wzKcAY5zzAENS19X9RiZYQ3k3CGZNchxxKhBQGjnh1CVUAvB1/wCzpJzUWJaZoXWYeR0mUQDdjXTcs86+ww6qaMe7SpUr0Ij6EDtKDr6BfMOVV0I5S1sAYTj/AH5mTZb33LbzBRZOoIOKmRvJC81n0HV0TL+2IYF5IPQt+lNGQ4CFZyjNJqXbvAUOU9pC8y0o2l5g0yhmUe9kw0KB9l/tBahQ5S8LO6jJfGP4jvstTM6xNtfNzISIvkkCi/8Amr9wYGrF9v6huY/9naxbHeZ8t1kvjj8MvisXYw4H9xCrS3vpMRtf1NQWmmvwTcMtHir/ADKDbT/Wc5Wjroit75PmKz4wvbf3DDHC7OJkj9kMy4O5+iYs6GJ2B+GXpxX9w6XKnsk4ifRTgdX+P6gpzIX3LjwbFv3MNaiTrPMpg/zMD5hiA8/9lVK4V+ZSXV91CrCmDetk4gc43b+oFYAMHtBAYVg4fERRdVyMa+IlIqtsQ23DHxB8ojvUr6WiL2N8B+5fMCkHnT8kx3Fga3EVB6MncI99MOMVWkQfhjFzBynhM5B942P3MjQzOlLIFCHsXdv+ShNrR0YTNNsR+ZZC+IPD4FR6F0Omks+vQ+4jYKyMF6RsUbKl5gj9wOupYPWcCgdWCduobXc5ti5SrBa+Jk0qjpCBWBmnP8AzIGlD7NvuVdnHNQyzC53BVU8sRU6xo/MVntR4JaZt/tDqZStf++Y6G83B2C31l5i0y1e4CWpAq3CZBFw8tx9SXeexKgt+kmVV0B9xbUUPGayW+WHZ4CfYP7hSzLC70fqdyAclcEA1wX2Et0dX2Ruw3WwCcByeLfIQa10Uc9xg4LqeuWfd2exLJyY8RjG9wD6mK3E/RLTeP4wAfP8Ap7TVsB/MP/pGIb64R7NzMe0F6ZavWCk6kQF6xStlv9pQe1ufiZQwYSrou73hIARoWSxg+GZiMHx6FW9TVXhy3xNvOAf48yqD6sLobZnNIU4Q73AGhLZpf2hpldO+fiUsfUgS9plTaxrtN1jHuicNVVZYGYiBgWXp24l8tXCo1McbYLlQ5+R2hnHYuXh+ptMCzXQH2yxC1Pdf7js9MYst+4A21L+pVW7a1AVRVrti+a2RVd30CiBsfbI6FKzsgZsuemEJz25DPXhleXiWSllnbZUo97NygMr7DSvFvFRNnm4IzC2MqyjMrKOgQUPqvtLZWu1L/QduZSqy9x27R8jh47zCUfaWih9Ql99GaGmiHq1bg+lZiAJkWqxQSxu3e8dLLvqVQq30j5FuCicFTH3wsEKbgxey/wC4h/gDKSrD+KCdyvtmUKjk78SotMQ0OQ1Z1X9xYBmKropY4cfqM1tnwVLoA0J8qXMC5VRWhkeXK5Y3d/8A7LDBsfHFf+QPyAp1AxaFfnWPJsA+IaIKVT4js3AE+pVaw5RZZ2vuSzjo/qfcZEtsuvMWotYzoEOG3Bh1frP/ABDWoGymmFFe2dQgC2zXfYiC2/xMCZHdypBSxG8vSYrV9ItLDUq0j2iNwKu3tr5lshWHe7/9ItqhZesLY+YEMFmHxfvFUKjhUPzbl8qC3KNeMINulQ90Ph+oJVnmrkH4jYDH3hGZEDb4pj5IJgb3WKQcK55wQSLo2KzGP7uZQNCimq/EXleKNrIu2+E3K6OH3lqcoFCLaHjpqU1yuqllFbI25k2pZxKomRGbdBnerhhgc3hiUR2MPLXD/qh7ygwoaDVY14jug/YEblgG6bdKIUGJhWHInSsx1RlkNsYw0xmJUmkLVN8v+xKFmkDZoa6x5lNNVUwlGtTog1Uz84LNRSwb6ytNdiou0wYxA9xeK7x8SjpvwmaO4OiLTRuS9szfoSqHlHz6IX0SCEyl8v1GDWV+glVTi77R2ow6xu2ocoZt+4fI+GAJeHxUqWQNIvvKrnOxzkx+rQzOh1W+64bt3D51BrdkbvlzCCB/4JZYuQkS82xe126Ja19sEecsn3DVxh5dpZfOXxKi9f0nzkAJzTfULdh+SAu7fiTEvLlMTNP3lWgY6YP7ZedC3vbMobefpG0Rq2t/qDICZTP5nPdWBuCckTn6gK1FVO3vN5rESrpvnc4Qs68WHYblXLozG31VcvptULaRK98EbeiDAmPZUtbZCvautQHCy1naMy2HLbQbRa0Pyia3F03ewjbxj2/vNFAB2kGq+Zjp3dHgXmAyOdL0wJqNwEcWYvF5nc7e1e8VYbsz0WVjUX4uogC1lYVXKyctVnjUZ3MkvPDuUqyn7i7BvPFzbLOQWM2+M56kdqv8QApeNH3NcIFsM3lhIaC7qo6BArLrOo3ixMjESLvNs4aeKc5OkYHhoswbjX2oKQN4OWD0RTBB/u5hOCF6Lg/iFVqWL5Lz23FLUAulTV15gyya7HtDxgumJsIYndxFhYVB0UREp9BLCeYi0ptXiC6d5eiqi7vv8TS7fkP/ACaO5LUGMnxmU88ZP2wmTmKjTWpUBeJ5Z1tcdQtoVDFyi/cNDdge0XiyADq1/qhGPBveIJzov3LrIEQEpUKbZ47oitdWCz3y4lDaMkwxGTcxKAo/Upbyq/ibH+MQUZTNliexfUF7H6JiYm/hApPSHS1Hsggmi11mw21AQK4rSN6YTcHGsSzPUYNWWeKMSZtR1bjzoEsq0fmEl46MBVOegmDBQ6tXURRYvfFMNJwwf57wBFCdSNiWnld/+4QgGnPRv+sWxhteDP8ADiPMX7OO2IX2VzBnWM/1GwrQ3ip9Rm0CwX7zGfTYTbx4gwALXhcQ2T9NbrinxL2LAUwNrd4xL+7I8HBKHDhQ3crtDoSjfBTjCF3OfRHeuf1EHttZvhqNe6A/eSlRcMVPUqsgqig7Sj5Ig5Oi6lN2OkD/ANmLiTTA2LbHfZYDGHWR5/J7neYzUQyC/NinEYSqS/JKts98xegGJn00QapBSqpVmKYsmyNQhvPK+pjtcFauo8pQpBkG5ASkbRL+fzNKOB0y/EDW5smqJdDmlabhReM1iWMYbpE6qj2Z/LM9mwJV/wB5i0VoTZAjIb/RZXLIN9MuU4J9TthlgmG1c1R/5MEMR/EUwHtbjhsIOgvMqvS+bhtOC5Z8sNf44maPiYZtSeYo+X6lDvgMB3QLXs/xjFJcAnTIrRtHIBx762g14HpA2ZxD8UDbSj5P+kYlfZMv4gEsPIboTiOrN9LP7m1if0qAoFOtB94/gophVB8F/qAFxu++RX6lQEryD6ilRRHH/wAERi/Vvu3FVLVQuZe8eJihBXDG+w5+8J0Kc3A24bP9xk8S5wrn7qmzGoRv/wC6iaw8b+IG4C5oW5Z8Mr08R3DlhDzd492npXA5VdJgnDbO8uUT6KwpX3upWE0Sm7wubl0kH/KfuPNP1p4oXE0wLVDNnB0lrwAwH2pBVi4SUHKfum+lNhgfzFOD0iFqTg4S/EbeO6XrglKls1vF/qO5rMIC8aTvES3DUAhsIJBoEul7YVFk8wbHJZzEuK3Blx6v4lSeZYKuBMUseU/EuN6f4i0XmoXFW8xvhn+BjOH2OMS4ZPSof84jsYbwQ7f7ia6OH9TnGh4mo/2oP5qSszWL8yvYvzNmcmGHgRP+akr/AHN1K77EOH/mpmrBWaOuf3KKebfUwzq6fhlEqx/iPEylXDTmXTvJvs/9RCK5VfqIYdK64jrYxwYJk8IPiDiUJO0QfiFn0mXOAdj+ouNLJHQ1coGZtRXFvKWJeqClEF2IOquAjVrTY05785l/kcZU8OYcYUBlxuOEETD4MoWQu5/pCo24bX2lybZRR8DrxEFGT3L7XDnaOjOL28QqcphqPlPKWjkwZd9OY0KBYgA7up1VZGin6hrTX+7QYDBPqYC0j4iVY6GG8pfzZmXeOAyzN6CF33gLO0EujT6JHvmhvmUy8nTNSbjh+IcE8agsSzKpsTb3mx3joQY5IQH+1DC/MWWP8fM0XTPx/wDPUpUAalCZdXozyifxMZvsszfdS5dUZqRsXmIEOK+5eDgVK+KoRQvSItHC8wHDygjerrFZVbQk8iLsMaU6TPmFGtslGhrgpXt1jhF/0cVEeJbOM4EOosz4hQFi6Ir8ZKPefXOuhUWJdnsZicVJzDoe8R8jkXbTnwBV9VehArPrTXaLRRMwXE46795eNaN5p+ArLqudSg12CJ3l0CedyU91GqCAJPevjQPLzM4CWqo8rqPSO8/sgL/3ibkB6I6ur2v6iDYMnAGB+JgI4xN1ABeqD9zMu93tAHdJYz1h+UtTdPBDKPVLs4A2HLvM0I+nEuJhq/tLH0DBMobhFpzOIlTaCYjs2xT50NzCXC+Y2+jcNjBbxUyOrGI4iVYX3dTXL/OvQDMLHqtOCVQp2mOky8lM6MM7wwp95WrB5ZqFpjyme0AOJcAJuxL+SzyylS5xFirMsXNOznlq1UMGD4YLQP1KKKHmBfAjyNy8O6OYWNBYvq6TSULczKAIB0HSJBLfUs6gwMLgYX76lqOoFvQ4iYZTVdUWiYyi3RDnK62e83MbYvUa9VmR5l0Oq6wi13TMKsVi4oq8955DFHx6FcOkH6QKKlTWGjA9H1IKvvAr04lRNbtDCjymi6Nk1C1+una9Jx0iI2NAVbK3PAlGoO0ISlyAtt7rekuyv5JlMF1mp/2Nkthp6YCChRqKITX/AMU0mA9WGmOOXE1xOkdlXtAHA98U2JGbPHw0vcellnHLB4BMZC8EI2Tp1NdpiTWhf+/oi84O8rKEe8z151z+IeRGbasaqYsvvKMw+R1uavtH7Ixovz1iNDxCi510iUzo9BYbh0l3U6kOmZmRHS/aJSe8YC2fZLB8CUK8TUOZQfENqVt7qD1SGv8A5C2wIaqHfmPVo0HcAu2olUTbSFRAKCIQTk2Gv93yxjVfMceKx4mBS0radO0tPEhRb3efxOaPKA/LcLbHW69fPm5RWiuy/AnRIy+kY344Z3qJSoGcizKVeMD8LcpG30Zhu3zLQo7WnHXlkFa590sLON4YZ/fF6ix7rqjC186ILdYu8Ok+Z/6UXM/dJctvGjUcybvSktYo7wqhSAem1/iIGcJe+PqPLTi9f6jlL6V3vZ5j8ypK1dYdZ9QqityWO7+0sbLs4X1BMEaD+iVcUYMSviU92+LnNxXEMdHllja/uFwfuR2YQXx9ytxcukj2hfMCfJFh6TCbBfSlr3FASNgtFtnabVc9+FxkVDvVhsR/lcpdczK4qzAhE9f6RIu6Cn8RCH0Glxy4gtYfqCuG/wAcS/7A0+YkHNBV8R6CeD+jRDB14zh84lzCQosX7Ecr8gm9a3MzbmCkQTRK6zYYr6MiYg14vD+pxZ4dpCXe/rYPFbiGW6w/kYaCqg7o+XUdqC13v3xOJJrAX3xA1gB6gL9kBEt1brbopCI82VfJExFJo4RtxWqnSxW6OtXFFp3TCnuFnzFiWwDO6pP7mXxAtfota+JYZi0kT3szOmYU/EUrzFVQA6H1mM+rZoXxYQqlfnfgvzDNjUtKc/0luNVkgvykO9lr+Rr7l48KqKv8M+3zHC42gJT+pSg1qJT4ZmTe8Ee70TVN886joL6Fyepx7RqYxWBjqDVxNtfTtdZTxysDvvUQWfDYHmniBhLltfNuItyewH/cQJqmjBO8V/pzKae3iNClgGVO9ME3tOQlZl9zmNju8xC7kTv7i5kYLBp7Q9WPQ/cZwh4LMpGL2I6uZUVjoMrJji8TjQ6mPzcF1nhqhGWqdqptoL7E8obV/EdaC45r7xFEQ4QX6jZSeDIPtCvX1rI+qYrAPWo71C1QlA6a4MXE9CVYHoy/uGs2c5nyKMzapxZR8wfB3mj9LannBKH+pZPOsC9YQXsFPDqlUbFYP7IMVWgmeUSiFXSOlj5q1/MWnDSCyde3mZYQoKn5B7QsQ6AJOwlsYShmnNh0ogqGyuL/ALexHRZ5/KQ8yvYIaiRzVL0ymLVHZ+6XCoNtVD5njo2fJcFtwB1H9ouvKxl/X+xFxVHID5dQOc2UWBqs594SWtdVLvKy/wDJXyMF7zwNM9f6gSrcAD7tWdds4mZKilcWC+Qg1FsyIeK31zcfOi0K2zNZmzshr4X44hxQqHAvfGF8WtbTa9lKmZs4F7gzMO6EgB2MQCbLtVXTf58znRpEe4oxrcECrugJYuhrUsSYF0D7K+CNFi9LD4KsJTQ6AWemauUBZMF3tnT5hAYs3D3t+IMyWgdOa5lefVT8Br4lyhtGEM9FJZe6HvbxLDYy1nxlDiay1g9d5jl4DRK+cQqtW2cWLa7QxBm25wbOxlNyPYRTF/KIO715MUw4c7p0YjuwGv3O5H6kN25cspBcywvzEGrlWxTyYrgjW1TVuuGj1pCm9JSX/FmokEdnM7YICoVc2Ud47z+jIwIB1ldb6wrtVp/HSVvsFQ7Oe8PVfGK/O3P1KL14AfFZiFvWdxwo/wCdogEF3FnslxGXgU9XlLl4zWPQWpsoZfCr/wDJSJCwz+VIUzHjibz14cdi8XaiBzo+80BNIe5Jr03CjY1Q/OGUA7sXCCj8TJlQEHHQjBkuhddIb9o5paDlvuF/5lyx/wA714mSTWlfvfKYeHlSnXlZbbC1+wCouTbd3EeINvTKXJ5M5T7xy5OtZmaxLZa6FRoBchvfYyipHX97CNalXHH/ADpKtA2KHsZlvTA0u/WlW97I4skwMrikPqAxnEhHUuTHmW+b+lRwkPsy9ICX5R4L+/iFKN8qOL/ZFZ+XhYvjeu0E0FS+FgYO8sKSrvt8uS19ZYqZttOcILRiiKm6e9k/UNLQYUdMXfuQlykt67bNwNRwA+8vwTjknFclqxMzBdffg2S5gRXTp/a46iqrA65yggCZoD5Uf9UuLDclt879oDQ9Acdl1HkgBMZsAdaK+oUTeUUPKizzKQHt7I1TmWe4Nh+zi5mRVoR+7jAs5eTcFEnEAfv0LWbPePWSqo294L3U8MTpn2lI0ntEpwrtUfMz1+4D5mf8zg2e8AwN95tnDrU0wHvAC7J1uM6xmujzj8x0seldGhwLgMbAx8i57MUgcLwPtUGKc5/wu5ashzVw9oZFSgs/JLhgosfhPzOCVOG+SiaUDaLB+EYuIDkvEmuP6fVF+Iml7N5fFa94PMu5kcvzAUQTIwGGkl/mVO6Rp1f2iAZpdp3xk+4QR1CDXS9v9UVtZASKlcW9sx5UlcRjz/EcpfyUr6v1EKETCehnJ/tTM2NLrvH0zADQuej2fqggTllBHZYGPMcsQocL3H5id4lpPlFeMzrgRQvwn5iJf9sv9qh20YrCB5VMbpzZ7bLx7QDpyNujtjcApovlb4wntl8RhxQq4bahd04OrxfV63L3DnTQdcjlEKEbKPw174gDzzXF4wDXxBV6CgFtUU/c4CAjZeiHyRU48S2znQYhTLco9XcqibUlKhK8i/G4lSjVJPJwBU8FqOyGd94IAvAj817RIrEEp+EC/MCvkD760qn4lyWmM97WL+YpuBFTPvc+b6QtYL3l0QfZHGygV+vJt6sAACx2N2N+viWZmdgdOPcXGtCKTFoyDeZUaAZGfj+pdzBWdruflE+bY7pBpfimMIJT8yXY8RlD7oWOeH2TFTqQQOlVBzTYAeKQKdRDr2q4IO64D1pYWdXKBXvbHKyGAX8eipuB2Qa6QUOzxHPLYxmGPkgEfnxKrt6Ep0jwWRyo+qgLs2TLt4IXqV7oB8j1hBZjJYzyo3UvzLHIexPm1iQXAxS31n8Qpkc4r7bQTkRp18IqcyG2F82IlyucIvm7X8TYSYRdHl+pjWKrI9bXYQAo/wCw8RyDAsNY7P8AaaqHIp178kUL7c7fQQhnX47fJUM3izXsefZcubZYsF6h0dIB/o7NkvMszS9pZUVOACjVbrERkSyR2145he33m3qaX7KhVU4L/wCnzC1nIiw923tKb1yG6G/7hhzs2fcGj2jkGvwOGiZ9GtKWH3ftB0XbaNfiofd1btZZ4d/cchfhTZoPO4Es9UrL0syIYlhv2xpQPmWSoisjfagPmdF2EqeaDa4KCq3Cn5dJRYaMlfKtPZcsADg4bca8+LgO9WUJhdNu0MWv1h3GKH394tXhuaJ0yx3heotfAQy+JWsbBSrnWRbpUfjoshX0MfebN1T0Z1msxcYgPOtnykTRMWyHtMO4R5y1QVprSxjsQcoKVV6NMXXiMteba6YP4lnMGAI73oe7ArRyKUO+g/4itvKqpfO5kwFa/vo7hJctGorexvtuCV3fX7jpc0mEs2/Ij8wlISr8vlTN+VSp26jT8xK7zIH4j9E2wgEvurTtzDB72zvY0x2s9D3Xx9R+5tqrsxQ+T2s+qlIx1ju+B9OPQ6DMw/5G9eiwfO+k72SvM8nvLTlYzN7oV0g9V94BZrHEGXkroTA+jCoRWFDUuy1ma9Rp+pfoPFw7Jh8VDg1TQPkwkpjmN2ins5YTNql7lJcAgnY/sIFCEEXHsSowJm7J0rLK4Pu+Pa7fqXKKv/ULczoK2NhFTp5gB8oweIOBcxl7gUgbiLyLT6fUp8yPYxm3vMzS8qEsLFN989pTz7QqOXDvMBQsrg+5X6lSsAhPcP6iM4zJ+MfldzMjTRmuuPpLNNkI/NnNUy5CqBpvtXHvMsA0V3z7GpUozhbfe/1HWzG8trrZMi5gvygW41Uc+AoNhe5BcSkXvkvUoi/QmO+v1c1BWgvwt/ukzlLC0ccpEbxgIWX0w/M2a4gGuN0/XvDIrjIHpb7wDOnQu6xsDGm783a5kbBgXGQrdpTLNlr8UVNhdJfnb8ShrIWbd4v8xJ6xvFpyPqHsiBVbvpa+dzPnlL9T/sF3bZt5zcV38wf7qK64J/iN1NwK08n0VEuwXnp2LWeZa6gAuzDhFFEtZ/kMXSsUz3Y+cxkCpVJ3aflcNEiH9uB8Ygc06xL3tWvaDoZGnz4tL/Uwvdo0/wC+SWFvYfxQMGxC2U4dxKjDr4l/Gs/KXjfAVh2qop7TYbZF7KuLcqKat97zLd4tKw9spmlrrj+9spKnmi/89BYzxwso5q2FWUi5t35gLPwlzsKlmeCLjtEzWzmD4XG4YUGuoxlwmKr3ncbWeIeOANGMc/Qtb6GifMdZxQ9HUqyq44J4+PuZQtsAKe0CQiUwa9he4lPmtD4LfmdAEsl8Imd6VHOkZZnNKMZelFna4D6drGsPZqAH64B2p1viZzlCFXzlL/8AgIF9xuWC2i9I9sH3uM2WZaHOO6CAIpS9cWCIEAWNhWb3HnNgZl4TSWXEg7xnNcJbPgsNHgEv0R6NFaEbj20BEu9ictefOTjGso5a5LdM5/ERcmErNXj9o5Y9BSr8VcOUTl8uxJjxLK2yvHGL9of1jCl18vMvewL8B3ys+ojDfKiNaBeT71fePFYUVb77OckvoBOrOqZalHBJbAHTZcMaCmbhfX9CG1EjaqauqT2PoxzVUTEmS0+tjD/sRhvBFYP2lLWhj8gfqVFSWA4bcIAAo47asyVnaf0XTJszR5MCPFgCK/bBwjQ0+es0/lRjPkGBrOFVzmglh39tASprj/R93Ly0VKGeBrssvQNCrFxzqYtZu8Y2r/sQO69Ec+49Y3iNpzLnIr6lfBsHH6ig9pSHN7s4jsl6d8grMAbRmHZVS8hOqMO+D8w826mE+LgkL1afriePm+BXnMfIYxQ39oHte34k/9oADAMBAAIAAwAAABCEa6vbADJICowrxiG2HWsCDLEzVLqJWrNLe0fItrOeXPppr+ZLTGEEE4jd+9Sk8TGedknj5fBH2FCp9qxMfINRJXR+kE2CYklnO3VLQZ1homFUStTNctGnEDSIjxdG2+7e9jfowyQUxAVYq7RimykO66qMfOPQEJsNf7zA5QEFNdUwuTVc84PSMxKy6SZZyPUxmHH1qaHM2xEfQHGuZxyT1YmBAi4mRa/wD9SuCltdT2qohAMa0AAjfcmWv/REx9L3gVHqYFVlIGpF2fSWGnNALq7j+6f6QcY8Yx86hzlpfWs3zSL3kJlIqK8A8r6apwT5vzqD6WSQuD72X9RkjvnPBNw3d/woBYDYPpryJ4CoLnb+FGOmPeQ2LYf1fsUPqVebv7+BPxsuWRkv1HFRy4bsFHeDDtku8SdzykdYk9U+almr35iD36W+D0zGHMQmQA8iDCHVpkuaRJyoWc8OzbqiThQbQXtsuaG/v9Fd/KxrIvijqnD5m2SbRZBG2vPlRGtaJPNGGWpymGKM7DJX/OvyfZZZJrRm8iiA02KUpre3pai1Qo56fHWe2cGjfbkPWwG3F6yTJ4+FBd21fHZ2y8TSRd/KWdwoeYhyJ/J9lfEIbCYpznxksAqeoIDSVt+ahl9PtppJkgGy/CAqU2aEpBrqZpcc+HyVyV7LM5Xj0RTxSgNH6U0TR4lvtIVQD+fIOeM3Syzk7v0xysQGw0U3aO7sbj+Pl2zGQF9MCiVTibhhw4gAGAAhRbvBtEmgDJ323wkbVLhaCbU1IQGn0KlmgcGS14AOcR38z9RHJXlnunQPyUdZ0DimAVxFctZVaQYd+b4VLVkkgbuhhzIsQVvqhH1x/hi7+7Vn5xfvk9D/APLU63IEpuQtO+4WZ7OE9o8iVOzuR+QRoQxMmFA/fyT1dWxDlBudlvpj+2VKTVjWqHZu4UvMzWBZeSw4JTaBR8uR10VSx4wNObZ8McBDzoqMzovLM/4y42Tx1ObBX7X88OYNu5HsNhd7x20SvI0Iq9KnLGc671Chn1KB8CzX7ixtJw2iBvT/AATPmk39akItd0tnMuBH64PMNEapGUWXV94/XeLYWzO1nbMY1EwmdKOn2QSL+8VHSyPIDSEQapb9+J2eFr6vf35g8QxmM7K2m45uByqgPmFClw3svTPX0O7sYqT34rnZIP/EACgRAQEBAAICAQMFAAMBAQAAAAEAESExEEFRIGFxgZGhscEw0fBA4f/aAAgBAwEBPxBH9pPjfecOXEuXq21a+gYseG+Nhji922/EfJ4wZucGWPIYNi0uLi0tIc2H0DOp33IU27f/ABkBy8DwE0htttus8gWNwbLbHgyEtt+eXFv/AMIAAHgJvgQ1DaQ27HHXgB/FthJaYECIFm0QrIJP6rh9k7g/X1b9KHkngIeQeAh4CEPAMNvg48BSDDDDHg8b9F/PP+wegD7SIdJi83w9n/ZNUeNtbXkIOuEuOPgQ8BCHgG3IhCEHxkLCkzWGGGGGPAOC9SlpOjLJpb3+Q/8AX5uBD+n8T4yoYazEMS58FD7czL97HgPgQhDyBhhhhhhhjIJZKHIZQ2ytbdbBDMPJxIfgQKxQMFpf0f8ALIOMueDYDyHtebav+r3IkckQntgdCHwxdBxvgeAYhCEIQnDtzDEGIQYZREQwwyFro/24I+319vmQL7FubX7/AKg1z5YLh8wcG5ii3Bofv/8Asa4Vj1WOPdjye7ikCRofLaa+4XA+gPIMMQhCbDEPAIMogwyhhhhhkKa8kaPTn94G/Ab9uYEQeiYifnLAc8PMnf0f3LO8XM1sar3abNPtcA+o0bKf3soPmHM9WIOycyrLciEIQYhBiDHgDDDDDKGGGG5TYgmF0+kO8HuMmvgy4EcYfpzIL2DLGvuP4sti6C5r2XBwzum32CIe0Z8ROtgV6IEX3Dml1ZIsiEFhhiDEIMMMMpQyhiGWOZMdbLs9w4Y9iG/BDP1duQb9+opy5ym82mCzN/BGu5JebH4nE+YzhDwWMmCZH+Ysy7fCrgVhiDDDDDDEGGGUMMMMQxB5i4UACcBBBjJ8EHJEA+bsvVoGuJaDzIC7vN+SeuLGX7Qj0yShxkpu/E3a7B1Z5jbqE5szbhc+BiLwKGUPgUMpQ37K2J6gCbHAdSArSgcwBrm2jjiDc5kBNyAanrfVqYB6s57gY0IXkl/Wv2yVgcYMtntH+LCDsifW6x4sYlngIMvApQyhnopzaPdpdLDMijTSxD3c+HVstpINpAWATACQmO8u+oX1aS52n4v9t3+LX9D/AHdT/wCLPBPA3O4N2S4DYdxBBtqzsM8gModlDHA8r+8JxV8Nr63+bSqmWmDBWs7C2V2NaT3EC3NBNu+EvM+B7jrweraX2uz8WdficYPiTG5SODYXpftFEh8pxaDD2V1/jr9LkQT4zf7sA/8Az7cxzs/WDx5n9HfwW1OPvuNa0+bMlDKGJuAujnuwYSi1ZdcxtgMXkIeeZAgrgNspPd3vfgjqOpY9WguT+L0faOCZL6P+bLuYBxBiC+f/AHcA6ElwmZEXf8Snj7z8fxadpaN2St205ffwWMMMoZsRzzuY7Rxt3LdoZweJqjq5RzJF/wAz56XbjOz3e46jqOp6m2Hu3dyzdgWZGSHuwXy7LhjYHqgHBO1x+Qb9ydthVftZc2GQNqUReZNAssLDmhjqQYy+C9WQK15kK2izu3m2G2MCOp68mzg6vwgey7ksjibOPBZA3uJT2Rccs/ACCLNZrb0lWt35PBMBvQjt8BH/ABvhs4ggj6A7rxrfAwvb/Evc9JSHMmQL14PoOYQyHjiPp292/XnhLOPAXSTnyGiX2JcuXUpyzpgy5zduZ45ljhIsh8L+wJd5gWDI0i708DMsdT34DfBZ5eLNsIgIMkghcJGxiMErascS9xX1auoJwXDjMEJBzISNiK9RI1LZw+Hu6SeMyPow8B4zYJdt7M7jHps2zJNtGy7MFyjFoepDqcyj82BwIxxhty7xZNxC4LOu7JOHi9Ozju18J7mAuNdieoGWMgjnqyPB4LrZ787kkPmW9LIl8OoW7u56WCRw+0hGHEO2Ge7dN7tYWssue9mW+7RrBxAXDki3I+RAy121sscgbnOoUOS22SS6/QBeZAeLRv1jO53K2pBGS5pmQe77nhZIFjweDjxjat+RybGOpYnoj5LflafcfOzZ8OMttWA4lNr7h3uceJNIeJU48Nk66n9o03WAzW+TYjux7g5YYMvVllhYX2s8Z4BhGe7JPJBZx4v0FhHC5eSHjPpPO3Fx427svUMEWLMni5vz9TvzxERHh8Bc2w2MW3fjPLfe08ZBc+/GkTFnHEGlw7tiR6bs2ZuX2ss4yy0v/8QAKBEBAAIBAwIHAQEBAQEAAAAAAQARIRAxQVFhcYGRobHB8NEg4fEw/9oACAECAQE/EFzZxCDlC/HOJcedFSpUqUgStFSomipUqVKNKSqOmmIy8XptLaBS0dtGK0VYE2IyNTaahFNFaK/2BUqVoSVG28ToojKSn/BYKSsf8ZUqoEqVK/8AoGipX+QqITKVKiRvpprN6ulRrUNsMztvtLI9tzmBoqVqBf8AgVKlSpRodB1FaKjCaVElRImiStE1KoLwol2EXVywMlJmVHjPD/GGdK0qEWlpbQyXK0U0JKlaFSpUSVEiSokqNINKlRNElQrHfb1IQnT+3iFe0qW+OZWD0eodnnwfWZX+3J4kNWSUHMHtY7MolEQLvr6tSpWiokYaRIxUSJE1TQwIkqMqVKAKQcPNxnBv9dP4w6huenlAfG3cqlZu8Qazgy/P9io8s+z7IPE9RDaKLzsHK9jdjfQCYXv4pmWYCiPIfDnmG3sckXsEOQp44jGvn60qVG0dZUqOhlZUSJE0JKlRIkqVK0PZDwx+fWZEsBd9Xp7esWNh8Bv7Jeg43O/WWnA+X/hG5G3yiXXZQviywMeT/mz+3l3gw9E532gkUDZtlc/93hDgStc3h+IVXgR1I+ASpOkLDsszPNrKlGiomhKjCRhIkYSJKiRJUSVEiSpUZJyl47bLBDJK7Af2NW7bV89WJeju129IJFbFm2PeIsZSF+8Dd19sQgN7+4JscYf/AGAR3DT2b/YmzR6Mziu4JRA28I1OFSu7eMvAP1BEvSpUqVoSJKlSokSJEiSoxvRIkSY40aXDORBiSRm3lcQBvlWzvcalzZe+P+RLKlVfqyIidhcd+0qT6Zndbz9/cCbLc2J5kezk7xOqLrBHUxLRFJ1MIHGIl1B0IWSpUqJElaIxIkqJHpEiRIkY6G1N1pmv/ILdlR3puK4bgU8Jg8KB34YGjJgXzfR7MWmJn124iBKMdzMoDugi7Ny195Uq4DAgXi5cwpHKCu8zncT+wGvLUZd31EHQZhFRGCbCOjEiaJEiSokSJokqMSoxiYYi1VR2hNvcRqHbIJkCojV2ibORT89I9UpXhE04UvSWUVWJjhlt5ipjaEMDcTpTf1BgdWWB6sFA7xOBqE3gCiLq1omiRIkSJEiRImJUSL2jA1i7eIkq0y0MKBplALHEojeWNSlecRVXAoJaDvtHlBxWCStTuQOH75jt0VCavhN38YlfjQRvCEDzlwi4MuLL/wAMSMYlRIkSJpRBxKcO1e9wAU+UdsRAqafmWibTY8woLwwBXbvCDJe7pm13iq9DulbnQM4SPqLfglROv0lY+58QvBe8uXLly4oSglBo7Ny5csY0ZliWMqJo6JKhyBr2lOYfCPgK9pQALTMDPWIAPGZaDAACmo0A8kIn779oqS6l8y4TdGEHMWU6ksq9qL9x8QyXU+oWL0E26I5SPUhBKOBIlKelYefXzYyHdZZfpMb9tmfOq+JtH9GbtnpK4qff6l4LG18xGVI1T7esYx0YxApEIskvZx0/ZmKY+2ILX1RNh6ZjDij4rcMoIixJUukGtCLmOGtFCUs7zCQUaw4Tv8QALZ91AAtaX5TA6sjnPbp+YPnPlC7h4vX0lBA2X7NTgHPPQjbkIH/YYhbfYePKDuhUXtxMkRrHH9i1qzYnbrtCgq3WeDetXRUqMKwUuA1raC6cTYo3IzFFtdqPsv3lzCiz09IlAK+b9xgLYJRrzjpdbxbizFmAwZh1UMC+YpXvLoYtQ2bZ/EHoyK9NvfeNsZw68dvGDts8u/auMe8w/M5evj+5httvHvfrDN93XnfnmFEGoA3T0gmEpDmUPH0uKRSXoDnoggsuti2sozzLt0CWTdbKhUGBCtoCYYDzBVcy5md4spcOLaU1vDC7hllZltSOr/cwhv8AZitmZEzMG2PCZqhQhqLOmi72W6VstmwQVCqgUUamouN5XLFe0eZtFjFlpd5Qs3G0jiDiDlhBw+EwRUfCUi7yi8QhMaV37TcSw+MoRUtKGbhIjsQI4QljnaDOf8scGYUu7hF2xmRXeXhipUylRbwJc2zCGLg0wXMUzQ/sTZ6GOJgGXvlMgjRhZJzRPhOplTDgJglXMsMVBvaN3jeLi9hBi4k384luM6XMVLcarZdtEO0wmHufyO98JQ+UuWFz91IcEHZDNRpiDm44LC0wlxW+T8SjTGnCPVhQdJfmUojDF3lXpmZSq4m4HaK5YFFQ6gKim1wbmRLgWoFV4mwfGUkcPGXheCUSfQe0MsPUihRAXESg6Qsv3WVDtAlvge8sB2+5lxvKmv27EuYIly7lnBoTQ5xLDMJBLREq6EJHFqIMRtqNgcXByILipYPSEFQUc1DtSPfWLgXwhItcf9OveKF2pz2huDvcwhSDlYXn8SpSOqEE3T0lKDpHMDEqHUxr4oS9cVm8YjnKlf7DKNiLmIwIwWXMWc0GNKiJwkWXCBPExUMtvCpcK8QIUSjByydKPWoDKeJk8OkAYDz/AHuxBBA7LWTHMYF3Oa/5GhNO+OeeWPLHTG3vNnE7Bl8BvFWyM6lI1tDLQaImhSsTCEzWO2xOcT2S0mEx0GApoRRlgr/BgwSwzCYZiIF4gus7pcBpZEhvMJlFW4ASgiJlHGDNEyCVAuEZmAqC9EN2I7iMj+SPEQUIYtirILLjLIPSN1QSoq4cmeHDpEF4Q3UDFfOFoZehRtA4EvZU6xAqVlMo3gbkpYRUSGIhMxTJxm8WWQelOAUsLMVN4jeIHWB2h0wHeGSYYSV2gkZXVBUZ2I4Z/e5NshSFLc7IswQg2MB3qO9iIrMvol0S2FDfQmCUjOIcM3S5vMsxLhnMKIZgyARlMton8f7OC4JalE2YjYXx5TKXVzoYgXEZGI8osJhMtQKEQzPFKorhYONoQ6bTEJc8SUOjE2mXp6/UTo/MKL4hRgD8wsYZnM6CWvRA2MSrn3ZSLcwbfH1Hilkv7Z3r3isL/ekH/wAH3G7P1EOJnsV5/wB+pmrwy0iN0Q4y+0KsR3Ji1ANq/vOCveBT/8QAJxABAQACAgIBBAIDAQEAAAAAAREAITFBUWFxEIGRobHB0eHw8SD/2gAIAQEAAT8QjllS6ENw9ZNCMBI88H3wOMOU+d5VPbPI6/eUtURbvX34xjeeqEPI3h+cUp8ZgsFPonrPg4DPg58HPhnDPh9SZUyZEyn3lZ8MQr7jFbzMfm5WQyPnBY4U4uIBir6yBwYA/wBYK4EmmcveP9tG5j378fyxKBU8dYzlqOSVtvOO1qEy50M3rEAAbMiVyRy17MRheTHfeT4znoyR/LJHl+M5TI36HPznPrHTvI5yacicZya1lyzG6TGMN3FmPrg4sy/GKyjjiesmI+Mj4xi5qGvD/jBlIFG+gDi+cIJIARuKSRuzyL1hpmFVLz9r+sk8Md/fl88YKl6sAB3N4bBkpxgYV25MDJk/+QkyZMnWTI5JkyOBiMmT6JkwHE1gmd4m8mBvHVysjPJlXjGmINZwK3rAuxBoOt5zZdYKOjD3i0wxrpMBLM4qYE8GHwJgDOQ5uOkzfBypM3FDfnLCH94JXCOnEDnDOdSYhJkOsAO8t6wXHBo8Zo0Yn6a8cemI4VkPGEnA2j4PHxgOm7IZMWnqZ6z/AE1Ca9WiZEBQzRO9Z8sjzjgx4fQHrI+c9MrzlYVlfRWVfoD6I3Jnw+iM+WT3kyOTJ71kyYk7+jsyOR84Ebcd5M0d7yKTZgfAnaZLA++IxSrliYbXnCMaOLkaYZ0uM75xMi3I8LlYW3GLL98dvBjL6xCo/jGNrcfbJay4jY3g9sHcS5qYu5jDnAOPLEcTfORMDA+Mj6w2wxtxiB5Dc784cBq08mDNNPnD6X2YY+zE9fRP/gTPszl1k+pPj/6Fwz7M+zKyZPj6Hwys4ZM+WBkyfGTIYMJ1mqXNmLXvD3eWVnxhVeO3vNK4ulneXgabrJd4EdYzZnJrHKzB7GUKWYU1cRtoYNPnKm2I6XF43NHDjJ7ZoypcRd3OucFu8YJd5y5wF3h8cPTD0wjCus9M+GTqYYrA9YDxnwysr6nDj6PhlZ6fT8c+OfH6lZWTKzh9HtlZ8MT1nwM+H0ViF4yGemTEJkys05zbj6E19LOcEPDJHj4wubC5SUnzjZm4guzCPEx81D74TUYMhXxhXWMmy5VfnNljFe1w8Pp085YwQ84dLmjblrznsywxd3Is5xdYOBHOfHD1+g9HCOsjDPwc+OR4wHAv0fBwvrPRnwcnpz4ZDxnwcrA8mGHM8ZPTkZ8c+OeGVnwwjDEyM4yeTOH0fDPhj6fQjnwzymTzkyMTWRyYjKzjAPeHnc2BXHaMPWVVUcYsSlMgbayzKcOLfom/pXFeMeP/AIV5yhz2ZeVhq4p5xdacrD2ydfQfL6OFwwHnD6g+hPnA8ZMnr6FjHPh/8Ces0yMmT1gecnvIyJ9AZMmfdkzh9EyZM+X0TPl9R+WTI5JjGJr6PliTTinOWujDKRXvE0PvihcBdYhldmsTn6kxHJreJiYmn6zn6XFlxbg1g0E1JLvkNn4ecXvLbogUuUlB69/ThZiVxGQoCQcOnpNDUKJSlJT/AN+kwKYfQNufqemfLDH4p/ORTUD9uTJk+iPnGuZ9HD6PliM2znnyxWK7cmTWfLI/Ryx0yYeGTxkxXOT3kyscT3nyz5ZMm8TePpkxI3HeC28YBFcPtcjnCOjOrEO+cecQ6yZMmJ6xNZMjkxIZ1nJ9JgzJwa4nZaoQloffAIQCX31It6t9mTDYjdJqwKwNTnACaR2HfXnBCBiGppvlpP8AGcEOeU6JaViFGbNXCUV/gAf4OGaXPvxnK8ZXj6DTf0A+vo0cB8Ypatff/wAh9mR8GT4yGTGAk2oH95MmsnX0R9Y4mJ9DijJ9FesViv8A4EyZHEc9MkxMdMmJjGJiHesoennF6ATEvG8QDUyOt4WusHLv8Zs1cA8YgwOR8ZMhj4YmTHJkyY4mM8KlAmB7DaiIEYqTnYCMt4R6Sj05YoX24xQok29lfpYwW0SVNh1/5MYgDYKq8PHD6flxdabzf5Nja2Vc87HF5YF13Rth8s4RsJBEeE3nwxfjDq45M98dOM48ZWHpnwyes+GfDPQz4Z2z4YF51/zk7CFR4vA+MPTJ6z4Z6ZHxiZw4z4ZD6fhnwzhxlY+macGVgeTEM9MnrJv6nwx9PomJ6xPviYHvHTvBWmFO8pPfOPTDJvIoRxUGBVJJ5ztt8MGKGAB1j0+kAeMed/SYn/xfv2MJtBqiRLW1tN9060CgzaI57p0mTdWGKjbPDZZm5DjaWOr2/GMXCtsaEj8uWRdQRsURuHrwj3oazc+x41dex1gHHRl+44fP2HwkA1Er/wC/fmNOtHyD37PZR858cc1M7XAg58cdPvnBwEzka9Y/vnwc+GRkYj6NQl6WIFPS5T0NYG0DZOVN9TNMhk6yZH0TImfBx8Mh4cmPaYjnwfoSGTWadZ7ZPTiZHE9OI4mtYrE9YmPhiaxLiTWT39HKhrFZvBBwfOKEMCExEAADFq7Zm6wwDmZZzmw44mJk+j4fSenHcg2BgL21BvzHjLx4C9hXQw4PPGRaGRkoey+MeIeMGrtCAJb6CqpnHZw5NXp7TugiUbrnN2SzDkKc+L1gzbwD5D2A8rdJ1lBWULyG+7SWCtO8IzUVCHs8Tp4YrS3Ld9hPSHyuKHVOEHzpp6i9DjqIilCRHwnI+s87rNL7zg3Ezv6PDB9YrRPyb/AbXDSiCCKxibPZTOKpjrxj6/T88Nebdhv/AH/cYxjhUpt+ZD8ma9DcErB18WPbdmIaRv1JccH1E9ZMMTPlkyfUn1JiMmuXJiZMTnJrExMmJLjjhMTJjiOTPlnoHxzm1EvjAOkyzMKu9GAMDmsGvo9/RiZHzih6kirU5DQq1I5eqJ720OgPZmycBUc1vcdiO3rFtTVw7fpd7Qd4anXFDGBC0oUBvB5yyQJBhmxXmWzQ6ydyikERTYnKUmbQhBlLnAOl5LrNSWHEoBBCt7AFdbi11p8oKB2tnvAldk34To90vExbdBHo8DRxqfZzjTJLvT8lf5DtMAREeE4c1us1c4Zwo0Pfy9B7dYcaiwkPMu+zidqREbvh0/WEbDiYKKkMujlt1huADGdPhOR9McdkzpheONjoP6ztqCu66dJ8c94K2mT1bpwEQHx3bkyE4/ufc164witQopyZxrv+smhQFnnFqDBajo88OOlMnvAPp0+cnvKyMw9scTExMlysrHycV3k+ibyZpjtSytYvjIYnjH2yYnvE5xjEuJMTnxiaxPWOHlnHQ5QMdYq/RWTPeLcT6OTHIfQ9tjz4LOsaferywBGkglKKyKgm7pnGhlY0vS6TGfODXd0myJ4Ber5wAmVmDEKl2YvDkT0+AYonQtps08Y5W9c2COUT5Hem5dy6G1IvCCXTzvLVN4AXgnfijyUHE5QGUYXAgSjsjNOa/UmwzZeAXaUg4iIrQHpC0zdTuYxfyKU+C1+BngZ5Og5+af8ADbg+mxH2x4fTHHz5w2w58TpBiugoJBZsmbzabX4vYBUsgkLt+uxBQXoaJPvjOr1GeGyHleNmEG3SJcuiat9cTnO+GGAUb0gzqzrAr+slhdYGxIp/n4wCi+EqNno1/OTc4YRaIcSprm21wlh0JqCpyu1sknLcSJVgHlu+Pd3gD4ktkF3LvX4bxxg8l46m7OVR6eejIWCKpUXV8Teusfh9E+jhkxPqR9Zw/wDgKue2ONM8sTeJhA3PKnz84yIseriXJj4YnrHCsTBkupiODWJkcTExNOJrExMmsTEyYneTExOTJgbHkukBmgsLWrkXvhOL6UgYJDEOMVqhCSU7jrlOeRyrl2Lqh8p2ARpFcLFpMeM+ToRN5GPyVICNhrSI9xwDskcUZ4noSs6Mp6oLZgBw0b2eesMkgyG40fFuo/bELjo1oFPJH5MFwFtBfMJqnHjeGoB/3pVoWhNgiONn8kxSYVEhUOZTN2deCHYst1jtMRBOJF/T1+a+cbSbyn1Tq9OvBhYScUjyjQ9i/bHNukJhGQXEVJbkqm4hgl8EH25u8gy8SI2MVQI9xeMCQQj2MulY0EsDjBFATBNFJFC7LGhZjrHQh4ODQQCGgAyFp5M24fcE4Ceo/nNQhpEeybxw0K8MBG011ya7y3gxQqNrt55qYLYYAKgaN8YgLlGkQwBD9a1dWYxygbgCeO/b/GThiRICeD1hJm1UcBo78uub8gVy0x2VPhJk9ZWT1m11kc9DI/Q+mPpies4cZwyfQm8neJvEMkxMTnH0x0hkxN7xOcTETE9YjMR3iOJvi4msTHS4OsrNDHvHRyfQmsTJzjo+pTPSlCRAdD99yRmHnZIopKBFQrF3o3bwG6DG7guRZNzQ7d4KyIuc3lNDBykyILNGWCY6pNNVwk7wS4G7BLYp1zj2S9UWHi7Jp7KYJXzQ7KPQKi5RA4cdWFLxtlW0UQd6MOlIw1Qhp0A6upcNGb+hKB8dD+TGABb2n3A35YuwhOCtzzSt36awfnYAFCXyimlozEpbsgQF7FXTa8BKC6s2C6Hw0ERyZ10nxDsfbp4M502sI2BGmgx8kWQk0ReSlMt7DVBEKd2cCSOaRh8hIVPU2+M4KGPXl6Da8b13C3D+HfGAOBUEe4a/zhYAyinEfvMecIzOIcJ18ZNgNTYHdJ48fGbuRlNQ8/zgY1JeOzJ1PHrBKu8VBvtrf2K8Z3iQa4Ak9g0O3CUN9DUekF1s3xfeJ9IwHgS9xU/H0Txcn5yecj3nwcRk/GRj6YjI4xwjETETIxDw/RN4mTWJ1iMjE55yYjeJjpkbwS4mJrE84nOPbExMTJic4mTExMm8mJ4yGGK4iU+zlfk+MXhRfPRybm+I+81JWQpADcEl4rtrWNcqjRKgGoCmpVBbEyrR1NhZsex4dtPjOhwhE0g9oC5aZsxynHOjhR7YbmlBAYEhGjSDkFT0ljhUTgCl9pzr+uUeUuiWNKQkQxCYol5AwhdWm9OjDGXLohQcbRtnB3iJYQArs32mc/OFCTah7a7Qi9YiQmokC7QQWndJlmZHQfhCB0V4i41MZRpbbdAIIwd434w2twgbPgL4cCw6+4/M4yb6oLj4O31cjH2qt3zz7KfGF/t5BTdSRMzh4+cPc2PGeAeMt4WVDr5+dv3yrkCH6SOFqTgTrKWVXnU8+tYRTaxHeQwAIv8AP53jge37RzX+k7zcE2EsXkvTtyECoEAE6lSrN671gN5EDjbv76+cI5Ajf9Nzjjn7+hPGQ8/RNY7Yx3jpkT3iYmRkMTE3iesTJic5GIfQmPLExrJMR3iYMTE1iUxEMTE05DeOmTExNZMTeJziZMmCkFednJwwdIPzh3dfGbT+mMHUlir88jrgfdxKgE3BTs5+ZzqjmmJ/6wGMmniSmKgyzIOAnNakm8HLhMkjoASI6bnIRu71ltU8LUBEG8csHcHIgiwzYrJMStC+KAIg2vKOawudLa3F3UazZxgt8MKgsligb2OhyV6zh7oIVA3QKjln3SgiVVoQK7VMncKTlGl3S+/zl7laTkApu7POJw7S69TsrnAQrQcp6sgmgfQ8F4MvhEUcUlQdEl4Gt4rWxWuCIZBw7LNyGhDKkug5Gt26uJNRCJ1iUNNBEHZzguex+JwBo/NMYXWYfbap92Db8mseqj+MRtyBUgXvFi2jb+8K4Jw9sFn3/rOui7FPVwqDQZyCYxphvoIuN2aKdwGzfxiv4Wb3eI9d6/GNBAE4EL/rJzjUnJf+OBzzbOCK/i5EDSG8Un6mLH+8Uc4ocdPofoT2Y8voTJkxMT6ExMTEtfoTExw7YnOJieMTExPWImPLExNZMTEwZ19XbMe8mJm85U8cpQOd633hRbl1KbIb2Cd8vOCq4Fe2gOGXTH1k76gYKFn5hjjoQlV9jn4QfnCWkpDs3s4+HXsx60PAiIgqdjtzNZ1cyTUtSOtKXRaGD9vkMHTFuJPI4LqnlAchCE4UBwNYJSrR2jIlmTyCXB0mWiQbvZHdNlzbhmD0SLraCfjcyWSENSr3WHicpGCIRsEN0DmXWQ7NpkA/ilmuRQ0TTF1cVAz0IkB+4+3WUHoPAiIpagfnBgfPSQ1IgbPuY0LVRBMcx6eeMalXYwa5OPRwfc/uGjmLwhB0EcvIfTPedf0XFQs6L7ofiOHlqNn5dH7jiFxbKQHUk7OusTP0AI+yqPmYIeZBsEl3gzFOQCwjf8ech5pKFY4dcMTpC/3klI1u8TnBJcQBdhCHnEISTSCggQ8SfbHtqh+4f4YddXjmRn7UwWIKLVaH8mIaoTri4aIDvOtLXJl0A9YxrWPwzh19Ct/Qhm2TE9ZMTxk854MTWTJifQHeJiYnODEce2JisRFxKuJ1iTExMTTgyGOHIRyYn03bRczKNRo0/eJQlwjIGfKynhhbdCu5U7cAaBsbG8N701fhwQi2mwujrrhjvjKL5jA1HzuDiDntNPJqnsT4wiK64oADSUvcm24Qm9w4AivJNC5ri2imITdggG9nZcolugMYAtnZbx3i8PLNcIC28C7ocZe3KkjQqEkwbES4eFBEkKUasrngswya8goShBXWibxooRnaVblWkSUdTD/TXK9IIgBXwzyhDM1KQt2lHPM9ZEo44B1yXa3+M697q0w3Q2fOCsqoZkZoD4i++MK4mdIWB1BZ8ubnvVljRMxooN4GJ5ZuRk5E1FKlcFyhJevyOGwEdawge1WlHhoH3M0lOhG8x4+xwl6yjQ3j5sr0MLd1OAfNw5iE4cIFFvxh6A2eAbiG+zrBpx1Gp8c9+Mb8Aid/PnKwbXHD7GUZKbsA0PkwM6101wBf1+MB25qgcD8z84QmMB5EcgBOpfkY8l8CXeQELCts9D3mwBMQe8dMh4xBusfTI4nr6EJj6ZMTHtMSGOE8mDxkx8sY6yeMpwc4nkxNawW5MHeDE5LgmriYmJrE85DrHWsTnJifS1LsDurV+ExGF6vl6LykUJsy6vzb5ENOhzxO8cxwjrQfysm5DZZCB2RQNjyeMRHAzaU25O9j8YsUYEQWwaGvtes5BvYDYHkb0/eSgtBAodR8mzrN7EeA012G32AQO8XlU30xLyY+h4MNhdBtMBo0VmgHgFfbcVYIFTnSm2mV1fjfy4Jv2Au0LPdmKVuwglo2ducj2/igjkwJQ50pjayfxQCBuycN2d5N04UggYiO3U3gxE8JgJdGJAhhULlfoEjoe+jGF6ANOrMWgGjT1iXU7TyAz44zlTnNQBYvm94E2SqJF+7fHKEnnAJqONQ1zjCCICwG5TXBOw0yCm66AgkJCtG6btmFBggNooakRmmKLIf30+wxmc2Vj5VT7hkbS4BPVFmR2aCnGnE+xjMz0fXe66dcHWIHJiChdsT+I4SCF+cBa+Sn2cJQI2tPc++LHZDTmazVdapqmn1dZCQc2m6fwfjLvZZzifYKHHeCE6dhcItJqnfv4zrx8LHDTn8YJAL4mQuJMmJrJ6xMSY4+zEx0yQxwmJMe8TEx+WbMdsVcTWJiacGJiYmTJDA2xN4nOTJia+hxK6A0Q8cdZeVCkQSltgBq/GXiqAkbIn2cAzVHqiqXhiePnCgya2w2J3PZfly5iW5H2gOGSW1aikfzgAL4KEjwj2affCsj5OC8TbfGLDbBTUBwmlEcMF8qDd7LEjxNmBTjXNImsjRYy+XLY2A8th5UBHNNYKmf6CBpKM7XNEZ5aEI09dOpokADFOCH4AGORgwjXl/4aEHtZRQGwd7vOCuIAlhgG23e+0w87Sa0JTR2Li4xgDWfeINqw6YDckGBGLAa7L84yPRu4QsRq23XePGYxmBGGlbxMNsskGSo2O29cc4J9EgYjpdO1MpeW4O7LY+F504O30Hd/wCn/ONQibF5wu0e8OQHUIW+MD4ztIXUlHI8iKYYLYhJClICKU7YaxxsyW+HjkTVO5uYgJuDST74++QzcRAX6cL40USOPk7zVk9zOnb85ZBtpqoK/gwgjW7Crv8AO3JkF+JCaw5C1daxCl3ijTedYVAL3HWVAUvIcY9uOzW8vy+S6uPnVOnlgiwO6WmED1dY8OtfQnvNnPux8smJvH2xMmDH6ExJg5wawYjiTE7MTeOJp1iYmJiaweMTExOcmTnI+MUjXD+R/mYpEyHEHoEW3bv3lb7NOVNv5cjfhM7gVjx5H5wCChoouk8wMdf0HZyK+R6+5kFQX0NpXPPeFAS0BwK1wGmYCCed6MU8OIwUATWzV7ecXZcmshokF5hloqgSFppIPW95aWaFjABetuQB9VsCa2gQdD3i1yJrBsQ7399D5wdAFHLoGOgDjgTH+UCFVozZeVvBoGoJKyDsY7Z1uFgSRXLXDqr6wKgEEg4EtUXDOMHn2emoTyTF8qcNCHaDOdBiZkcULFZVaVXMsxElZKe0RQs5UN47KAIxoHgXPb5x6XrjeiRTfHjLK6OS3WNNVJm8RYd/D9hx+0SW+d7/ABgDE4cWv6XG5wCyK0HTAGCi9U6JoT3gqIb3e+B5FOPO8TDVgvAI9AhomsS+yXlyOH02BnZlLAUXjn/Ga5NwliGFwCNPEQ/JcUVNNOmEGCcrpT/3FuFunGns6MtFz+sXzHtzYtDwFwKnykzdDNPnPTNOucIWYlpK5zP0JiYh3knWJ6xB+gkxBMTE1ifGJic2YnOTWJnJBxMTnJiXExMcJiaxMmJBWtILY64g4TQlgvXYG59k+McokB8Fh+MRZKgKrsp/G8M6om1qxv54wXRLSzURvb2ffK4id9QZ/rLQ/cJd7cbepie6SALBYGjbnd9YHDtoQ9LOcpxB+vAfuF98BalGQWnyj+XJIRi4tYOvPz1jPCQeaN7UCcuM2aulzv8A6cU/xNWBeQceE+MfiQByAZ11lCvRJ1w28SYdrYjStRHetnhxCkwrcCVsuhBiBboxk5ihUhDRhDSbnOcpVYU5ESTSynGIbDg2MpBoSFetTJk7xWt6FVFildZTGtQkAJKAMXNVsjIECI2vs5SYuDuywnA8zTtWaPOS6CIhtDPlvBwWhqAYMdDaYj90BwfQOz842FIuzSp5bjaqXHtTtHh++R7MfHoXhuTEtSnA0CQJxXEQQoakvpP4w1Fho8Q5nnO0Q4WGDAOG89n8GJKZCrpzdV9Q7DJBWvtwVF83AlNPvGhFPeJjDIrT4zRi/GsRbxgRZgjkd5txEZjpjpiGJrZkxDeJjyz0+oTE3iVdY8tGJMe2Jy4PGTnExN4nOITBghjjkzVamgBEMvLii9lvBBjvmf5xPEUSlE/i/jBTl5Om6dU9N+cDoLqIJ33FcSKkVm15p1o15xDAwpOoOxrloZoqvC9B50Yom+x3DgPxMcaJO7aBCFcTWyHegv8AeW16NpGcgt3JzzmrkgbQQnlnHvBNH0a2XhTnJ1BQxTo2a6eMikNKUEPIeGvOBoEiqLYe1h98TlrYBJZ585BIHSRDSdbuSgksCiqpyrrDZXHw8RwhP3rxkQpMkFINANwbW5MexBqjiIJl02s4B2kCaSq8P7bp+6S+43XJ8+8gUgZKJWEIRcqPmgTB6R2JXjnA7wAOESP2xXosI6CX2n5xGm2zGwJpEk3zvrFw2LAb6PGbcfO3gFOdXChIwFkdLlEKZbElQlOU43H5wbdgdCn3/wBYrXGvs4p+zHSKYlpxyCZoJRC3VUIwlMWweRCTrRx4IUiB4dLyY0SNuvKMltbg6MBH8ofDh2/GGlA7esDiZOchM246uOvGD4x3x65XrrO2tY+JxjdnjI6xQXHbjJ6xMTWeTE8YnOJiesGs9GfgxJrE5MSYmIYkuJziExMecdsTf0EF0laafHzijTgCdlqfH7zUb8KMutNJvq5CkAqnU6Rjdg6yOflRHJ8h+ctIwTK6h052EyySJwK0iTYb6MKMMLyLU0KzkxzII9JAN839MIOSGS8l745scfaq2EE05UozA1wl5Auw+y4JdAKFVAURNjhH2Y06AHYFwSJyGrqFw41ZOyCBIM56mE9LBGd3s+E77w3Cu2xg/liYL75QCgMjxzlUE2sDXesBFQEm4BukMIHekqVKbZeXAfG92l6CIQ03i52tooqKHL16xIQGkgMGV14ee8gmzPJBXYxOP3j11wKwYTw7PHeLSplhVIk4ADXWOH5Srx89YTGkRKDiveKaQjIgNhFfdxUE4WKXkm9M58/GHBtPZbo18bx550USBSvBDAIFo1Cml+HWBKl6dgDfC78XE/PATYBHosvzhn7nyjdNNV7PxlTDW10aJRr5wRkcdQaNUO0wgNFlQ7T24VC3YfkP7ylRYSdof1m8mzedP/ZgmLJTfM/tMYjnccnjHDeIhrH1x2xHjHXEVxG8ZcjgTiZUhzi+Mf4ZGMXBjFx5OTExMGC6xNY6OJreJpwYKYrHEn0C4kyZctXQIZpp0aMK7YIvCDn4ceh9zRkA+AyJ6AsmykeNzKDRUF3acN9H4yBUT6LddPJxPgy7K/AAEvFnH2YZyRK7AHHFxf8ACkQSjdIc2P784FHWptpddMoGKARUHoHAPmqt7QklA5u+NXBR3BUFInmfY7wi7BNwEFbraaOW3QTUvXzCC3244wqLEJgPSc5xgfxvfpuLp1krjivFINU0cmKTgBPjvGAedwbXz3qYY4gnjiH9Y1nxHOAlvlDjJGgqRrqEAXVnWIyTQagB0XrWa0KOuleNYsh0EdCHfHvEjKl9sOlxoTJBkNAd/wDoP2y8DL0xBO9BedfOL+6rpdBl1p7rvJHjtoxklJiAKgqTqS3b9hi0bwlbDTR2amIHZ54gsNZGuLiLI1bOiXosmSATGpC3VV541hhgYcYCBEh17rkBxwGmj+8J42I84+7SlawXTBNNIkxpIfvUxUl+/IscaWQ8oX94jxQvhH9ZCfRRiZmiJjzxy6478azdx24zblFhr4yrnIYyTEK5G44TNGskxG4mPLPwYOcSYl4zljhwOpiHGDmYmJzib1lTvKQL5EHADHD9y/y5yW/RDaNhVeCc+EMFxvdpU8DKHVw/7GBgKmjsu598InIcfmYDRbJIumu3z1xmupoBi0aDnx8uDotMN0o0+E9XBDkCltICmt61zxvFZ4pQPdnVOGtwJuwmoyXWaj3IhadM+feHKMKKMGFcIbo24SlltUnHrFK7/wB1HQ63omMUCQJpVvAk++VHRyiRmkbpi6KiaQUO0ujzjcLXUYIGiJOs1ZwScpd2yb4T74qEGH0IEB4eMRmtacKdhbZ1l2lJB1S2v+MJN6knMv8ApwVH0EE7D5MbQ4BzV/xMJtRQvbF1HZ2If3mm4pbY6L1knvTaaHk8ri0EsFxmstQJK3x8fvAklihPPnH7UZ2ob4bD8mBmPQFWAN7N7zSk1RtYiHmSPWGWFqlpi1OQ74cfY98RzEhtI6cq3CK+c57aT+H+M8TAfkX+cco7lfaYXk/sAw7yuXhWZ9jIOC6dqn+nJjiZyfoOQ/8AhXDN+LqzO10HaQMWB4lNhRV41tK/kJqeQ2ZyZazHazELT2YJdX1lG0fbF7m8XFSHl0YoWqclmC9ECKWgnnOvFYnWDrBk1jyxPOJzibwacTJiYjdGaEEFyJyc/wAMWtXRwO05NGFckbaRhRCLRI3vJCR9KYX9uMvBKpOOmnE8YUkepqsK4MJyOupyaelciYcrSobHEAx+F6g1yv2s8uTN7ZPDChd1YZF8CxhCHAlvHGNxa2UkUwSVW3rWRcWJbvb0U0X7ZrL1wCLJrRCdHLzgKRCozo8jbhH5UDuLF3DeDYDKKhQicB9nIaSUMe1b8OMj/sHcJXFBDyuPcU4wryIX3MJVOllBfsmL7mxEqyoi7zUlEQ8Gv1ijJAzdAfymdEb3rs/75wKKcIzsdnGIhQSasjf6mCsNe/6yJUCFB8evjImgNjpCb93DN23BgHKO3DnNBHj1jYYttqmtOuOfeNq0CLgdj8f9vAJW0l2bBn335uMkfhoUlpva/OEGFxI5B+/jHcBdkScomucmigeJrf8AZhtbgPbjLpATjXtiX4wWXAXxQmeZ4HwO46NAPwrKySueYWMcDKyes2eM58Y75XHZMJtgHbg28ALPyLQ+74WMwHb9XDsfJo6AwX6FgbRFG/8AnGILY2R/hX7MDVeiNCcjC0kN9441QZSlNj4blErHh3+jLZHRY+MsP/bVMwABF5ZPkVlMWcA+JuP3mg/Fno6mkgqlXDbHnymewFVahccQpCijYMRPJxiFKEc9PrA3EwS/Qd4mtGAmTBg7xOX6dj/StKQDoC155z0XURwQaN4SecO2xgFsdQQbC3VuCDWA0Au1BxjjLJ7vfINJSDxlA7ZLFg+8MhCXtgdnC65uCYT9eP7cHNq+akPlHkecaeBnEXoeKFycLLABt7DTCeLhFTw7gl5hrk46mUYN3wR493nNvdyqq/2YC8vDDBcF51DecBD6PRMHgIdNFQIeWew95DK5ACACKKNc8aw6oEGzFQA6LTnW5iueW+VhEtgy7xxbaN8gJ0LVw11wG2yKMAvGKiHLgNBPvMKHOoRBSrao+3jHmIZvCL2/cfvm4wwlmd995IZJb7N/6ymiadTESt4OLjIEqrl2z9Y72aJSnZ11hRYg/AtcUAhVCpJprUzV+AqJLv8AQ8bxJKGApu9nQFvPziyMI6o/o1984gP7sACHg/jEs2lhJ2nHi9YphpbH2/1gsejX2waiJF6hgk2BxRTtJ/WDalHxYYa0bX8Cf3lEaX7x/nGrX9Ypm7CJvKzjXO7bhWPKFn3mXU30ioiIR1wmOo9OkX6OPx7iXP0YdJB0w+CFPiocTnG6cgLw12lNr7GYOQyw8aBQVeGvgwC2bzpTWAp7hXxk61iO10ghG7crzjEZSIgBzFLEI6SBMEFuVDdqY1rx3i/T6ZIHzpmlo0efpxPuSKtHNxJAyKzi6OGk8cHOOGNhgLBERXW97ely0/SIE00PAA5OpvFbSeODSbVTjxikNF+lWFXLqXpucS+/IIOcW72AhAwttuQ+c5+sPMyMyY4msTecmTeJzic4N4T1EWCahp+MQ/7glqRCD1zc0KnAZ2XmbDTwYSFcqQVJObRTmYNcD5IaIzxnYY1+Gw6Ix2U2eXrB5vKHKIhQNbvxl2RXoAryPrxjwv0oqqA8nrDVCNBpnIu5y4bCJJxJsSb33zgHwB48g/3grGu+sAVUEXjQuI1Luu0q/LA/WPcmdZb/AKLcoxIwPaua2Q1F0k8k35MiisAOD15RK+4aCKu1G0AKalSPFXkw4ZRHHMI0/HeRu8PgDPtXBKQIxDFE6O8aRK1a1sh8XDnk5ESzHrGBIDuCP6csod6DrZXXPWKx1QbOn+8Y6PT+svOMA+yubDxVcBsL/LhwUJEl8TkKkODgi3CvStARAOWbwyldMiz/AKYjgaCgWvim/fnrIYtqBSgO+8O2WIByudc7zWTANeWnX+8kpuB17bgSrtaCrgE8HB426wJlUH4xtBRD8N4gAYMfVKB+F/rKtwT63iS0GT8/xQyv8j1UpivObGEcKZXS8g7A+TG9NKMWuKV207wENJsQ/Nv4wSMRCJwrSfZxyknAkGcUDCSxgHdVSqLyXeBAgZ3tTKCmMKHvAW4mNY56q5CcLHFKOku0oAiNHC8XJS+nVQMUBiQgHT20iW4vECQBAhy40VYwRDEk1EdNVWtClG5wiTWsLJiNwZeuPMAek88uKXVMTJ52b3d3raw3yFtL3N+MUSPkogQoWmKg+GUFzSUmNzaANBfWVF48CA0FQBC76M2zZRyASaQI61zMjQYwVBshV1pJ3iem8ARo7QuSd4N4mDf0ExOfoTWDWJcmIImaogcqcbXKhcjDYCUjrtOfWPSW0HkIoidU43nCrWvjDoTuXnAauhNPsj/2scrzQBYpNI+HrvEpHstLNqN73dHvFWMZVQoIKmxMKM9FhZyDX3hCoU1AroPE6w2Fck1jyeHhXNZQUIBlCMPDRMkouO9TU28UB7wiK57NGfcsCnyQrB34xC54E0W4IwyMaocb1DCjr8VdmvCYb2I9Na53C67xhlpwI0OwbwI6MGGTsUU7Gd4c6YTL2TgBWBAJhl8iUFK39c5o65Gk44+8OghyBSv43lRLo1+2PG3ry4EhpD77fxhuPIDjAg0SA1XiYDoDUPQsmJYEARR/OIpgWh/4mN3QEaF1Z4MHUSAhEDj7XjJua3WmiL6hqefWF0lS5pfnY5dhY0EC0H9YHc+Tt2TfV/JnMUIwILv/AHi6I71fJ9zEQ5T97cTV51YAjQOvQM2Kh+iTAjdhCehP7xihMPwmQeToO1f7M5XNT1S6+cKjamhCPAru8C4aLyFQHVH3y1+MB5oSGci5fRcCQXbRFTaAQw6xbsAzNdlJ072h1c1SjGINRnIu123B3SlgklbTfehcOsJYH6CLl0F9o9442Qs8CDdTZQH4gRiDvCJ6Ewsk73XibMrBaHFkdPJN1AgxBlShomizCRKxbrCHT3qnSNXMHYWQBZDj7ZMWTgCcDTV1edYxE8xuMVoWD0b5zV6834lRK68s8Zz5MATGa2hScMNgrux9Y1EU1DEgUobjCMRzou8AtcUiPuo5c+cgFiH6KIl4NTB24pCgsoGgvALFJjVc2Y+80Lg04mDXGA6wJiEyamI7x20YS9ax81/vKKwdr0BosQ4eN4hjfgwEAHYbeHK54C6F0tjo17ygJzYEwacndm3NDHSDUERpox0yTsyugKnf4w4LDq1Xn09Y71SJcnxz/wC4uuqCdQlIi8fbCagJZLCVEhU0smT4dI7AWQVt3NYoC1TrRbPib4xgiK1ZUUcG2mjjL6dDQXJR6m/ODpuIiYyVyo0G8sNpNJJ7DHDSqoIALahx9sDB74NikvtvAtwqdPhdOpzjMAlgAaQJKMe/4I/E5Bp1kWMT2lfJF15yYCZWWpK3bww7XCOwh1gEELdsPRfesSyrsvPAX+XEDTpfwphpQXPj/ZMQgukOeLjKomcx9mTZNYven+MOhPBLVvHWsIZsLKwafuUyfZBeRnhRE/PkxZ4xRYFWu/Dv4yZCi6FIDHX/AH6wl24oCmufTMBhquKO9fPHWcSFVflK4IpEQp/zjDgnitGfGDowFtSOXIpg5G1hjfAYqpq5wM1AqBE8XERggLEDJKBhL29YSSJhIGPsHG+tcLg++hgQ/tU+yT5QmtQUWFLoBxva6n0KG1TJDbTWmOKYUELhG0IJwd5OXoqCQohYDU4vDhJV2vrNAMIkdscS0oFeoU1BT4DEB8tthi5LeFvzgRshkS6Snp5DzhCTulC67CvAknrCbsi5VwUCtm2C270k47paA1But3vGZYDREzZwFQNpcYctekhJJ0E54wzTXdCICaggu4lcn1praTbPFN+D4MY4CB3RVyLoc4tnQR0lFZRXiY8J1BsoauVFAnfOKrcuKqbB0HzhBTNtJI5aEqRvjC9nCqgCAHTITjrJNbxK0o1ijBCkR1u1a1XK25rzUzHo84mK3gmQzSmTeBv6BA5WmRIJB6jzHIwsMDAtikk8cvOEQNPFStO5xl+CZhQAEpOrlWVQs7VS374gpTgQAKCgvOr98biQckBdj7xZo8woE2WHLsxeoGRpQOPzlDDGx4ToRNFzZ8axijXgK4g43nGs0BKLwx684CDcWYL2Cc+8Qo4GccLwvO5q4qvkCwQmjquMDgmsK0ARpPGsoKvIjXYChKkLvAPMIxqvkYYfEP2waPLSN5fqa0DyKjpyB6cOS+CQNQ8Lp4MDmBd2G3IN/fOM1wQSLemLHuRCYoK2/D+c7dsCaW9fcymWKNyHDLULJeFDEjbSePP7weFVwyt/8xFGiFU5cd9ZMDlpiw58ZVZaSzzx9jCAoRBNjIz5MIbAXZfAfHEwtk26UAPA2P75kVTGCgCaIvZWe741j0KDStAICYQBtGhrXjw6wCBqkuVde+LlbWesjuTuvP24w5RoNKOgn2TAt2IIurX3w1AIpKP+mEvgQECAqfjEKqyWq6/bItIu3dmMZmm1JwwT74viulqAIfu5zHBmGmeuSrtfWfE+W1AUJuJgMdjigkkgQJr5bkG7NAyNEvfZD1rK0ePywbBOzo8Zui1+eXkOjmGU2YMXRCGr3x57x1gotJI6wAmxqPbFeAbggjtvEfJrE4K9TKMEU2U4WLwYD7wvmP8AvCuOEE6V4/OIweJNMG/k4j0EzparDmikkNu8GuAi0MgbIvV3s1iohEXAuRt3W/8A15V4lKVhg5hA54pwjATtZHb8GX0XFQKynsWf05CLWB4qFOIl0BjPGNk/Ke82qSIXbBQ2YVI2+dKf8Hv1kkZokq43cOzvE8frIlj/ABnMgD0jja5IuIbFngfQVybyTg3k/YAkYodhB9jMJ+qFAyg6uxes1aA59g/1iwekMN+nEGgRFI3N6OMT4lKKXmOWqGOBez7Yd2gAsoLF08d5R6lI0Woq71y+8IGTVS4EetHvKsDjOJFY+LhBSA0IWB+F18YeS1tBKacek8Y4x5rHqsbgc5pZgN4A9GMO44gKC0IhRp6OnnFQhVQA9PswKcLylB5wRIKxCdiLh684Sq6T3E0EpesuDoFlKW2lshowuexEqCEeJzTnjJXjOKOEpw639ssYcFHbBMnnvAeTqNq3SLxccdA5uGAXqGFABKvGk/ThikdfH/axkgE5Cbb/ABhegBfa7YxV1C4N/wADHpDXjdv8YPrIF5aQPzg/SSjOe/8AzEEMh1PYMej3zvztcwiNOvbf99YFopGXfTn5wCj1IId1/PGXYQGgySX0+3xj24A12g6lUr1h6Ti6aAzQ68MmarGSaI5cwAmC2WCIgQ27dYpmyZdkcAx5e3feCakpQOgGU1b31vET4UQQLbkA63gONGWmKpQ28PMcpPqJ4MNPd5NmnzjADikE2+eu8g9W5d74PmMYlhhroX+MrwW9Rb5DdqAVMG92mwJvyjFbXjFfuZPl7IaI3VfWGWSeGYBA+UDEWZZgSCtQIaLorppwAUIYAFd3zSL7bopcXXgL4Jfi4YHtZopwFOCG9gOqhtAETy/6fGSAJb1QT5xUAAYIdoHMuWYqtsMXCqQ5G3zMnxQ5CSaEaKLhTT36IKCDaqvqbLJr9aIJ1tiYpzNoCG7V2BfGIIKCRGgrBxw5de8ETzr+82JlUYN8pLzrEJkXa5f+h/rAjpB4U9YqV4wJcUuDNF/Oa2l40/WJr2q0xYA8hmLVT7cQGBwXE8uPT+bCwB+Fjirvkdj9s7ofBlREjHdKlDfLY3FNKJ0aEkD20rtce+1l9uv7wg2jY++CWxVXmP8AbhYstgRqcXB1QOEg4PNdffFkMiQACM2WTNuNyGCFttH5LnFalaJN08ObbeksGg87VVu83hE5AgYJc/YyoVGc4GNNHQNz7GAluHw4ZST0FZBHvnG81pVs8zfGSbQMd8h/nNB5QEBdLHqeMe2SIllaF5uR7SEHINX1jykkkMJ4fhxKFF3aIuOJSuxKHrARo444k59v5w3SmR5VduDpWzKbF5xyBloGB1cW6WruCJrfPGPIa3LgmhmrzlpysRGxIk13hKvk0FX8Z98hkBW7G1+9+dZGPoQJVaJbrXNrvAIZTLt1E8FrINMekHCkBqvHX7yjAraAMkHwuHLCKTndDE1uYOgQDI7oU2upH1l5Q6APJy4b4mIn1Ic0CCMVeevtjTCwqyPTSJblIjJCpVHOTtXsZGoro3j0+JrbyYOZi12HDOeMjrnijrqNi93B4ogVCM5fjKqTb6/4uBSO71zf98MvC1NgK+FOctU74sMEPYuuTI5hNuvLqMpK5wTBI4k1UGmu+OjCA23ODW9quvGH3UlABvgUAxFAGrfQOvJcuIaEmaJAUkAbUBQVBYnKCotaGNAEbHpEEouT2EA4O4JjYqyXtEWa4zXTJqA20Aad4+B850ERTgTXzxlk71BEICyLSCzkXEWG+NPBKhO9/YRJdgNwtDgCfExbQuTco6Ptm6Q0Ma/8GALRozoKCq00xwwgHQnN+0T8zLYO3ki/rLiR0k/jFfTAjT95cvb1MVd/vFY/DF1gL0v2xDkPkxHN4s84EbQBrUp7RFdAQ29DzCU6ji+f94jGRCnzwxlDbQCTuPjIfEEFUrVnhOpgBLC2BfZ7yyk1oh9cc6wIaX5x0S5SXJjS0p54H3mx0eDvC8EvBazAHS4HZTucn+caPCk6nOCA6GoRj3ihqOHLvneC0YJZ8o398dVBZarA5aI1jhCEkWBVmCpeRQKJtkmElVBUjdu/GNFEK6UYp8/y+cVXws4qIn7pgRIqOCrf+OnHnJLGRma8Z0NoA/txC6nySr/jGQUqPGhyjKnHuV/WPKHKHpV/RgxNw6g0H84WqLWx2/vOhoJldF+NP6wQFx+geS6+3fOP0UpdbCznaD584T+IGieG+eP3llGWEIsenhOfnEgg3FBNb7/ziIBug1Js8cS+/WIg+WHIGDJgKRqhX+ceYEjxTePQV/ilD40YO8gjyDD7CyjVHOYLM5MJ8Yv/ADhJ0SOsKcaYfb+xwprVH3P9uUWjSvDf5MfQfOYr1y5eFuq6L9y+WLK2VAxCLDuIxSmQ8sejmQaRlVaO8IRAqsA8PbGqWRqiK2GnfjLEUEGpRF/ePZbFftX9YVjSJLKG/HF++MUC18Hgvvf5wSOPcC/Arqb1vzlsXRkUEgrxzXGWHZFtCbm+M7zUL3guxRtFdO8DicbK08cK/wBYNLQhd8f5Ms0EVA0pfF/bLuAkTxbjKECaaR/JiekOh6ST5V95hTiCQ9JP0mXNxXrFXgct1gnTK0PyHAaNBUSawB4fSywpdzX6c5r4BcMIL6v+sW/czlIJjol75DrLgXqCH+HBUINu3PE9YSEQMnXRnD6eMpSrwD1m7u5QClbgpFqdPWdxUYVJCch3xrjEM2g35xFvBOB4yyEAQwpq/vKrK6SmeffvIADHlHPj/ucXYE4S18TnnKyRp8YAbU20CzfR6wiyQE1ROgIL2rd5QIkh9SjiDzQIwoiOx/4xkopVdgX8uIjEJJpQviz7T3kRBk3J/Q/nEcxkXaCc+JgKSBDnlfv984GLIPfeBQQF1r1MF6KB/O8IikqgdBX9ZQxfP979YsQlHQUl90ftkkppXgUPxgIhYhyO0/J+cOipRuhuWskbzi6IRI6zeROjrmuNwFiWi5dVP2yZeSUqq76L17xjCisjb297x2IUy6CbHb2Pyd5PbVGbSD+rkZBVahpPsp83KqubUED9ftxbxkTi0P8AzrNyQKTsg/OIjFNT3P7XEvRTd8H++H7f6Z/ediyR8pxC9CDzuf5wHFX+tsd0CM+IG/xi3rRv/LnCZEZZyWvtvGTiI5XkBNbuapTAcQGq626b+GqokFQOqYeign27ZEakRiKf+M2ENxOBjH3vfvAkQNAj2nhy7yD2DYKGozhWneBdNB35Ci96Dbg2esjoea0s7nWPaE1AI0CcDgM2yePMz2lNDhMG0oFHW/D5P3jDXNoIHB1rDERbofOBK1zId4Hhvx5zYs0q4FD8g/GQvJyMaG/vl5bZg73kRlcCbuEg7hDPu4t6QuV0YK7FxltGFCswVGaeMqdoW5eXpiM8DDudIxpijEzhLzjCZO7E9zv4yOnfeEqDs94VRYPGJsvzhopOyLtPH94Cb3xofjBgEE7n9OJToeMCQZ8+M38A1dtcZO6VGJNeX8YgDiqR0863p7wUqEdS195CRNlmjyawSbRqItAZ83WK0JsmD25YvQYz1F94RFHTpK8mQJUpp3x3huzwYLNot5VJ+NZRtIh1tTx6ceomnxp+phbV/jL/AIw7FtVmnWQa4GJ1EP5wAQaTyA+0EwqIFXxYNxOYNXtV/iPviqckA6YD1NGUhbOo4AT+D9YF45yow+Bvg9ZSJ1Xoje4gnlxswI30P7ZxmRUhd6+wbxkMfrUThOkknWP1IoU4HB4eV9TDTQKgbNke+MELkn2Q+2yg9PvBqkl3EOB8/wCMgHP9EDfyGJ4uh79ftr8zCht0eaMP6cI/gR62Z7sMPY/6yO6id+Af6yOXant/xYaGwnj/AAVxrA/AK5/OT4APyFsBTK98k/RizIxJ0oERrbu5sAAEbBN1XjRNb3gYXL5I21iDoAzVrXjJBpUhwu5/vAHyjDXWj6blQPEvy/3wph1RRzE+f3iTb+k5I7r5dBjIGcHYvLe3XrLpZHkqry1x/ONEgVXK5fB6w1AuQVY9u/xiEq5ECPDf2zhRVfpxAsLGSip304OpOcamz+CPzjThDCoAyHD2ZV7aY4wFBr4yrCt69Y7T7bydRsqGpHquvlmcopZ0Cyy6fvTAmELwvBYB+81oKDiB9wDO1OrjmPybMS2oaFZfhrCEcE6GteNGCEXWwpLILYDZ11j6GSiwzmMjzj2yKQOvwocDujGTBqRV0FcKP4EACwyWIznZhGlURIj8ecoonx5x5bzrAO1PywrICdCJ73gAezApiNWnTw+OMBLQ2VyWeuNP5yQKtNz5fJjCMR9jWzGKBHe/nTiQMbMdXlBvUNvesUA6KMsFEO9I87yMOLa0YFNYK3Ol4erzOPtjKlOHQh7xu+0mRgkeURY/YxwRREkmmTEEIW9aH+MExw4TqV/Y4kk5TfdxaKDAvK61iwMQdHrZOsKijAsgunM1OZgLeyoDTeujAytOA0jvstxqiqFWrW+mH5xFmgFsYr88frxiIUeC7xX2ACAwEsRWBvRcPDAL62v+dYiwJL6Gnj/bFuVZPILE+bg3ANA1ES+ufvrGqAIgd7P++cpxec1ANHeq8juTjIej4J6TeCjgWpRCF9n9ZQYYXS7yeofOaGjO8A1fzmrUVNTKF10DqA5sAyQ9zebnX4jBLJPxCYcxp83hmCDyh9jBz0C/3xQSFTB7JtDKNtIANC/ap9s1NdM37XBiQl57d5rCmgeOf84SAtJ41xlgOQHuf4YVo2BvEU+ecULEjTf6b/rGHE2itnDzrjrA0kGgoJ8veQITLyBrnWjNxQYK14aesTB0bi995oKj/Hf9YNb1RQwmtGmuDN9wav1/kZogGEhigHBt8YMOf1ygIUWPS8JyMMGDYCyEI9odC8DjnIhxDk1DrIJ5IKQeOFgsiBW3lNVEcEG5GVIsIEqwBMVHyGNJbwkFbAp3gq7UzrrQRA9qeMHmbtQxARsZZ13kCSco4hU2hZXU6xxMKCY9BYwPUx6Is22i9Y0fdoNrkKrtWvXGISPFNx+THE0FpAIqrAAPBxkE2CaE/wBYrWFQRpZoA7u7wZXFo7jDTYeOYeZSiEkvipy/5xIm9E9ZThTTH74lGtsMU7s/zi4MuIKRM17G8QcercgXq5ub1jyMIeGer4wrkJMBA8dc6bXjBxrrIVPTZovJLq3ONWfY4pSbQRhsJVYECHFo/DvziBQx0quj0PnE5Y72HFdX5VAe1whHckIF7/n8OKPYKG+ecLFYGuA0Lp6xFAwBSaBoJwGUFqoHbL/3rHLLK30NP2/zmowr15N/nGGp4bxd/wB4NmAjGQ7QJUpx1gNSmwsf4MkXgvcpP4xatATjgf5ceoCNtINvXOadAUKDQT41+8MHilmkDjHAAQARTKXdKL+DNRAAeRIU8XGdKvEIzA3Za3xZgJEwoeSH/PeT6KWcqj7Df3jw0XbGX9B+MTBtfUqiEsm5rWCISgmhq7PvX6wPDKbCCP40xWKxBUFfnx6MUWgRI1jfw/jKuOxOY5/WCGCj8X+cTmAHtxO25Ic7P8ZdzT94M/jDMFDB6b/WAEvZs8qzeKc0Sim82UFwW8h+cNkUZFal5d+fPWcotd8r/wBM1NQsNPn+8uUKLE2sd6+MLR3IpSJTqXvzgqXXy24EvWBWcnCrS0+x19spigRrvbi24BCv2f3irQCg3NjvAYh7F1sz+QJ7cM9Q/nLgkk2c0QhPYecNMyHUUCvUT5TD7WhPJB82GQ9yV5UCoFV+VfOSOuATYAeKQ3jHg9UFqrvklu8NfTZgyjpXTFcwPDj3tn5YFELPNqf1g3xHkNIKdDgkuM0gLjpTXztOMPkcMCKCa4TesqcnbatLMCBQnUKpGaRiyeIYG/0YuZa2sCOQUYprvGFJkZIU6VyAZaJmipQELz7w/ld8r0ZJhmTZDcR1ajr8sZwOOgEUBnve8giyjr4vccE6XWBaEBkVdnsbyyjN0Ewm6bCHBXETmL6La/lNYzCkj30aXjlsvVzhpN4Awauhqgz3gRRLqHBpqBzA1hzGCw4Ccixjd+QaRdfI7KypyQYvJhGIlSYYQIdtG+duVXaUnrr8TC0CldtMGxs1xvszrGS/K97y+zSPIuUIuSKIW5FReKOLUAW30X+cQaUY0faC0wiUgo9mP5h98PGFW+tH+cMRvTu4kyjTYR/UyCZTW+If7xZwRf1f4wtAqAPxg/U++4A/eJ1RRy0f544G2KWNDWJPbkBIR/jEUxYqJgSc/SAg0W05xwQ3h2X/AJlxRiLLQHzyN+MKUvyh25pc0bDlgfDz9sdwqI7r/iY8AWpEaaeBO/C3HjkCUDs/vE03ENM0LOtkzR3DAtcBRT2QZLvF4FG9EDn5v5zcKAPb/wAZGnLQ1guP1iFqBLOmsoitL+GTP0ALYcNG6tbyyyIml37j/WdvbV7p/vGcQmnmJ+wyrjpsi9fWr5cMIOwHaVW+9YdKzXW9Eu2Gs7yJcscr4Gsg0iZffe5pGxAgjA6csaBQfgPnJLlz25x6804AcHxhco9zpP6w7pDRey5SOCG+MKmxEbnBeJfzhQE7suew1Zm+o1AjWdnJu/vIYSqdRbSCNudargSA0zg0p4DUdtPbk6sN2wH78YsE1aGDZvd5xob4Guo63SN/PJm2ptCon79zABlJ+CYwReBidJBhZ77xxOc7Lw48A10UNXCwGwwhDXXf25wyoMVTQA8DOHG2BPla2nttPvit2Svb/nYVzQ0uDJStCB7BftMZkZ/pDcGBOeTUEjMJo0EU41kmRWFKq418aEBXSBKC8Xf2wkFIDBFjuWVuiTIJbHu7fPrEsGwRDqgIDaVpowgWKpFJXadXacushyAo72UA671huYq53IAB+fDTJfECMVCBpbmeW8dOUFjo27sWvlw88iBoeYim9MmMcVAUELFvQ2N8mykXCR2wq6O9vVxqQRxSKE1BZxpppiVcVFiuOnxviZegadxA48GO331jfbIk4wB0Hy5og7wAV+Lx6DN79At8syiR/ONUgmoqDPwX74UOrn2P7ctC6Xn/AL1gki7/AJZ9zjAEWUTxx/nFWNI/UgxAYodcaR/EYUY3B+jKGFuDnbh42mE5IIfLgABaciMhjrnmZZgoxw7VfxiEVX3yv/fjOFIw5kxEzbSJ0nmuK1qr8Ktv2eciozLKVUnavLScvDhTYGsYHkyl6c/vNYxTBUR0hwvITzgOObWb7fe8cy72idMxoRI/wJmiB4gAePDrnNqg6UnZ6zR73guzQ++TjPme+PBCCDfTmfF8y1e8K8jk4KiYlIED+f8AHBoHK/y4qk2rCRdkPvIIBclmBSVqnf3x42F0mX0sXTn8ZQCvHWCKghuUjPtgCtuN2d95odo3F4xuxFdRjkIFnDGOwPM7AYH8EmEkeBrn4cY0NFWlscVs70dYqy2YrzOfImc7Qk2UB/OXyrHdgb/rBw7TbgUL+MwVQL5Ez5b+2GQQlEVGvTkbaraX7Q0n7Mnb4HIMPokhr1gl0UQsQrRRN6+7LRavKrFYKXei4I0K27s2hvWJohXXulo+P+cGgFEA2d9FhzfZzmhqwW0YroRa8nzi8M4UorDQVU1vpwRU2lHeChoUv5wEANSncUHAjrm84dAkL3DoIKnjW8hLBLxjsEu3VsesgQTmIro4JDfOveUlut8y6J3NnnI9uWdI0UACaTrERBymedANEXzkRLUtKVZTk+A/KpNXRsmMN4Hi9zHcQE0hNFjSHeiYfLG4UEQgFhiXzcr3SFUNEEWOhpJkBHKsBSI9AVa7eXBKaLndTQROb83SbLYcEWRmC9EJ4bId4MEBLDTyI89a1Mj0ZZSO6N0nLuzEg54HhSq+Vs5mQKWh5SQ7+HG9YjUIuWI88szYIumS7r/B+MhbEfHnEbbV1vnJZOYwGbRwzhXf4qObFqIZxaZIHDd8c43URH4p9tZsAJm+TWJAypoHnFQBAicB/diafi3rEspGKjqn9YoCA1e4MMjGxPt36zZaAEdnz49PX34tE5BIC/rHA3x9BqZEdA3lR+Cmsk91sU5OvvjQIwR5XebClKZvXSP7YJCMVvV4/OaNnDh8YoQSdne2KuqFfrC13Y7wgRsAnw5RAst+wwxXy/zgEMODOsbiD0mIOtdFwG0++8VMEkmDtDrWMmjts5/WOAczXtgNjyKYVI0w4Dz4y4L7YE4m3xSPx+uRGmsEA/U5CMZVF/xv0MdKti88v8PxljwQfJHXjZnmCUt3F+1jRYbHYJ140MmAQ0hP4KY4MDLKBtrP/bFJnCZa0U6nw1hOgtZAK4CN55wawjCATu+n7wK4qAuiwets33iZE0e2LEPhW8OZxw7DIgLsMnpEo41MdXSKYdIaBOcirjd8u9QfxgzGHPM9DrXIkU8lC3XrRxzMrWiO5/Yxjk5t81pB985nk4kk0af7ZCOFqKeAxvmYiyJJKRK0LTvvDSUZ4nzqaaXe+cgL9J9FUqwb50mO8SQFPJuo7hCPhx6StjBTZLwxjHAIzQkRgcAlWt60KQFWmDJU7QaFdqaNPMxRL4APPDB8+LmuK80EQNw8byZlL6j2BA9c5KrCB0UOfbCVqKE4iHnBBpLpuP6/ee7Zbt6xREqzWUQpBvkxmnKXj3kCKl198VCJAwmzsF9jLr6/beVIrsfAJ/eLFK3nD3Vlr3rBDSWfsn+cWkIIGB2kE3wYQdQD95ppJWcKj+8VgEACTU38TC4rQfGTMrdeZty/aAg8AH7r84DkkvBOAyUgFXnsyp6LhsfJ/LADgCYkwGanefgB/PNwDQKvLNvWbCf+3N1O/wCjjeZw6+zIRhgfTrExGZa6xg6/eMyHwsI0/JW8DEXqOMvapvJBP5CP9YZFCtnIg/IwZZKjl/mBxitQ6br/AJHCWrFl3F99veCwT9x/ycUzyL50YSYBfdb/AC407xAUQi98fjAVdOjbH/l9sihww5oL+8FCC2bof3gYETNhpwVd+gpfufGBglACfL1849jflwGKN64ac7wejgABS+KL/wCY2XAZx9vj/rChgBNWoxUvJDXOarCPwk0EXb65wF9B9upt++X5aT27fOUC8zVygm2a11KkeSKr1MfLBQ7IbyG9w7wHEr9gqnkR5gG5j2+5ICqigShZ7wQ9PBA0jT7nx6wQyTV7eqppqsAqszVhPWDW1ordo84UpIO5F4BK2+DDtZYaDDCOwUON7xyFMBDc5CH4M1iBFE9MW9k0L5wu540KChC8hbqBvBEUupOQokJoZkBIAu/e+m7MagOFcxmve3AdF0p2C4a2xW8ef+cfCf1f8YBHC94ulaj4wghoP/frHDvl/cyZF3ziETvzQphLprERDL5zhBprvOEDav7wSCEu+8U3Rr/1gIN65wdQCLM6iEOj0T+sUWEdMRjzzltPI4t1PtjXqnfyn+MguxD9YOM3CfnEuH/w5uoG9q5CnA1cWryHGGoBry40YIHE/uZK9dnHjEESFR50zQmH/wAr6+sM2ODONCfGATQxsCOUoDT7L/vCoskfn/Zx0w+GCNfrNedul6n+Mgsn6gMpKLI/Z/3lEKDf6xGld90QJ/OIRKB9oH+MgDIT+g/rH2YsjyRxglx0GCIv4w1QagTRvj49YIdwJyquOv4/d8hrxp1NZAhxRBa5HI9ODIZMGTx0B2AxKYovP0JoOCHGJvj1EfRAhE52OGsEzAMOPMPvmzi9kKj7eQLoYKqkQkag/jkeEeRTGJMyMHQBJQB45zfO8hTSm1A8poMcRCzAOlGz/wAxDqrGkYEIPyTCysR3lTVoyHRNBluOEJnARt/rzizPzoQFCBVAcG8E80TqC0hVbda5KzbhEY6tsHRXrsuHbbwSwc7gt/yw60khGcCa0U7rCABRh7TcQOh1U5HzMBxBQmrxufd+xhudANoP+WPctK8oxv8AjChAAMejD0iaXNnZXcuUHQvkPOLTetetwzaBD5wVnrAH8sIb3gwSzE4J1gZgjbI+M2p1RXjJlNripywVXZhCYaF8mDB82Gh7mCbDzXxiDIGA5hvHSGj2MiubE/GLqGwM2tbsnvA0yFdYYVxFrmY+l6/iYC1Rf4MUDwEO+TH2lHaOu+/8ZAVp4Az8uFaZb8GHH/ymGEMsFgVOHB1h7woSvIvWGierq9n+MCEj+jR/jHoJ0/LgWsmfrAR6mJNo1P8Avthrb+jGwq3A85PKDTfv/OHkHyHlyk82Dv8AxmidQWleJk2x1HO/PjLZ2DU85wGzQoBgksj3KDk64Lmp5qDbBOUI+7hHNOePzcbYQMOAOedhmgIQdJs387+ZjhnhIK4T05d4jSh43JmotdwzQPzlCitl3K3Bj0AMV8Pj95zxeXqtROt/nDSQ1pOCjn75IRMQnoVi/OBadFQ3dHBbr3XGKbVI9KZ3OXNMrxBSp2+PmYz26hi8JvX8zHkbuiJ5ft7xUcgmkfzy5JLka/GCxRJpw5n5mEEJqk7WuSLaGnrnOI87/GNPdv1nG6CPjJI6JgBsw7TJrJXJgriZNYIOCIeVyRAxNBicMg+huJ527aY254yhYAPv5wsjzmBxfWDCeSxsADt7wXBSwGrMLzdNJ6Ew4W0VTxRxtgIrW5enKL9BAOHgTzMHlO6ZTumuJ2XClXCmBoScqpz2mGEiAGywJ0+vOsoTWULPvwYoDRSN/wDtxLje0xwbxgTJg1JjIa3vKEsPJvFxIaGpvKZa6bxm3unbmt8AsMAWZUDZhIAWIX6YQivBP4MYHjsOXn/b694gzOg3ovzPx7zt3cU9o+06+ciqPJK+Ed+n74OwtU18/jBU1dKInxY5HTZ6B9xow6MAQKX54yN8RAh/NM6A65FXLRLrrYPjesdbnW4Xqh5A3xkEmKV9G6A0EDgweKSp2V7c/JEMwobAEMFKr8hPtjJOA11nKW2qR3zxhewBu7L98CMUVKpz84wRr0cHEgNNTeQ010XHJdANFuRLmEHob/WME1tXrEE5RPvcQga0/WRHfQe8WXoNZDfnHAy7vjOAw+k39ZDDZcDJu4nKu3L7Gu8I33kbykralAbNO+NPhwKIBtdH54yk5VIJORceTDSUmnmfG804w1KeNbXR3qaJCj0CJAmkOXt98jrcr21Kx0tm3izWPJSVYTmntAAHHeEkAq4JIIvUuzHcAJ1oixtXF4OJgQ8EFjVSGgglDfeKGFRMSmvK8M8znLhp2NUprzrbznLnAGfd7nL85F5c4D54LnkxzHAdM31btwWSHwPvvr3ximZ5dB8a5wNjDkYNXdP3xhnWjVh+ZM171Nud9GVwPph/CXEYpl4XCHchN/Obt3zP9DjwR2h1iyinPDGT/HxsMJqs/LkeebjqxIjTsT4sNZrNBYwXuhJ9stuBkgmzDjY5hR3X/lyHEARtS2o63hFOMbUvByLwbxtvDu4WoICnjoccZ0cTZrZo6eusFOGCqE0aNBTlOrhH2EnV4UCTmOrvL9ACiLyCiNvWC2FS4jUgQPGMDLDtX4Rf3ltiAESv+rl5YIAn8YKFopbH5QwXwGxCr8BJhwFbNpfeuc2EPjSNYonSMLw+rrKR1ngFnnnAx25484eQp846jNeLXDd9Dzcj0t5OpkmhGdWZTNobfOQBPFDOyXl3hwSbQeXCZAlZx3iC+0OnxgCk+tQPth4CSZ1ZcVqXkh3hmEl3Dw5rAOvrb1cgK6zaogqXYZ1mRM3/ABloAapPSWmAKFvz+A+luLCQr3o2s3T3lHTiQ+tHvEZPSN7vxvx0ZGEVZN6qOTjxlMpsdnXL33fGHBBFEwRaGka0mvjBsTHdh80J1wXAYMABFhoa31wu94BSnPnLR4nvjs24W1oEL43ofF1PvlAAi7E8qcTu7DCjO0UB08JHke85bwRa9+4fGcrKgtT1UHYJoG5qDTFewPJO06wxt2KHyfJ0onvH4yhqMQR0fO3fGAFXjs7JIY9ch55wtcevyQQAb+NWYAiUbEsgIhOws05Mk4JvyDhtdtkmXWoPxREdKfZ5RNOXYp6GEUnGbTQQrhbLcQaKjudZpQgkirs9HCHzMvhKllXlH3tdT0qcngoUKoNetnL3gicIPm7IIR43saZMA7WorwyF+B894VVXzJ6sIHm8fvDaT0tjUNeOwunccDj1ugu9LIPuF8ZAxRM0gifOtjxvnJpThQezJ5Dx3ky3gShxRiOxjXMcU5mRsB4dBN3WsLz92XhtCwU6vRgKQKoNspNvhvOEabG+ogkkbCpsjiikNByECBfKpXjHn3JNJoE/CLtLxnFsiqF6ETezgrrtSzUwFJsKrOhmu7s+T1dBQEBPjx73jWuXdWl71aJZHWQ0O6LSL0L4i+Ms4aYFbYUYvZ+V5wBF9494F2JrV07wGAaDRImtdf8AeMAti8oqcjAvMg9acJphwg8+uc33CAoH5u8gOUmkLy05nuYJSfFSPB0ZpG3xP4uKIsc/xDiBbLhmcASuZZicd26MIo775zja48/xmpVryMsMNyprCv4LrESUeTAgsSRXPM4y8GOTtfMzkmcBkPVDKKt7CR+QvzkkPJGN6QX5l1g1LRjXxqL+MhkLA7fhvnJ9GoUP8KC5bPIFYZKoUeClduOxAsy87ye7kmsCMJbsM+ckmgLW+RNjnv3cJOPN6Xjtdd2dzKx2D0rYdHKfvuxcE4ukRmzUYjo2QDRJ2mdcmPuQ9bmm43u1L7ynnCVpKO7h265nBgrOAos12UBzPvTjb0kI8eimOvm/jFEMFXzewofCmrx2opL7aClDaG598BuK7LEtQsNINi5DEFaRyqIl2VHXxCHhTAQsiLqNw1kfIOyjTC8DdHjFltCZDsBo+XXE7xReqAh4AUnEd+sA0JaUL2KU8Aam6ZMlbGgF1QqzXHP2MF/je1TaoJOtmIIzUMaRCGvjnzhkOSOLsLUi8rz1hhQmhjTXk811HHSQEdl4gdNdmI0LIAdRKTwfb2YxiWwWd1QZ0203zs80iJHSQ1xVeM5+7DYgWofDmGJHBGtARc3QtYrxjeulnUqJKJo2U1WEcIV4WgRKKD4BqYgFyQvF5AcqvLLANlFSruijku7imNBd2NCGxPkQCArNtLKpLo1AStCIm+MaqZSB0KRyOgTXDcUejA+iBQGwFnOlHJeJeirQgfT+I1YJeBQaLU6kRaOzWI5BMWIHoUZDlHZy2HgbCadnQDh0awwP05hDhqJp38ZEPqMAFRYUTybi4mLcDZHJA1GqIbMaNfIbXQAA+HhwPGUMm2KjQN0X3lfoqbTYqR40cOkXQCXQQltFXDU4xB4Cah+AiqpM076hk0B31l7fbcI74RpC0RNRsZ4bgYKANJliVfcd6Mo+J2BdoEBzTyHxBXSWU8JXjlwOYEkXxXfODr3xESvl/wC3j8qex4yowpxCGLj7ZdfGQDIAUt/jn7ZRO5fmPXxrNT2O2n84cajnRMdpTy6N4M3Z4XrF8resYQX5jH6PveRC38efxjwL9FciIh1yZaoU3VP67waOabomE0s9hzlvYkAH6xIQbWJfGq+Z8uBUBqtcE7BzzN63yVA9W1nglDxSe5gWJ4kmTcELzAmzHrADG22Jt63VfPWHQEaYub0pH1N6PeO598AoGoKVnz8YUV1AZqaSRD7GfvBWBsguAwFHHCk1iNPxSNbLw9wAaXN1Iu5l0A1ISgGB4xi+p0VDQc+dsAxVgyOecgjRDgMCBiG6NVSRHhN8HGTJLuo1NSXKCA6l3lohbCl5aGuhpkN4LRMCK5nDoPL54wKN4S0SlS2Lsq6veTaz2MgmuGjYdtpiIKFbsHkwZ1tLgBAgaXGFEW0QanRhr4KElEFDtFzqu8X5xRL0dvacU1+HVuGknQUr6hrdhlplN11dNcu4tPa4wHCxRVXgBHjR7WYZ2gBOnUPnHikV0XysF4Si9HdbpxaNuiGR4QLva6t1jioaE94DZry2OTDCAuDUQeOFOJghUpH+ZbBni3syz3bAkdhNoePYXABPeqF5pROu/A4snEoACwkd0ATuUyE/EcUodwHJtR7dtcySBnIa7RSk0F3lF0zrgoTEG8B1e8HgkQMN7AGtKJ5wMAA4RIGSgGNvfTtPQkAUBF1yA2i7zQeJkXStANB2mBdI8gEWGieVpvgw5EZjzyotuXXliYQ7Um60NXL9gEMfd1pQNMUlNk3xS497IhTaWbp58D2OFjoJyyLHjD/m9m60i8miESALG63jShAcrwHoK8TrdbRbsoTYPFoSb3gwC2epYKqJZCUTszvplDu1yNy2YdXGyToQRmzq8fOKCByXmIqK6KTnADvN4xoUNNV8IHC3smvpBsh96JSdOAgJaaMhAa15POI0ngajQAXdKHuFye7EnB5UJvYSOaORSwLEjSdD74w2w+4m3cqCnXPeP2VlFa0NIMFDIiy+Qk7rfFy65dQH0J/TGilxdCnjHI0CBr91p+slDDbi+I4rSAFPysV4yMEBh2xKIG5uF10P8cpjZTT4zQNd6sazoft/WaIgDzsVwu2l1O2auvU3XOVILbQ5P9YhEPmNa4u94bNRB6ee+MRBAi8X9mFAcwFB3qgn7xLERBGIBjfM1DneM9wD3ILUUsp8TNaAGh3yietIl+MdiGUhVCbC7TRuXtxt+5d89nwrrdzi44CHvddXku8557OeC0lY8LzibHlMicBKOh8ne7gQtayJ0oN2114084I2r4ra3c318wyWMz0DOHM7VHHWNznqoBtdgCCMhsHD860pogCgICHulcYwQA3QQ2d0aJGmVGIb5mwGttXDfJHCDLhOBIQ4AsAO8lHouBORsC2mzyBwCNAmXc9GqNjlwzuo2GrSj5uuz3gyZRU48NhzFF43szUN3y8BJRsA27sGD+R5YE2AvITbXagrCk2VUe0iQ74mBn4Lt0KgnBBS75uCZARoEgBofCbuKOMic27A3wAbnnLo8isCnNGi7XjXGbwdcfR4RHcofFcvuIRyCbjPBOeAxMVSzN2phqEB0ry8QywJw3z2G5aMixwZNBNwThD0fJ5BvecHtOuuuz7o48tSVYgrYewI08TLADCuNOjpFKrt5MrB2mCsaJrOQZDHbRGfoEm4+VRKuFlNXm8ihyAaSD2ZEZ3zoKnncEuNeqq4kNWw3Sx0bXFmPsbd0gocHNdUHOFJ0kpIRatMC+sIpArcQGFIo6hpxtILta9kog0oLZrCZGtnAta0F4R1A862cDh23bql6OXHsIogNKQ65DnZCtua+615u1XCZodrvN2M8vQXQRVIlJyMZCe5i5KdUA8xzTRVm03w3mpCRlwSzARNSFVOXEPrLQT7EwvPZDDhdtowb8VrWiA8iq3xjsemnIcqy+KeNjm4P9UBA1pgghvHaqC4trFAip2uw3k09AR4FCp3s384r4RkWAIWEdjo4elo7RucADnTAj6uOgSmQOQlpuqU4esP4B15mjkR2C73vjFmYUIA9Fr46JvebfoK7XlYdG9/bN+SgIC+5+94McUx5y3s0635XjLgNQQRcePHvKETwEvfGKU5e47yq2nhtwHbtxRMSuzbC6j+1cKbAXy3OBDa+d5yUIM24m5Hyq/Pdcvq5ylPlc3xEAHbzz4/7vAiGj0I+/nvHqh0vSeuvzjg4BIpTp5Na8Z2A166dKOf94KRVaxeNo3/ACBiPeUBK8EV7sEk33bJyXWHVQKSbEmoLlH8GtHJz/ym5s1ihQBGY00ooyPKxx+SzAqmgwJ5YMTyPEigIntBHe8RXCoJhokhLLzXvDoOCwok2AJsLr85o0RDisAQj3RFTfOWBuXFc6XyTZUdcXO3bBF7IMjsvHObtAhzCFEqlrU3MU0sXMJbzrUFifgS3zHRZAvkt9JzjrVgnA0rHPmfjCKRosFXQV86khMWK3aI6VY0nH28oHTG9kw0SOXN3ve7bDUIiqK9HB2lyhABNaW0kCmytAnOX8YTVRNB3HhLpJuyF6OZiAARKkpjdYmIkD8Pam7FxrLnKvu0N1uTj095tcglCSOxAlsHg1kmMKMBbt4vNkJmpyQAHZR+am2jGQNtC/KFXSityZZ6ryueQtarhA0BtQBoZ4VWcIacXkUYTkWgLel6wawGtC8CnihB+2XqWDWRTegKkqc6dZVvgvJbUA0chB3FxJf5rYcKgqIZEbiBSptNFCKay9JlCtRAIioARovFPdIWQChFXbYA5FxORdaCaNEiVKvHO9AaqKOCQkegOhlD0wKHlSNdKi8uGVG12zU9ikTZ3lmgrkUIBoTk2HUwUYDZuhWKl8LWACj1nFV3XkOzp1jYSMoKgTgBBoJhXSRKhrFS7dcCV3RJQGOhTb5JXohhL8AgUFJvBRp1GsUKoEmgHj5dt5T5xUXIPOyoI82tG8XYU8JYaFAI3e17w0SIjzNBby8Ib8pkA2qymwIPoNdCd4I1N0Vdg7HYnkmbEBjOylEQgrHW8sjqQtwI50RNccZGQqMnkWi3t0V1jUrQccUkOqbt53gQDYMZ3wTynhe8hq+1v6lN97wEfpQQ2lPD2mbBUaBy68Y5f5+ha9Yl3vGIFCOJpwaGwdHDHsl54hlBGS+MsKB6L9+sUQdO1XNRDepnMbpz/rNV6EeVfP8ArKQAIRtD0k38YM2DYYI+cepzXZu/vJ8YYhr1ov5wM0wLyesiG8JcVXvfL7wsQEDrhB1z53g2WQkbKVLlk5O8BAiL4aJd5deWvGSJkQx7UB7CvHeQXWdSSaCffnk5yKilGhyAfwUOo7wx2zjHfFF57njPdgkfgk28MktwaXAMFQ0KVNtuC21w83aNEixGlx1OlZp5hUm04+cWCDjxPI0+S8bxIMCUrtgQYbLdzrDJwAVlGMBN6vjAa2L3SNBGzcHnHolHg4OQroDbR4wdGFQUQEDwSisYqXAyLQ3gaVdbdVwo/vKgaKt7lB6xT0QoI8dUJE9m3FAKO6mpQhTUaK7c0TESOAW5OoFXxvRqfnpCdGKBiW11vJv8hFsqW07kXFV4wvVSXWcKIpRhUgnd400uK80dU1jYRGlampAd21YM6xU+4IJzUA4gLp1jRiluU2CvdFD+sYXSqjtFDs578YoU6qByBEmvfyOOGX81UiwFKVIXkYJWPY0SoIhOAUWq5NTzYZrk8GHLrHPZERXICDNF/hkW/wDFzYWHWg+QNGdZR0mq1G18tYaZsEpEnQ4CDOq8bBmaVEEARp54dNTe82I0wIL0BOqBuc4MpVFsIVXo0Dg2mQlJpEUsBTrk3aYl6nfoRATe4fA1wFnKBmtvCBdCfnJdwmDPDt55Hkb0YG0kIs0HADgg0bSZVigI3Jr5oCO+zxm1yh8hVLX0DXrBzKwco0gR2KBOyYqnRWRuzYJVJOdjgHX1sTW0R0Gn2c45Lj2pIgddUduOco1IFNZQqaQPJADB3EyUTlMc5sSAV5wocqsB3QUUiyTjJPWy5ao0pR50Z1cVsSpJZ3ajbsBfuApWCBVVGR48+DBVnIb0bB82nxExU7i4jSKofFh5wKsdbOQIU0betc4ojpgAd0QNG97mBUj7CLALjXk74wnfI9YEiSHzv1lQKAa3tpM8Av4xDpHtU8giPA4c4WAIII7HvOACMnVcXyHBrGrIgAkwGx0vT8YI52vTIatR6cSL9gOcpJrh/e8mYrwL/wC5IAnFX9YKKbyBuffLLoeRfxxMsSi4NRnz7MqB6IYWLFmu5zgqV0aAUunXGsC2E0YDrvWOwY2+hRbmiROhwamwENKtQDhHfeNRsJptCSrrkrimmGxHetAfjWaJrcCmjsva307yH/p0DQKhqHLzkRUiBckQNToPGDV2jTa1QfG9vGawJQanFEA2j571UV1JiaDrwOrxrDsFuhiDDA7QE94CsPsQ7NQ1O06wQ6lNlVYCWyAmucYL7of4PQSEBNrwaicw4bWyGi89znKviA1uIL8IP+bwv96ACiBRixkhlDFHiUh4AjTh+2DJdCmB2AtE47voz1c8IibI5gOrzxNjQEWVEDta1q94oQSoIHRYeOXfzly0AbluhA1p061xjsNc+dhgjrTR1iFoOCho0kTlfWMeNtADfJQse2sTIJQKlBBpJ47xuXlMndXXBr0++KTooDGruLG9a94LSx2bSqgXTrcvrEEQYw4bRachx0ZVebbYtQdS9LMGIXFF4G1ZtTcYZotgValUHTR0/GQeXsZXQXV7XxrWGCAHkXZoWMEu64SXhCQdCI3dWd3GR/UBfa0s4t8jlAQFWHSzc5VHjWESsEMj0TsXf9uIniQEPmxN9aJ1h6DiUCAIVrdZcKkXRIowXoeJlg/5jUpSBo3X4zUuQKzdC0bgMOnRAvCSELtsak4ytd2scnITe678YnToVabI3bsnrWa0UViVSV868fOP6dA1JSWwnCwWUR22wKkJaL2uABAHUbB3ntYasNYYvN8hdAKICu97wMFEgIouucQ73/OsyRp4Kw0t2wOZVuuW6F4555KnA9ESUKI9ouO0mGKZW3Qt0zTh57zdYdOGPDJ0PPfWLbV2xZtLvj/bKgZfW6QiQ1qvtu8reL6fELOfMHN7qqFAONXYWtrhLHuCFquh+DAqsabEPlD9Z//Z;" vertex="1" parent="1">
          <mxGeometry x="68" y="356.66" width="125" height="83.33" as="geometry" />
        </mxCell>
        <mxCell id="FbD6uWz_3IArERq_xoOW-7" style="edgeStyle=orthogonalEdgeStyle;rounded=0;orthogonalLoop=1;jettySize=auto;html=1;entryX=0;entryY=0.5;entryDx=0;entryDy=0;" edge="1" parent="1" source="FbD6uWz_3IArERq_xoOW-4" target="FbD6uWz_3IArERq_xoOW-6">
          <mxGeometry relative="1" as="geometry" />
        </mxCell>
        <mxCell id="FbD6uWz_3IArERq_xoOW-4" value="" style="html=1;verticalLabelPosition=bottom;align=center;labelBackgroundColor=#ffffff;verticalAlign=top;strokeWidth=2;strokeColor=#0080F0;shadow=0;dashed=0;shape=mxgraph.ios7.icons.looking_glass;" vertex="1" parent="1">
          <mxGeometry x="223" y="383.33" width="30" height="30" as="geometry" />
        </mxCell>
        <mxCell id="FbD6uWz_3IArERq_xoOW-5" style="edgeStyle=orthogonalEdgeStyle;rounded=0;orthogonalLoop=1;jettySize=auto;html=1;entryX=-0.045;entryY=0.52;entryDx=0;entryDy=0;entryPerimeter=0;" edge="1" parent="1" source="FbD6uWz_3IArERq_xoOW-3" target="FbD6uWz_3IArERq_xoOW-4">
          <mxGeometry relative="1" as="geometry" />
        </mxCell>
        <mxCell id="FbD6uWz_3IArERq_xoOW-8" style="edgeStyle=orthogonalEdgeStyle;rounded=0;orthogonalLoop=1;jettySize=auto;html=1;entryX=0;entryY=0.5;entryDx=0;entryDy=0;" edge="1" parent="1" source="FbD6uWz_3IArERq_xoOW-6" target="FbD6uWz_3IArERq_xoOW-1">
          <mxGeometry relative="1" as="geometry" />
        </mxCell>
        <mxCell id="FbD6uWz_3IArERq_xoOW-9" style="edgeStyle=orthogonalEdgeStyle;rounded=0;orthogonalLoop=1;jettySize=auto;html=1;entryX=0;entryY=0.5;entryDx=0;entryDy=0;" edge="1" parent="1" source="FbD6uWz_3IArERq_xoOW-6" target="FbD6uWz_3IArERq_xoOW-2">
          <mxGeometry relative="1" as="geometry" />
        </mxCell>
        <mxCell id="FbD6uWz_3IArERq_xoOW-6" value="" style="shape=image;verticalLabelPosition=bottom;labelBackgroundColor=default;verticalAlign=top;aspect=fixed;imageAspect=0;image=https://www.webopedia.com/wp-content/uploads/1996/09/byte.png;" vertex="1" parent="1">
          <mxGeometry x="280" y="371.16" width="54.33" height="54.33" as="geometry" />
        </mxCell>
        <mxCell id="FbD6uWz_3IArERq_xoOW-15" style="edgeStyle=orthogonalEdgeStyle;rounded=0;orthogonalLoop=1;jettySize=auto;html=1;exitX=1;exitY=0.5;exitDx=0;exitDy=0;entryX=0;entryY=0.5;entryDx=0;entryDy=0;" edge="1" parent="1" source="FbD6uWz_3IArERq_xoOW-10" target="FbD6uWz_3IArERq_xoOW-14">
          <mxGeometry relative="1" as="geometry" />
        </mxCell>
        <mxCell id="FbD6uWz_3IArERq_xoOW-10" value="" style="shape=image;verticalLabelPosition=bottom;labelBackgroundColor=default;verticalAlign=top;aspect=fixed;imageAspect=0;image=https://upload.wikimedia.org/wikipedia/commons/thumb/8/88/Logistic-curve.svg/1200px-Logistic-curve.svg.png;" vertex="1" parent="1">
          <mxGeometry x="442.4" y="361.25" width="116.64" height="77.75" as="geometry" />
        </mxCell>
        <mxCell id="FbD6uWz_3IArERq_xoOW-16" style="edgeStyle=orthogonalEdgeStyle;rounded=0;orthogonalLoop=1;jettySize=auto;html=1;entryX=0.5;entryY=0;entryDx=0;entryDy=0;" edge="1" parent="1" source="FbD6uWz_3IArERq_xoOW-13" target="FbD6uWz_3IArERq_xoOW-14">
          <mxGeometry relative="1" as="geometry" />
        </mxCell>
        <mxCell id="FbD6uWz_3IArERq_xoOW-13" value="bookings&lt;div&gt;suppliers&lt;/div&gt;" style="shape=datastore;whiteSpace=wrap;html=1;" vertex="1" parent="1">
          <mxGeometry x="595" y="270" width="60" height="60" as="geometry" />
        </mxCell>
        <mxCell id="FbD6uWz_3IArERq_xoOW-17" style="edgeStyle=orthogonalEdgeStyle;rounded=0;orthogonalLoop=1;jettySize=auto;html=1;entryX=0.5;entryY=1;entryDx=0;entryDy=0;" edge="1" parent="1" source="FbD6uWz_3IArERq_xoOW-14" target="FbD6uWz_3IArERq_xoOW-13">
          <mxGeometry relative="1" as="geometry">
            <mxPoint x="690" y="330" as="targetPoint" />
          </mxGeometry>
        </mxCell>
        <mxCell id="FbD6uWz_3IArERq_xoOW-19" style="edgeStyle=orthogonalEdgeStyle;rounded=0;orthogonalLoop=1;jettySize=auto;html=1;entryX=0.5;entryY=0;entryDx=0;entryDy=0;" edge="1" parent="1" source="FbD6uWz_3IArERq_xoOW-14" target="FbD6uWz_3IArERq_xoOW-18">
          <mxGeometry relative="1" as="geometry" />
        </mxCell>
        <mxCell id="FbD6uWz_3IArERq_xoOW-25" style="edgeStyle=orthogonalEdgeStyle;rounded=0;orthogonalLoop=1;jettySize=auto;html=1;exitX=1;exitY=0.5;exitDx=0;exitDy=0;entryX=0;entryY=0.5;entryDx=0;entryDy=0;" edge="1" parent="1" source="FbD6uWz_3IArERq_xoOW-14" target="FbD6uWz_3IArERq_xoOW-24">
          <mxGeometry relative="1" as="geometry" />
        </mxCell>
        <mxCell id="FbD6uWz_3IArERq_xoOW-14" value="Hotel&amp;nbsp;&lt;div&gt;Information&lt;/div&gt;" style="shape=process;whiteSpace=wrap;html=1;backgroundOutline=1;" vertex="1" parent="1">
          <mxGeometry x="580" y="369.12" width="90" height="60" as="geometry" />
        </mxCell>
        <mxCell id="FbD6uWz_3IArERq_xoOW-20" style="edgeStyle=orthogonalEdgeStyle;rounded=0;orthogonalLoop=1;jettySize=auto;html=1;entryX=0.5;entryY=1;entryDx=0;entryDy=0;" edge="1" parent="1" source="FbD6uWz_3IArERq_xoOW-18" target="FbD6uWz_3IArERq_xoOW-14">
          <mxGeometry relative="1" as="geometry">
            <mxPoint x="640" y="430" as="targetPoint" />
          </mxGeometry>
        </mxCell>
        <mxCell id="FbD6uWz_3IArERq_xoOW-18" value="" style="shape=image;verticalLabelPosition=bottom;labelBackgroundColor=default;verticalAlign=top;aspect=fixed;imageAspect=0;image=https://uxwing.com/wp-content/themes/uxwing/download/brands-and-social-media/perplexity-ai-icon.png;" vertex="1" parent="1">
          <mxGeometry x="599" y="470" width="52" height="52" as="geometry" />
        </mxCell>
        <mxCell id="FbD6uWz_3IArERq_xoOW-21" value="" style="shape=umlActor;verticalLabelPosition=bottom;verticalAlign=top;html=1;outlineConnect=0;" vertex="1" parent="1">
          <mxGeometry x="20" y="420" width="30" height="60" as="geometry" />
        </mxCell>
        <mxCell id="FbD6uWz_3IArERq_xoOW-26" style="edgeStyle=orthogonalEdgeStyle;rounded=0;orthogonalLoop=1;jettySize=auto;html=1;" edge="1" parent="1" source="FbD6uWz_3IArERq_xoOW-24" target="FbD6uWz_3IArERq_xoOW-21">
          <mxGeometry relative="1" as="geometry">
            <Array as="points">
              <mxPoint x="745" y="540" />
              <mxPoint x="35" y="540" />
            </Array>
          </mxGeometry>
        </mxCell>
        <mxCell id="FbD6uWz_3IArERq_xoOW-24" value="" style="shape=image;verticalLabelPosition=bottom;labelBackgroundColor=default;verticalAlign=top;aspect=fixed;imageAspect=0;image=https://freepnglogo.com/images/all_img/1702059841openai-icon-png.png;" vertex="1" parent="1">
          <mxGeometry x="714" y="368.12" width="62.7" height="63.66" as="geometry" />
        </mxCell>
        <mxCell id="FbD6uWz_3IArERq_xoOW-27" value="" style="endArrow=classic;html=1;rounded=0;entryX=-0.016;entryY=0.511;entryDx=0;entryDy=0;entryPerimeter=0;" edge="1" parent="1" source="FbD6uWz_3IArERq_xoOW-21" target="FbD6uWz_3IArERq_xoOW-3">
          <mxGeometry width="50" height="50" relative="1" as="geometry">
            <mxPoint x="150" y="510" as="sourcePoint" />
            <mxPoint x="200" y="460" as="targetPoint" />
          </mxGeometry>
        </mxCell>
        <mxCell id="FbD6uWz_3IArERq_xoOW-28" value="" style="shape=image;verticalLabelPosition=bottom;labelBackgroundColor=default;verticalAlign=top;aspect=fixed;imageAspect=0;image=https://seeklogo.com/images/P/pinecone-icon-logo-AF8B5B7F96-seeklogo.com.png;" vertex="1" parent="1">
          <mxGeometry x="250" y="235.00000000000003" width="53.4" height="60" as="geometry" />
        </mxCell>
        <mxCell id="FbD6uWz_3IArERq_xoOW-32" style="edgeStyle=orthogonalEdgeStyle;rounded=0;orthogonalLoop=1;jettySize=auto;html=1;entryX=0;entryY=0.5;entryDx=0;entryDy=0;" edge="1" parent="1" source="FbD6uWz_3IArERq_xoOW-29" target="FbD6uWz_3IArERq_xoOW-31">
          <mxGeometry relative="1" as="geometry" />
        </mxCell>
        <mxCell id="FbD6uWz_3IArERq_xoOW-29" value="" style="sketch=0;outlineConnect=0;fontColor=#232F3E;gradientColor=none;fillColor=#E7157B;strokeColor=none;dashed=0;verticalLabelPosition=bottom;verticalAlign=top;align=center;html=1;fontSize=12;fontStyle=0;aspect=fixed;pointerEvents=1;shape=mxgraph.aws4.documents;" vertex="1" parent="1">
          <mxGeometry x="65" y="226" width="64" height="78" as="geometry" />
        </mxCell>
        <mxCell id="FbD6uWz_3IArERq_xoOW-33" style="edgeStyle=orthogonalEdgeStyle;rounded=0;orthogonalLoop=1;jettySize=auto;html=1;entryX=0;entryY=0.5;entryDx=0;entryDy=0;" edge="1" parent="1" source="FbD6uWz_3IArERq_xoOW-31" target="FbD6uWz_3IArERq_xoOW-28">
          <mxGeometry relative="1" as="geometry" />
        </mxCell>
        <mxCell id="FbD6uWz_3IArERq_xoOW-31" value="" style="shape=image;verticalLabelPosition=bottom;labelBackgroundColor=default;verticalAlign=top;aspect=fixed;imageAspect=0;image=data:image/png,iVBORw0KGgoAAAANSUhEUgAAANQAAAFACAYAAADEXlL5AAAMS2lDQ1BJQ0MgUHJvZmlsZQAASImVVwdYU8kWnltSIQQIREBK6E0QqQGkhNACSC+CqIQkQCgxJgQVO7qo4NpFBCu6CqLYVkAWG+qqK4tidy2LBYWVdbFgV96EALrsK9+bfDPz558z/5xz7twyANA7+FJpLqoJQJ4kXxYbEsCamJzCInUBNfijARdgwxfIpZzo6AgAy1D/9/LmBkCU/VUHpdY/x/9r0RKK5AIAkGiI04VyQR7EPwKANwuksnwAiFLIm8/IlyrxOoh1ZNBBiKuVOFOFm5U4XYUvD9jEx3IhfgwAWZ3Pl2UCoNELeVaBIBPq0GG0wEkiFEsg9ofYNy9vmhDiBRDbQBu4Jl2pz07/Rifzb5rpw5p8fuYwVsUyUMiBYrk0lz/r/0zH/y55uYqhNaxhVc+ShcYqY4Z5e5wzLVyJ1SF+J0mPjIJYGwAUFwsH7JWYmaUITVDZozYCORfmDDAhHi/PjeMN8rFCfmA4xIYQZ0hyIyMGbYoyxMFKG5g/tFycz4uHWA/iapE8KG7Q5qRsWuzQujcyZFzOIN/Flw34oNT/oshJ4Kj0Me0sEW9QH3MszIpPgpgKcWCBODESYg2II+U5ceGDNqmFWdzIIRuZIlYZiwXEMpEkJEClj5VlyIJjB+335MmHYsdOZol5kYP4Sn5WfKgqV9hjAX/AfxgL1iuScBKGdETyiRFDsQhFgUGq2HGySJIQp+JxPWl+QKxqLm4nzY0etMcDRLkhSt4M4nh5QdzQ3IJ8uDlV+nixND86XuUnXpHND4tW+YMfABGACwIBCyhgTQfTQDYQt/U09MB/qpFgwAcykAlEwGGQGZqRNDAigW0cKAR/QiQC8uF5AQOjIlAA+c8jWCUnHuZUrQPIGBxTquSAJxDngXCQC/8rBpQkwx4kgseQEf/DIz6sAhhDLqzK8X/PD7FfGQ5kIgYZxdCKLPqQJTGIGEgMJQYTbXED3Bf3xiNg6w+rM87GPYfi+GpPeEJoJzwkXCd0EG5PFRfJRng5AXRA/eDB/KR/mx/cCmq64QG4D1SHyjgTNwAOuCtch4P7wZXdIMsd9FuZFdYI7b9F8M0VGrSjOFFQyiiKP8Vm5EwNOw23YRVlrr/Nj8rX9OF8c4dHRq7P/Sb7QtiHj7TElmKHsXPYKewC1ow1ABZ2AmvEWrFjSjy84x4P7Lih1WIH/MmBOiP3zNcrq8yk3KnWqdvpk2osXzQzX3kzcqdJZ8nEmVn5LA58Y4hYPInAcQzL2cnZFQDl+0f1eHsVM/BeQZitX7lFvwPgc6K/v/+nr1zYCQAOesBHwtGvnA0bvlrUADh/VKCQFag4XNkQ4JODDu8+fWAMzIENjMcZuANv4A+CQBiIAvEgGUyB3mfBfS4DM8AcsBAUg1KwCqwHFWAr2AGqwT5wCDSAZnAK/AwugsvgOrgDd08neAZ6wRvwEUEQEkJDGIg+YoJYIvaIM8JGfJEgJAKJRZKRNCQTkSAKZA6yCClF1iAVyHakBjmIHEVOIReQduQ28gDpRl4iH1AMVUd1UCPUCh2LslEOGo7Go5PRTHQ6WoguRleg5WgVuhetR0+hF9HraAf6DO3DAKaGMTFTzAFjY1wsCkvBMjAZNg8rwcqwKqwOa4LX+SrWgfVg73EizsBZuAPcwaF4Ai7Ap+Pz8OV4BV6N1+Nn8Kv4A7wX/0KgEQwJ9gQvAo8wkZBJmEEoJpQRdhGOEM7Ce6mT8IZIJDKJ1kQPeC8mE7OJs4nLiZuJ+4knie3ER8Q+EomkT7In+ZCiSHxSPqmYtJG0l3SCdIXUSXpHViObkJ3JweQUsoRcRC4j7yEfJ18hPyV/pGhSLClelCiKkDKLspKyk9JEuUTppHykalGtqT7UeGo2dSG1nFpHPUu9S32lpqZmpuapFqMmVlugVq52QO282gO19+ra6nbqXPVUdYX6CvXd6ifVb6u/otFoVjR/Wgotn7aCVkM7TbtPe6fB0HDU4GkINeZrVGrUa1zReE6n0C3pHPoUeiG9jH6Yfoneo0nRtNLkavI152lWah7VvKnZp8XQGqcVpZWntVxrj9YFrS5tkraVdpC2UHux9g7t09qPGBjDnMFlCBiLGDsZZxmdOkQdax2eTrZOqc4+nTadXl1tXVfdRN2ZupW6x3Q7mBjTislj5jJXMg8xbzA/jDIaxRklGrVsVN2oK6Pe6o3W89cT6ZXo7de7rvdBn6UfpJ+jv1q/Qf+eAW5gZxBjMMNgi8FZg57ROqO9RwtGl4w+NPo3Q9TQzjDWcLbhDsNWwz4jY6MQI6nRRqPTRj3GTGN/42zjdcbHjbtNGCa+JmKTdSYnTP5g6bI4rFxWOesMq9fU0DTUVGG63bTN9KOZtVmCWZHZfrN75lRztnmG+TrzFvNeCxOLCRZzLGotfrOkWLItsyw3WJ6zfGtlbZVktcSqwarLWs+aZ11oXWt914Zm42cz3abK5pot0ZZtm2O72fayHWrnZpdlV2l3yR61d7cX22+2bx9DGOM5RjKmasxNB3UHjkOBQ63DA0emY4RjkWOD4/OxFmNTxq4ee27sFyc3p1ynnU53xmmPCxtXNK5p3EtnO2eBc6XzNReaS7DLfJdGlxeu9q4i1y2ut9wYbhPclri1uH1293CXude5d3tYeKR5bPK4ydZhR7OXs897EjwDPOd7Nnu+93L3yvc65PWXt4N3jvce767x1uNF43eOf+Rj5sP32e7T4cvyTfPd5tvhZ+rH96vye+hv7i/03+X/lGPLyebs5TwPcAqQBRwJeMv14s7lngzEAkMCSwLbgrSDEoIqgu4HmwVnBtcG94a4hcwOORlKCA0PXR16k2fEE/BqeL1hHmFzw86Eq4fHhVeEP4ywi5BFNE1AJ4RNWDvhbqRlpCSyIQpE8aLWRt2Lto6eHv1TDDEmOqYy5knsuNg5sefiGHFT4/bEvYkPiF8ZfyfBJkGR0JJIT0xNrEl8mxSYtCapY+LYiXMnXkw2SBYnN6aQUhJTdqX0TQqatH5SZ6pbanHqjcnWk2dOvjDFYErulGNT6VP5Uw+nEdKS0vakfeJH8av4fem89E3pvQKuYIPgmdBfuE7YLfIRrRE9zfDJWJPRlemTuTazO8svqyyrR8wVV4hfZIdmb81+mxOVszunPzcpd38eOS8t76hEW5IjOTPNeNrMae1Se2mxtGO61/T103tl4bJdckQ+Wd6YrwM/9FsVNorvFA8KfAsqC97NSJxxeKbWTMnM1ll2s5bNeloYXPjDbHy2YHbLHNM5C+c8mMuZu30eMi99Xst88/mL53cuCFlQvZC6MGfhr0VORWuKXi9KWtS02GjxgsWPvgv5rrZYo1hWfHOJ95KtS/Gl4qVty1yWbVz2pURY8kupU2lZ6aflguW/fD/u+/Lv+1dkrGhb6b5yyyriKsmqG6v9Vlev0VpTuObR2glr69ex1pWse71+6voLZa5lWzdQNyg2dJRHlDdutNi4auOniqyK65UBlfs3GW5atuntZuHmK1v8t9RtNdpauvXDNvG2W9tDttdXWVWV7SDuKNjxZGfiznM/sH+o2WWwq3TX592S3R3VsdVnajxqavYY7llZi9Yqarv3pu69vC9wX2OdQ932/cz9pQfAAcWBPw6mHbxxKPxQy2H24bofLX/cdIRxpKQeqZ9V39uQ1dDRmNzYfjTsaEuTd9ORnxx/2t1s2lx5TPfYyuPU44uP958oPNF3Unqy51TmqUctU1vunJ54+tqZmDNtZ8PPnv85+OfT5zjnTpz3Od98wevC0V/YvzRcdL9Y3+rWeuRXt1+PtLm31V/yuNR42fNyU/v49uNX/K6cuhp49edrvGsXr0deb7+RcOPWzdSbHbeEt7pu595+8VvBbx/vLLhLuFtyT/Ne2X3D+1W/2/6+v8O949iDwAetD+Me3nkkePTssfzxp87FT2hPyp6aPK3pcu5q7g7uvvzHpD86n0mffewp/lPrz03PbZ7/+Jf/X629E3s7X8he9L9c/kr/1e7Xrq9b+qL77r/Je/Pxbck7/XfV79nvz31I+vD044xPpE/ln20/N30J/3K3P6+/X8qX8Qc+BTCgPNpkAPByNwC0ZAAY8NxInaQ6Hw4URHWmHUDgP2HVGXKguANQB7/pY3rg181NAA7sBMAK6tNTAYimARDvCVAXl+E6dJYbOHcqCxGeDbZFfk7PSwf/pqjOpN/4PbIHSlVXMLL/F1Hzgy5uyR+LAAAAimVYSWZNTQAqAAAACAAEARoABQAAAAEAAAA+ARsABQAAAAEAAABGASgAAwAAAAEAAgAAh2kABAAAAAEAAABOAAAAAAAAAJAAAAABAAAAkAAAAAEAA5KGAAcAAAASAAAAeKACAAQAAAABAAAA1KADAAQAAAABAAABQAAAAABBU0NJSQAAAFNjcmVlbnNob3RoOIy6AAAACXBIWXMAABYlAAAWJQFJUiTwAAAB1mlUWHRYTUw6Y29tLmFkb2JlLnhtcAAAAAAAPHg6eG1wbWV0YSB4bWxuczp4PSJhZG9iZTpuczptZXRhLyIgeDp4bXB0az0iWE1QIENvcmUgNi4wLjAiPgogICA8cmRmOlJERiB4bWxuczpyZGY9Imh0dHA6Ly93d3cudzMub3JnLzE5OTkvMDIvMjItcmRmLXN5bnRheC1ucyMiPgogICAgICA8cmRmOkRlc2NyaXB0aW9uIHJkZjphYm91dD0iIgogICAgICAgICAgICB4bWxuczpleGlmPSJodHRwOi8vbnMuYWRvYmUuY29tL2V4aWYvMS4wLyI+CiAgICAgICAgIDxleGlmOlBpeGVsWURpbWVuc2lvbj4zMjA8L2V4aWY6UGl4ZWxZRGltZW5zaW9uPgogICAgICAgICA8ZXhpZjpQaXhlbFhEaW1lbnNpb24+MjEyPC9leGlmOlBpeGVsWERpbWVuc2lvbj4KICAgICAgICAgPGV4aWY6VXNlckNvbW1lbnQ+U2NyZWVuc2hvdDwvZXhpZjpVc2VyQ29tbWVudD4KICAgICAgPC9yZGY6RGVzY3JpcHRpb24+CiAgIDwvcmRmOlJERj4KPC94OnhtcG1ldGE+CvwxIvAAAAAcaURPVAAAAAIAAAAAAAAAoAAAACgAAACgAAAAoAAAFqGG6HXUAAAWbUlEQVR4Aexd6W9c1339cd/3ZUgNd0nULlIiJVmS5TV2rBhGhKaF0ywFgvRDgX7q/1G0n7oAKdI2aeDYSRM3hoM4iuPYkqmN2iWLEkVxEfd930X1d+5oBJKY92beaMjMG50rPD3OvPuWe9457y7vzu/EPdYkTESACEQEgTgKKiI48iBEwCBAQZEIRCCCCFBQEQSThyICFBQ5QAQiiAAFFUEweSgiQEGRA0QggghQUBEEk4ciAhQUOUAEIogABRVBMHkoIkBBkQNEIIIIUFARBJOHIgIUFDlABCKIAAUVQTB5KCJAQZEDRCCCCFBQEQSThyICFBQ5QAQiiAAFFUEweSgiQEGRA0QggghQUBEEk4ciAhQUOUAEIogABRVBMHkoIkBBkQNEIIIIbLqglpcfyfLyiizp+tGjlfCLEieSlJggiWaJl4T4+PCPxT2jEoEVjXDn5wvWKyvhR7yLj48zXPFxJl7i4pRAG5A2XVDTM/MyPbOgy7zMzS+GXSQAkpWRKpm6ZGSkSGpKUtjH4o7RiQBE5OcK+IKHcLgpOSnRcCVTuQLOJCRszAN40wXV1T0iXT2jgvXA0GS4+OjTJl4qygqkwqtLWb4U5GWGfSzuGJ0IzMwuPOUK+AJxhZtystOe8CXfcCY1dWMewJsqKASpvXStQ5d2ab7aIS2t/eHiIykpiXKovkoaD1TpulpqKovCPhZ3jE4EhkenpVm5ckm5At4MDU+FfaFbSnKecgV8gcA2Im26oJou3ZemS21muX2nJ+wy4Qlz9NBWOXZYl8Ztsr3GE/axuGN0IjCoAmpqvi/nLvo4MzAYfoumbEuejyuHtskxXXJz0jek0BTUhsDKg0YCAQoqCIpo8tnVUOgopiQnSrIuWGNkxiqhyddQVyUN9ZXSsL9KqisKrbLye5ciMDI2LZevd+rSIZevdcrQiH2TD6PGGLiYnVuUhYXlNaV+LmsoiCgrK01yslIlW9dJSdYjMRi12bvLK3t2emWvLt7SvDUA8oP7ERifmJXbd3vkVosu2j0YG5+xLBQ8ZBYWl2VOxQThjU/Mrcn7XAoqLzddtm/1SK32h2p1nZGeugaU1R8SEuKkqCBLCrHkZ0pWpnXe1fvxb/cgsLCwJEM6MDGsAhkemdbXLEuWF/9YHsuo5u0bnJDzzQ/kzr2+NXmfS0F5S3OfDDT4Oo75uRlrQOEHImCFALoTeB3T+qBf3v/1Jfm86d6arBSUjsRQUGs4wQ82CFBQOnS+fticNZQNY7jJFgEKioKyJQg3OkOAgqKgnDGGuW0RoKAoKFuCcKMzBCgoCsoZY5jbFgEKioKyJQg3OkOAgqKgnDGGuW0RoKAoKFuCcKMzBCgoCsoZY5jbFgEKioKyJQg3OkOAgqKgnDGGuW0RoKAoKFuCcKMzBCgoCsoZY5jbFgEKioKyJQg3OkOAgqKgnDGGuW0RoKAoKFuCcKMzBCgoCsoZY5jbFgEKioKyJQg3OkOAgqKgnDGGuW0RoKAoKFuCcKMzBCgoCsoZY5jbFgEKKgYE5fe5gi3PogZZRIJPFaLaIvotgnHaRb+1ZciqjYtLvgCOC4uPZEn/hidWUlKCsfBBcNA4jbAb/wx+RwgSieMuLj3SiKtLT21jfJF8k0wUX5wvEmVZVayI/klBuVxQIOHM7LxMTs3Lw95RE4wRDElLTRZPUbYG38wSBO6EsJ41jY7N+M6hgRzHJmaML1aeBrsvLsqRYg30mZSsAlORhZtgZIaorKO6wGJoYnLWHCo9PUU8hdlSoIFE8zRGYrKKKloTBeViQcFmBdFMewfGpa9/Qvp0DTIiwfgNYvIUZ8uWklwpKc4xAkNNEqrJF2J0I6wwQhH3DUxItwr2oQZxHNFzTEzOaUTdZGPHUqxk9xTmiHdLrpTqecIxnoOAsHTr8Xv6x2V4dEqmpudNWfBwQFTeUk+uIFBkicdXlmcRrznwBvxHQblYUPAqunjlgdzUeNutbQOmubf8xN4UTS80yQoLMqS6stAYGpx4oVaKVGTJWpOEYkU5r80u1EqI5/2HL76StvYhU4NAZDhPgjbxEtRwLj0tRXLV5+jE0Vp5obFGKtWADuGpnaQz5+/Jl2oXA6+uzofD2vRTq9Yn1pto4kE8Jfpw2Lm9RA4drJGXtCzRGPaagnKhoFALDQ5PytnzrXLmQqt0do1Irz7VAyVYTxYXZUndnnIl/A7Zua1EKssLbJtmIAXIDB8kOE40q3Ah3n6tpdBPW+8xC+GmqU9W3d5yObi/Uo6rV9au7VtM/ypYbQirmH6NA/6nL1vkrJalp2/c0tAM5mSoBRvV7eSV4zv1QVFkRBZNvsYUlAsFBRcIuC+eu9gmFy63m847fGADJTzdQWrYle7fUyYnjtTKayd2aa2SHCi7+Q6CQS10W8/z0w/OGVGhj4ZBifViwg4Yh4iPi1fHklQp1ybZt//iiLx6fIepQVKCeA5DrGcvthrRXr/VbcyhrUzE/TXVtppidQGsVsOyrXJcQ2VHon9oCYbDDRSUCwX16Zk78uFvr8g9bea1dw6HdMvxdC/VvsfXX9sr3z512DjnWdUeaOr1ak2B2ukXv2lWK5deJfqKgCx2CTVVQV6GvP3mfnlZa0MQP1jT76NPrsvPP7xo+mfoB4aSMDiBvtTbb+yXd08dMgMwoey3GXkoKBcK6r1fXZB/+fFnOrI3J/M21iqrCYQ+E57w33yrXv7+h69LcWGWGVZfncf/NwYcrt7slHPNbfLZmRbpeDji3xR0naEjcvAbPtJQI68cU1FVF9vu8x8//UL+6d9+Lysq1kC1X6Cd/WX5zreOyD/83Zvqpp4SKNuf5TsKyoWCQjPsn//9tOnPWDWPrNj0ltZQP/jOi6YJmJ+baZpr6/OO6ageBjvOqQ/xGe2nPewZW5/F8jM8h3doP62hrlLeebPOGNEFygxndTwQ/ueX5+VHP/kiUJag3536xgH52++fkBIdtocxXjQkCsqFgvqv976Uf/zXT56+xHVCpFe0b/PuqUY1lCvR/k5+wNE+DHoYy1QddTun+GCgINSEl8hl3jwdBCnT8xw2gxSB9sWgCt6bffjxVXn/w0uBsgT97msv7zZl2VpVrE3A/KD5NyMDBfWcCer1l3YJmkogIfpUgYbPn0VQeM9VVVEg9fsq5C/faTSji4GIjHdbQyOT8sH/Nct//7wpUJag3739xj75m3ePGTEF66sFPViEMlBQLhTUT95vMv0ODB6E3u/AaFycvPnKHkNCDJ3jxS9G6NYnNPnOX24ztdSX5+/rgIGDJp+O6u3Y7jE10ztfrze+w+uPj88wdJ7SJt/P/veC/Ej7UY91ZBH9qFCSvw916qQ2+b53Ql8LZEfNOykKyoWC+tXHl+XHPzur76JgiuybnhOMiJgDh3dFb79RJz/87otSpLMb8DlQmp6ZlzutfTok/0A+Pn1TX+gOBsoW8DsMEBzT91DHdDj7qC7VFYUB82GYH3P2PtDm3n++d9bMipieWQiYd/2XuG681P2mCuoHf31cZ2ukm3de6/P9OT5TUC4U1GdnW+Q3v7sqd+8PyIPOIR3OlqBD2hg2x/Sjb3xtn3z3r45Kto25Nmo+TGO6cqNTfvnRZX0f1Wv6a3a1IWo69J8wpH3y9b3yos5kgOF3sKbYb0/fkF981Cxd3TrlqG/MlMOqosI54vRfYWGmmY1x8vV98i1tVlo9GCioTUIATxHT6VYxNblQUPe1xsBL10+/uCN/arprXobiPZFdwsjby8dqzXD2IX0pirl+Vgkjh7M6IwLTmT765Jo0X+80c/hmZxetdjEvjzEYARGdfG2fHNZzZKuI7c6Dg7VoTXjjq27BQwJTj5a11vJPn1p/MsyISEyKl/27yuTVEztNs3Lf7jLbWR/rj7HRn1lDuVBQGG4eHZ+V05/dltOf39aZ37Om6Yf5b0valEJ/BD+lwKxsTCxFM+ygDmOf1NoJ74UwzGz1Unc14TAlCA8e1FSopYa0iTmn773wExHMmjAE15e5+JkIJsTuV3If0MEINPcg4FAS3nlhEOR3f7wlf9QX1phtju/QHPTP/sB5MP8wMyPVGIgfPlgtb6loy1XAmH2O92vRkigoFwoKwgGhO7qGpa1jSG61dGufp98QflyFBlGhz1RUkKkjboWyu9Yru2pLleQeM0MCtUag0b31pMRL4+GxaXMe1IioGXHOfp0VPjwybaYv5eakmdns5d58OayTVjFnEDPDQ5246i8Lmq6YfIuytNz3lQXTnZDS05K0z5clNTp3b5/WTttrPOZvPCiStJkZaGBlfVk26zMF5UJB+clhRsr0Jw637/Zof8pHwjEISgVnBKV9DQwK7NnhVdLnqZjSzAx0//6hrlFrYLYExNSuy4DWXEMqKPPzDf09lFd/HoLmHs4D0oeT/C96Mc3pXpuvLBOTfkElS5FO8K3RWfM4B/plmJERTTWTv8wUlIsFhb4OFoyOgZBoiqF2wvAzfr6BSaPosKOphEmqSfpTi1BqJj85/Gscc06HudHcw2zzhQU9j4oWzcZEPSaOjVoPNYbdpFv/8QKtUQ70nTDCOKN9NZTF3y9MSPCXxdd8RbnQDIymmslfJgrKxYLy30SuowcBCoqCih42xsCVUFAUVAzQOHqKQEFRUNHDxhi4EgqKgooBGkdPESgoCip62BgDV0JBUVAxQOPoKQIFRUFFDxtj4EooKAoqBmgcPUWgoCio6GFjDFwJBUVBxQCNo6cIFBQFFT1sjIEroaAoqBigcfQUgYKioKKHjTFwJRQUBRUDNI6eIlBQFFT0sDEGroSCoqBigMbRUwQKioKKHjbGwJVQUBRUDNA4eopAQVFQ0cPGGLgSCoqCigEaR08RKCgKKnrYGANXQkFRUDFA4+gpAgUVQFCe4mwTurhhf4WJn52r7g5WCXHufHHpEp/EvkuwysrvXYoAYgbCxHtBTRRgpIDPVgmC6lWjBQQE/fj3N4yp+Oq88Ab2u5MgZHWuBgrdiBSnFxKaOVAEzo5T2ZkFwEFi945SE754t4YwtgsrHK8BFwFKXk6GWYcb6DECxeIhNggBhL2GbRCWsYkZE4TT6lRg8dDIlHES+bzpntz8qmdN1udSUIi2mq9u5hAW1rBpsUoIyI/A+P6l1JNrlZXfuxSBCTVnuHu/z4S7Rsjr8Yk5m5I8VjO5JRMBF0Z1iAG/Oj2XgloNQLC/YdJ89JAajMFkrHGbCWQfbB9udxcCMLZDiwYm3rA/GhicDLsAFFQQ6CioIADFwGYKKshNRB/qvNpdXrjSJueb2+WOOj6EmzAgcaSxRl5o8C0wg2aKLQTQJzJ8AWd0GVQ7n3CTtzTvKV+OKGfsBrzCPQf22+RBCZFrt7rk2m1dbnbJ/Qehe8iuLyScIGAyVr+vXOr3VEhFWcH6LPzscgRgCGf4cuuh4cvI6Np+kZPiedSW9QC4slc5o4vdgJeT467Pu7mC0rM/6BiUdph8qWFZb//4+usJ+TN8mGqqimRrZbFUqzdSsRqDMcUWAlNqsfNAeQJTOKzhIBluguOijy9Fhi8bNSq8qYICGPBT8i2LMq+eR+EmvIeCHSYMwLCkaI3FFFsIwJoUnlV+zvitSsMpJRwXfVxJNutQrFnDOc+mCyqci+Q+RMAtCFBQbrlTvE5XIEBBueI28SLdggAF5ZY7xet0BQIUlCtuEy/SLQhQUG65U7xOVyBAQbniNvEi3YIABeWWO8XrdAUCFJQrbhMv0i0IUFBuuVO8TlcgQEG54jbxIt2CAAXlljvF63QFAhSUK24TL9ItCFBQbrlTvE5XIEBBueI28SLdggAF5ZY7xet0BQIUlCtuEy/SLQhsuqDwq8vl5RVZ0vWjFetIoMEAjNMMiYkJT5Z4SdDAl0yxhcCKBvXx8wVrfA43xesvvMGXJMOZeMEvvjcibbqgpjVOwPTMgglIOPcMP4EHQJkZqU8W/Qm8RkFiii0EICI/V8AbPITDTQiaupovMfMT+K7uEenqGdVl5JnCQuFpU+HNl3KNdoR1QV5muFhzvyhFALEkwJWHTzgDUYWbsrPSTGQscKXCWyCI67gRaVNrKMTlu3StQ5d2ab7aIXdb+8MuU0pKojQeqJJD9dXSWF8lNRr5iCm2EBjWsGGGK8oZ8GVII8mGm0pLcuWQ8sVwpq5acrLTwj2U7X6bLig7swDbK123kZFj1wESgx8ZOTbITQ3mvhFk9zWbKag1cMTkBwoqyG0NJih0FBFfD1FhsY6Ptx6JQZOvoa5KGuorpWF/lVRXFAY5Oze7DYGRsWm5fL1Dl065fK3T2NXYlWFZ/aMwkDE7t6ieUstrsj6XZgEQUnZWqi5pkqNrDDxYJeTdu8sre3d6ZY8uZRq7mim2EIAv1K2WHrmtC9ajYzO2BYSIMHKMvtb45Noos8+loPJy040tzfatHqmt8egwZ4olgHjvVKjhl4sKMqUwP2vDYlVbXgA3bDgCcC2Ez9Pw6JQRCT5bJbyiQo3WPzihRhQP5M69vjVZn0tBeUtzn3g+bRPYNuZrPGomIhAKAuhOYIi99UG/vP/rSwIXw9WJgqKgVvOBfwdBgIIKYFrNGioIa7jZEgEKioKyJAc3OEeAgqKgnLOGe1giQEFRUJbk4AbnCFBQFJRz1nAPSwQoKArKkhzc4BwBCoqCcs4a7mGJAAVFQVmSgxucI0BBUVDOWcM9LBGgoCgoS3Jwg3MEKCgKyjlruIclAhQUBWVJDm5wjgAFRUE5Zw33sESAgqKgLMnBDc4RoKAoKOes4R6WCFBQFJQlObjBOQIUFAXlnDXcwxIBCoqCsiQHNzhHgIKioJyzhntYIkBBUVCW5OAG5whQUBSUc9ZwD0sEKKgYEBR8rhCpFMEVFxZ9kUr90W8R+TZJLVTsot9asmPdhsUlDeA4tyRYY0lMSJDkpARj4YPzxGmEXdj7hJsQ027JHPuRRlxdemobY8qiNkEpWo4kPV8kyhLuNQbbj4JyuaBAQtitTE7NSXfvqAxpMEaktNRk8RTmSKEG4MzLSTdhpYORIdh2REx9qOdAIMex8Rnjc4SgoDhPUUGWJCX7jMSCHcdq+8rKYxnTKK2jevyBoUmZmJo1WTPSUqS4MFsDiWZKrsZIhIijNVFQLhbUiNqsDOnS1z8ufQPj0quLP0xwqj7RQXJPUbZsUQsVT3GO+Rux2EN1WXykMbpR4yEUMSKhdveOGT8tnGNCBZyRnqKhqtMM2XEer4ahLvFkm+9xfidpcHhSBgYnVbBj0ts/ZiK1Tk77whjj4VCoZSnVMpR79Ry6LtbzwQUw2hIF5WJBwePq4tV2ufVVt7S2DZhmGJp/SGh+gXB4qldXFsrBuko58UKtFGm46GStSUKxokTIYYjn1p0e+fTMHWlrH5RRrZkgMogNTa9ENVZIV2Hlqs/RiaO1cqShRirVfA5idpLOXLgnTRfvS4t6dXV0jZgmLM6BZM6jZSn15MiO7SVy+EC1KUtWZqqTU2xKXgrKhYICqRGI/syFVjl7vlUJOKxP9fGAhEFc9uKiLKnbUy4vHd0hO7aVSGV5ge3THaR4pM0v1BhXbnRKswr3kgq3b2DC9NPQNFudYKaQpk589XvLjXARvnrX9lLT3wlmeTk0MmWO+3lTi5zRsvT0jVsamsGczLslzxjbvXp8p1Sp00lJcXbINe7qa96ov6NFUP8PAAD//4hrbmsAABp6SURBVO1d+XMV15U+Wp72fRfadwQSIEtCIBY7GGODhzGeeEzs2KmUZ1yVqvwy83+knPnJrmyexEtc2I6DtziGMiYsQiCJXSCB9h2taF+R53z38RhJ6X6bhdzdnFPVar3u2933nj7fO/eee9/5fL5joTUSPKqqpom3ZrXV3+xe9uSU5CjaXp5DlVtzqbI8l2KiQped/6E/XG/optorbVR1oYnO17XS/Pw9Wli4p1ktX18f8vPzpYzUWNq0MZV2bsujPTsLKSQ4QLM8Di4ufkezcwtU39BD731URbWX22lsfJrm5hfUuZUX+vgQ+fr4Unh4EKWlxNBLz2+lJ3YUUHhYEAUG2lYWX/a59nIbneV2YH/leifNczvu3VtcVsbxwdfXl2z+vpSbnUhlJZn8bnJoB7+fgAB/R5EffA/b6ugeptstfXTkrzX0j6pby+qUui6a7Ypti+uNLSoyZNn51frgI4ByX5XfnL5JR7+6RLea+qi1fdCtCyMjgik5MZKe3lNEP3m+gqL4M4CmJTOz89TTd5fqrrTTR5/WUH1jDwN2kVx95/n7+1FsdCg9u28TPV5ZQLlZCRQfG671iAfHPv/6Ch05eoE6e0aol5/pjsTGhDFwo+nA3k10+FA5BQfpfzm4c7/VLCOAYi9lNg/1wSfn6c23v1VeY3pm3i178GE3Am/13P4S+uVreyghLpy9h/Y3++jYNF261k7Vtc104nQDtXUOufUMFAoNDaSyLZlUUZpNT9wHlbOLf//eKXrjrePs+RY1vZ/WtWiLH7flpR9X0H//Yh+F8TONIgIoEwLq3Q/P0a9/c5ymp+d0u0d6BvYMe6jXfrpTdc1iosII3bWVMjI6RRcuttA57hafrr5Nnd0jK4vofg4KslFBbhKVbs6gg/s208b1KZplJ6dm1RfC+x9X02/fOaVZxtXBQwdK6PVXd1FifCRFhAe7Kr4m5wVQJgTUHz84S79682ua43GOp4KxzYuHyig/J4nS1sUwoP4ZUcN3J+1jTB7bnGP9dPe61xVDXQJs/pTK3bHNPF47fGgrPbYpQ7OK/YNj3M0boqNfXuYuX41mGVcH9z5eqLp82ZkJqi2uyq/FeQHUIwaoJ3cX0svcVcphI8SYarUBFcgBgsz0WNpSnE4vHCxjYKVp2vFd9oIDQ2P04dFa+tORKs0yrg4++1Qx/exwJaXyF4OrsZqre63WeQGUCQH1DhvgG28dIwQPEJFzR+CIAJ59T2xURpiRFktxMeE6Xb5Jqq5rUV7qbHUTdXHAwF0J4qhefl4ilbJnOvj0FirS6fJNcXd1nCOH7//lPP3u3VP0Hbdj0c1AL9qB8eAhHg/+5yu7KCE+QkUU3a3jwywngDIhoD75oo7+8OczNDA4Tvimd0dsNj+Ohtno2ac28RiKjTAuQn3WunZicoZu3u7lkHwLfXn8KjW3DmgV0zyGAAHCwtvvh4Wz0uM0yyHMP8fh/g85wvc2d2EnJmZoYnJWs+zKg2gHQvIIsPz8pR2ECCa6mkYQAZQJAfXtmQb6FGHz5jvU0j7A4WxyGdKG0SUlRNL+vcX0ygvbeRAfpGt/8Hy9d+7Sxavt9PFndWo+Sm8OynETeEAbG3Uch7SfebKIdvF8V352EsVzNNGZALAff1bLczdDaqwGg9RzVMrLkg/FxYZROs+roS3oVgJgRhEBlAkB1dTST5jcPcHzUSerGtWkLuaJnAkib7sr82kbh7PLS7IIXTM9wcQqumS3eHLyC54nwiQyIn1TU3N6l6g5LUxa5ucm0v49xeoZkRx5Q9TPmcATXq3vopNnG9QE7wImqXUmdv14Ytff5kvFhak8Ob2eHuNIYvGGVJ7s9XP2iDU9J4AyIaBGeewxMjJJx07W0/F/3KARjsph7ghdKBgkxiIYYwRwNy+IJz3RDUO07cDeIrXKIInDzHqTukutr69/VI2j6thT3eBVE+hiYt4LqyjmedWEMnA2ZsxnhYYEqpUYW4rTePVCngqdL72X3v+oN6KKf//muvqCwP9qVcYcgGVf/YHnBAT4cTuCKDoqhLaWZNN+9oJYlRHNq1jQVqOIAMqEgMJSI3TBWjsGqaVtgK7d7KKGpl42+AkG15RavgMwxXPXKJPHMBvy19H6vGTektRSF3gnrejeSqOcYfAMDk/wxO6g8ohNrf3Uxs+80z+mjmP5UlRkMK1LilLGDc+3pShNBTswxnFHHG1BO5ra2PPyMrDG5j4F3rGxGXWL4GCbmojOzoxXQY48XnqEUDm+KDB2QlfQKCKAMiGgHMajImU8mK9v7GZAsREOjCtvhfVwCEJgNQQAtbEghVKSopXxY3mQpwIPCFABwNgAKHgrrIrAEqZ1ydFq7qmIn5OdEe/p7VV5x0QvljndYkD1c1vgqSDBDFy0BffGRDFC5PCIRvJMqqL8RwBlYkBhrINtnKNyMMg57ibhGx8vFR4I3SQYYzh3ldAtw1jDHc/kMA7HHgDFqgx09wBiTChjQ7cRAA3ie2OshC6Zs0W3jvtp7dEOjAMRYXzQlhVdPtwbz8BiWHQDjeSZHG0SQJkYUI6XKHvjaEAAJYAyjjVaoCYCKAGUBczYOE0QQAmgjGONFqiJAEoAZQEzNk4TBFACKONYowVqIoASQFnAjI3TBAGUAMo41miBmgigBFAWMGPjNEEAJYAyjjVaoCYCKAGUBczYOE0QQAmgjGONFqiJAEoAZQEzNk4TBFACKONYowVqIoASQFnAjI3TBAGUAMo41miBmgigBFAWMGPjNEEAJYAyjjVaoCYCKAGUBczYOE0QQAmgjGONFqiJAEoAZQEzNk4TBFACKONYowVqIoASQFnAjI3TBAGUBqASEyJU3uzSTemcwjhTJYjUe2XIcxcUYFPkzI7cd3pl5bg5NYCcgUg/PcskCiBSuMf0pXoCQPX0jXJC0AH68thVRSq+tOwjSVoNUuQNBclUmJ/MaYyTnXIPgZkcTN7RkaFq722ix6VKl/+NpQGkvQZtELaR0UmnzJFgDhkYGmcmkRHFAH/tRveyxjySgAI9SkxMKDOahylWc2Qq1ROkPAazhdpykhUroF5ZOW5ODSAlNFJdN97fRsf0ObkAKGTZRQZcMNsPDk0sa/QjCahlGnDxASmIt5fnKJKxyrJcQiJ7EWtpoJ/zuFcxgTdIvKt4iIDc7t6KAMqF5gRQLhRkgdMCKBcvEQNHcMhW1zWrQeMNZnzwVkANU1GWrYjMKpjMLJdpVkSspQGMiey20qLs5c7A9/BQzFRSUZbF9pJDsJeoiJCHoiwfNnL32JdX4fF40uXrHXS5nrdrHXSbGQG9FbCeg/G8hHmRNhelUwZTVYpYSwMggVP2cr1T2Qs4s7wV0LKClK6EbQX2EuEmj5anz1tbQHHtWpjcq5X5aZuZ6Kun766n9X1QHkEJEIHlZCRQFvMXgcdIxFoaAF0QCOHAZ4y9g7fKm1aCcdFuL/HKXh5WVHhNAQVFgINIbcw8Dt4jbwWkXyD/AvkY9vBYItbSABjrJ5lf2GEz4ODyVsAs6bAV2Is71KzePGvNAeVNJeUa0YBZNCCAMsubknqaQgMCKFO8JqmkWTQggDLLm5J6mkIDAihTvCappFk0IIAyy5uSeppCAwIoU7wmqaRZNCCAMsubknqaQgMCKFO8JqmkWTQggDLLm5J6mkIDAihTvCappFk0IIAyy5uSeppCAwIoU7wmqaRZNCCAMsubknqaQgMCKFO8JqmkWTQggDLLm5J6mkIDAihTvCappFk0sOaAwq8wFxYWaf7ePUJmUG/Fhy/09/e7v/mSHye+FLGWBhY5CYnDXrDHZ28Fv/C2+f2/vSDz8MOQNQcUEhFO8M/fsZ+emfO6TVBQWGgQhYXwxj+DD+QsSCLW0gBA5LCVCU6dMM+ZZL2VAJu/3V5gM2wvlvkJfEfXEHV0D1Mnb98nLZS/vy+lc6aj9JQYSuMN2WZFrKUB5JKw24rdZiYmZr1uYGRE8ANbSU+JJeR1fBiyph4KGctqLrdR7eVW3tqo4Xaf121CXr6yLZlUVpJJ5bzPSo/3+l5yoTE1MMRpw2rYVuw200YDnEnWW1mXFKXspZztpWxLFkWGB3t7K6fXrTmgkFoXaXWx1d9cntDdaU1XnJTMsSsUYsGPkjnWxUuFhxJAuVCSnH6gAQHUA1Vo/+MKUBgognEDOfawIfCgJzhfyl290i0ZVMpcUlnpcXpF5bhJNTA0MkF1V9p4a+chQjszajjv8i1w1BiBjClm4ZidXR7AeCTJAgCmiPAg3oLV3sZhcT1B2aL1KVRUmEIbeZ/KuatFrKUB8EJdb+imet6u8/AAqZmdCYjZkDwVnm10bHpZ0UcSUNFRIYqWBtQ0eTmJHBIPXKaUpR/gzeJjw3gLpzjewh9Sruqlz5T/11YDYC2EVxpgricQB8w4yTSM3g88Wl//qCIWuHmrd1llH0lApSRH3ed8yqXK8lyK4XzUIqIBdzQAQCHEfrulj478tUaxGC69TgAlgFpqD/K/Cw0IoDTC5uKhXFiNnNbVgABKAKVrHHLCcw0IoARQnluNXKGrAQGUAErXOOSE5xoQQAmgPLcauUJXAwIoAZSuccgJzzUggBJAeW41coWuBgRQAihd45ATnmtAACWA8txq5ApdDQigBFC6xiEnPNeAAEoA5bnVyBW6GhBACaB0jUNOeK4BAZQAynOrkSt0NSCAEkDpGoec8FwDAigBlOdWI1foakAAJYDSNQ454bkGBFACKM+tRq7Q1YAASgClaxxywnMNCKAEUJ5bjVyhqwEBlABK1zjkhOcaEEAJoDy3GrlCVwMCKAsASmUqnb+naHlm5+yZSpEvMDDAxpsf2ZhCxVn2W13rWHFijmlcpqfnCft5fh6YR5AEFBQ+jgy734fviDNwKaqYOb737Ny8egaq4I+28DNABWOz+a1KW1Y0bdU+CqBMDigYIehWxsanqatnmAaZKQISzDQpCfGRFBcTRtGRISq19Pe1muGRSersHSawUYxwNtVw5jeK4nsnxkWqRJ82gNdJll1Xz19c/E7dd5gTRfYPjj3IuhoSHMBtiaA4pgqK5hyJAJVRRQBlYkAhQ+kgZzPtvXOXevpG1X74rh1QQYEBCkyJCZG0LimSknifEBfB3/T+brMsgtlxjj0eUhH3cibUrt4RxaeF5yLFcChn1AXfEe6byOBF+rWkhAh1HDQ/nggABJ6urp4R6um9SwPD4zQ+YU9jHByEtoRTcmIkpa6LUc8AwL4PeD2pmydlBVAmBhS4rS5calX5tm8131HGv8AUpxBfpprEN3kse6isjDgmMsigXdvylWEGsCdxp2uGFMTwSsjrfeLUTWpq66eRu1OcAH+e0M0E/akfd/tC2YNERoTQru15tK00WxHQITW1J3Lm/C06e6GJGpmrq61zSHX37i3aqVoVjaa/vwLS+rwkKn8si3ZV5Bsy7bUAyoSAQrJ65Ng+XX2bzvDW1jmovtW1DBi0kwnx4bS5KJ12b8+ngpwkykiLdfrtjm4kjLmfPYadcaKNahi4vXdG1TgNXbOlAo5hdDG3FKfRYwxcpK8uzEtWgHZFeYl2IA/4ybONBFB19bB30iE0gzdEKmMQ3D2xY71iOoFH9DUQr7EAyoSAAgtEDdOrVPE3+oW6Vg4SgIDb7pmWGjr+x7c7BvXpDKJNG1NpZ0Ue7dlZSBiX6AkAg+BGfUMPvffROUXlgi4eghErwYR7gHcZRg2iBFCj/uT5rWzwBeqzK87hWm4HPFPtpTa6Ut9JC2iLDok4PKK/zVcROQBU28tzaAeDFwwoRhEBlAkBdeL0TTr61SW61dRHLe2DbtlSZGSwGoM8/aMiNvgKiuJvez3vga5eT99d5Z0++rSG6ht7GLCLBGNxJvBUsdGh9C/7NtHuygLKzUpQwQpn13z+9RU68ukF6urmsRM/0x1BNxZ8xs/uLaYXD5Wzd9T/cnDnfqtZRgBlQkB98MkFevPtEyqyBx4idwRjJnir5/aX0C9f28OBhHAVoNC6Ft7o0vV2qq5tphOnG6itY0irmOaxUO5iwntgLPX4fVBpFrx/8PfvnaI33jrOnm9R0/tpXYvxoa+fD738b9vov37xlGJT1yr3QxwTQJkQUO9+eI7+5zfHFUMeInGeyDN7iui1n+5U3/AxUWGqu7byekT1zl9soXPMQ3y6uklF9laW0fsMzuH1uUn02OYMOrhvsyKh0yrrCPW//3E1/fadU1pFXB47dKCEXn91N0cYIxQ5nssL1qCAAMqEgPrjB2fpV29+raJ6ntoIxjYvHiqjfA5OpHEIWivah6CH4iDmsc051k83h7HdFUy+pqZE02Yerx0+tFUFKbSuRZi8s3uIjv7tMh05WqNVxOWxvY8Xqi5fTmaCaovLC9aggADqEQPUk7sL6eUfVxCMEPM6qw0orJjITI/liF86vXCwjIGVpmnG8IIDQ2P04dFa+tORKs0yrg4++1QxvXq4UoHJ0zC9q3t7e14AZUJAwQB//dYxQvBAK+qmZQyIxAE8+57YSD9jI0ToHJOlOL5SRkYnefzUorzU2fNNarJ1ZRm9z5jQzc9NpNLN6XTw6RLFP6xVdmpqTk3cvv+X8/S7d0+pdsAY3RE1HuSKP3dgC73+ym61isIoVKwCKBMC6pMv6ugP759WnK/4pndHMMmLuaIDezfRf7yyS61uwGctmZicoZu3e5kjtoW+PH6VmlsHtIppHsO8V+XWHDulanmemivSKogwP8L9R45eoP/981ka52dOTs5qFf2nY6g3AIQAy89f2qFWa6CraQQRQJkQUCfO3KTPvrpMjc191Mphc7xEV1/umBTF4B2AeuXftyt2ez0DhOfDcqaLV9vp48/q1HyU3hyU4x7wdFiEi7WDzzxZxKsy8ig/O4niOZroTADYjz6roY6uYRU2d9YWuzf1USTh6akxtP/JTfTCv5apLwpnz1jLcwIoEwLqdks/G3mXCmmfrGpUk7qYJ3ImBRx5281LgyrKcmhrSRY5W2uHyOHU9BzdYsB+fuwK1fESp05eY4dump5gTgurGPJzEhlQxeoZkeHBhKifMwFL+tUbnfTtmUbVxXRnYre4MJV+tHO9CnhgstpIa/oEUCYEFOaJRjgSd+xkPR0/eYNXaE+qxapqxQR3oxbZXam1fLxmD92j0JAgNaY5wBOhuVmJaqGs3qTuUuPHglhE+y5eaVdeCsuEMO+FBbPzvGpCrVxQP9/wVwtiizekUAkHIyq35nLoPHnprXT/R1uwXvDvJ67RN7xeEKvYsXIez3CsmMBz0GUNCwvklfOhVMFr+QBarMrA6vPV+GmKbgU9PCGAMiGg8FskdMHQ3WvmBatYvNrAY54BXnmOxas4H8AGGBcXRplpcbQhfx0V5idTAS8sxU854J20onsrbWeGwYNV320dgwpQTa131MLVO/1j6mciWL6EFRfJvMocKxfg+RDVi4sNo4iw4JW30/ys2sLgaW4f4LEa2tLFXdk7aj3f2NiMuiY42Ka6jtkZ8SrIAS+YnRnPE7pB6jdSWoEVzYetwUEBlAkB5bALdMvGJ2bY2BlQTb38G6LxZYDC+CUrPU5NrqYkRfNvl4L5R4Ge/5YI3rCVF+C2MYBbGVxYzArwhoYAUCHqZxupDKiNBSkcjo93VM+jvWOiF18OWDmPtoyx94IAuPG8wFcBip+BduGnI0byTI7GCqBMDCiMddAtQlRugiNkqivG0bPveHGrDy8zCuQgQTAbYxhHxIL4d1AYa7jjmRzG4djDi0zPzKlx1TSDGAtn0b20d8Xsv6ZF1xIew9miW8f9tPaqLVz3cW4HwKW6fPfHhX68zAhRPNwbbcFiWDzbSJ7J0SYBlIkB5XiJsjeOBgRQAijjWKMFaiKAEkBZwIyN0wQBlADKONZogZoIoARQFjBj4zRBACWAMo41WqAmAigBlAXM2DhNEEAJoIxjjRaoiQBKAGUBMzZOEwRQAijjWKMFaiKAEkBZwIyN0wQBlADKONZogZoIoARQFjBj4zRBACWAMo41WqAmAigBlAXM2DhNEEAJoIxjjRaoiQBKAGUBMzZOEwRQAijjWKMFaiKAEkBZwIyN0wQBlADKONZogZoIoARQFjBj4zRBACWAMo41WqAmAigBlAXM2DhNEEBpACqRmcXBwFfKjObYwE+rJ8hzFxRgY3pNbPbcd3pl5bg5NXCP6UpnZxd4m1cUQvisJyBt6GWu4NaOAfri2FVmMGldVhT538FOUslk29iiOJPvwxAfRrZ75ECr8HQ8SjH0MZiqNAAFUuQNBclqK+Q0xuGcU1tPkHAR2VOjOOc2lONtoke9+8vxH14DSHsN2iC1jU1xok99XmNY8QBnvQXr46mqW0yE0LWsAY8koJAFFaACo3kM75EnXE+Q0TSfmS3AblHANJtgBRSxlgZAXtDQ1KfYSBp574qTCymyJyZmmahuWKWsXqqNRxJQSxXg6n/QtWwvZxcON16WS3nZia4ukfMm0wDyrKNHAxJv9GhAluCtCKBcaE4A5UJBFjgtgHLxEjGGqma6y+q6ZkV7eaOh18UV+qcBqIrSLNrGRGYVpdmUy2TQItbSAHixHLZSXdtK/QPee6gUDkpsK2N7KbXbC8bfD0PWOChBdPl6x4MNjIDeCljPwXheUpRGm4vSKSM11ttbyXUG1cAw0/k8sJdrnYoby9uqJnEE2W4v6cpeIphN5GHI2gKKW9DCRGUtTPLV0jZA3Rzm9FZAEQNOJBCAZWckMBm0c05Zb58j1/1wGgAHl7IVkMKx3YyN24ngvKkRCO9yshIU1xX4rh5WVHhNAQVFgIMInErYg+bSWwH1Zigzn4cxARhIwDAXJWItDYCxXtkL2wqY6udd8Bk7az0ixkvtxR1qVmf30zu35oDSq4gcFw1YQQMCKCu8RWmDYTQggDLMq5CKWEEDAigrvEVpg2E0IIAyzKuQilhBAwIoK7xFaYNhNCCAMsyrkIpYQQMCKCu8RWmDYTQggDLMq5CKWEEDAigrvEVpg2E0IIAyzKuQilhBAwIoK7xFaYNhNCCAMsyrkIpYQQMCKCu8RWmDYTTwfyA0dfMH4o4wAAAAAElFTkSuQmCC;" vertex="1" parent="1">
          <mxGeometry x="172" y="234.27" width="40.23" height="60.73" as="geometry" />
        </mxCell>
      </root>
    </mxGraphModel>
  </diagram>
</mxfile>
